<svg  width="2100" height="72"><rect x="0" y="0" width="60" height="60" style="fill:#18c1c4;stroke-width:3;stroke:rgb(255,255,255)"/><text x="0" y="72" font-family="Helvetica" font-size="12" fill="white"> #18c1c4 </text><rect x="60" y="0" width="60" height="60" style="fill:#18c1c4;stroke-width:3;stroke:rgb(255,255,255)"/><text x="60" y="72" font-family="Helvetica" font-size="12" fill="white"> #18c1c4 </text><rect x="120" y="0" width="60" height="60" style="fill:#18c1c4;stroke-width:3;stroke:rgb(255,255,255)"/><text x="120" y="72" font-family="Helvetica" font-size="12" fill="white"> #18c1c4 </text><rect x="180" y="0" width="60" height="60" style="fill:#18c1c4;stroke-width:3;stroke:rgb(255,255,255)"/><text x="180" y="72" font-family="Helvetica" font-size="12" fill="white"> #18c1c4 </text><rect x="240" y="0" width="60" height="60" style="fill:#221068;stroke-width:3;stroke:rgb(255,255,255)"/><text x="240" y="72" font-family="Helvetica" font-size="12" fill="white"> #221068 </text><rect x="300" y="0" width="60" height="60" style="fill:#261b4d;stroke-width:3;stroke:rgb(255,255,255)"/><text x="300" y="72" font-family="Helvetica" font-size="12" fill="white"> #261b4d </text><rect x="360" y="0" width="60" height="60" style="fill:#301c7a;stroke-width:3;stroke:rgb(255,255,255)"/><text x="360" y="72" font-family="Helvetica" font-size="12" fill="white"> #301c7a </text><rect x="420" y="0" width="60" height="60" style="fill:#789ef8;stroke-width:3;stroke:rgb(255,255,255)"/><text x="420" y="72" font-family="Helvetica" font-size="12" fill="white"> #789ef8 </text><rect x="480" y="0" width="60" height="60" style="fill:#789ef8;stroke-width:3;stroke:rgb(255,255,255)"/><text x="480" y="72" font-family="Helvetica" font-size="12" fill="white"> #789ef8 </text><rect x="540" y="0" width="60" height="60" style="fill:#7998f2;stroke-width:3;stroke:rgb(255,255,255)"/><text x="540" y="72" font-family="Helvetica" font-size="12" fill="white"> #7998f2 </text><rect x="600" y="0" width="60" height="60" style="fill:#7998f2;stroke-width:3;stroke:rgb(255,255,255)"/><text x="600" y="72" font-family="Helvetica" font-size="12" fill="white"> #7998f2 </text><rect x="660" y="0" width="60" height="60" style="fill:#7f8d8d;stroke-width:3;stroke:rgb(255,255,255)"/><text x="660" y="72" font-family="Helvetica" font-size="12" fill="white"> #7f8d8d </text><rect x="720" y="0" width="60" height="60" style="fill:#80fcff;stroke-width:3;stroke:rgb(255,255,255)"/><text x="720" y="72" font-family="Helvetica" font-size="12" fill="white"> #80fcff </text><rect x="780" y="0" width="60" height="60" style="fill:#863bff;stroke-width:3;stroke:rgb(255,255,255)"/><text x="780" y="72" font-family="Helvetica" font-size="12" fill="white"> #863bff </text><rect x="840" y="0" width="60" height="60" style="fill:#863bff;stroke-width:3;stroke:rgb(255,255,255)"/><text x="840" y="72" font-family="Helvetica" font-size="12" fill="white"> #863bff </text><rect x="900" y="0" width="60" height="60" style="fill:#863bff;stroke-width:3;stroke:rgb(255,255,255)"/><text x="900" y="72" font-family="Helvetica" font-size="12" fill="white"> #863bff </text><rect x="960" y="0" width="60" height="60" style="fill:#a56cf5;stroke-width:3;stroke:rgb(255,255,255)"/><text x="960" y="72" font-family="Helvetica" font-size="12" fill="white"> #a56cf5 </text><rect x="1020" y="0" width="60" height="60" style="fill:#a599e9;stroke-width:3;stroke:rgb(255,255,255)"/><text x="1020" y="72" font-family="Helvetica" font-size="12" fill="white"> #a599e9 </text><rect x="1080" y="0" width="60" height="60" style="fill:#a599e9;stroke-width:3;stroke:rgb(255,255,255)"/><text x="1080" y="72" font-family="Helvetica" font-size="12" fill="white"> #a599e9 </text><rect x="1140" y="0" width="60" height="60" style="fill:#a599e9;stroke-width:3;stroke:rgb(255,255,255)"/><text x="1140" y="72" font-family="Helvetica" font-size="12" fill="white"> #a599e9 </text><rect x="1200" y="0" width="60" height="60" style="fill:#fad000;stroke-width:3;stroke:rgb(255,255,255)"/><text x="1200" y="72" font-family="Helvetica" font-size="12" fill="white"> #fad000 </text><rect x="1260" y="0" width="60" height="60" style="fill:#ffffff;stroke-width:3;stroke:rgb(255,255,255)"/><text x="1260" y="72" font-family="Helvetica" font-size="12" fill="white"> #ffffff </text><rect x="1320" y="0" width="60" height="60" style="fill:#a56cf5;stroke-width:3;stroke:rgb(255,255,255)"/><text x="1320" y="72" font-family="Helvetica" font-size="12" fill="white"> #a56cf5 </text><rect x="1380" y="0" width="60" height="60" style="fill:#a599e9;stroke-width:3;stroke:rgb(255,255,255)"/><text x="1380" y="72" font-family="Helvetica" font-size="12" fill="white"> #a599e9 </text><rect x="1440" y="0" width="60" height="60" style="fill:#f26196;stroke-width:3;stroke:rgb(255,255,255)"/><text x="1440" y="72" font-family="Helvetica" font-size="12" fill="white"> #f26196 </text><rect x="1500" y="0" width="60" height="60" style="fill:#f28d52;stroke-width:3;stroke:rgb(255,255,255)"/><text x="1500" y="72" font-family="Helvetica" font-size="12" fill="white"> #f28d52 </text><rect x="1560" y="0" width="60" height="60" style="fill:#f85e9e;stroke-width:3;stroke:rgb(255,255,255)"/><text x="1560" y="72" font-family="Helvetica" font-size="12" fill="white"> #f85e9e </text><rect x="1620" y="0" width="60" height="60" style="fill:#f85e9f;stroke-width:3;stroke:rgb(255,255,255)"/><text x="1620" y="72" font-family="Helvetica" font-size="12" fill="white"> #f85e9f </text><rect x="1680" y="0" width="60" height="60" style="fill:#fad000;stroke-width:3;stroke:rgb(255,255,255)"/><text x="1680" y="72" font-family="Helvetica" font-size="12" fill="white"> #fad000 </text><rect x="1740" y="0" width="60" height="60" style="fill:#fad000;stroke-width:3;stroke:rgb(255,255,255)"/><text x="1740" y="72" font-family="Helvetica" font-size="12" fill="white"> #fad000 </text><rect x="1800" y="0" width="60" height="60" style="fill:#fefefe;stroke-width:3;stroke:rgb(255,255,255)"/><text x="1800" y="72" font-family="Helvetica" font-size="12" fill="white"> #fefefe </text><rect x="1860" y="0" width="60" height="60" style="fill:#ff6e9c;stroke-width:3;stroke:rgb(255,255,255)"/><text x="1860" y="72" font-family="Helvetica" font-size="12" fill="white"> #ff6e9c </text><rect x="1920" y="0" width="60" height="60" style="fill:#ff6e9c;stroke-width:3;stroke:rgb(255,255,255)"/><text x="1920" y="72" font-family="Helvetica" font-size="12" fill="white"> #ff6e9c </text><rect x="1980" y="0" width="60" height="60" style="fill:#ff6e9c;stroke-width:3;stroke:rgb(255,255,255)"/><text x="1980" y="72" font-family="Helvetica" font-size="12" fill="white"> #ff6e9c </text><rect x="2040" y="0" width="60" height="60" style="fill:#ffe46b;stroke-width:3;stroke:rgb(255,255,255)"/><text x="2040" y="72" font-family="Helvetica" font-size="12" fill="white"> #ffe46b </text></svg>