<svg  width="5460" height="72"><rect x="0" y="0" width="60" height="60" style="fill:#000000;stroke-width:3;stroke:rgb(255,255,255)"/><text x="0" y="72" font-family="Helvetica" font-size="12" fill="white"> #000000 </text><rect x="60" y="0" width="60" height="60" style="fill:#010b14;stroke-width:3;stroke:rgb(255,255,255)"/><text x="60" y="72" font-family="Helvetica" font-size="12" fill="white"> #010b14 </text><rect x="120" y="0" width="60" height="60" style="fill:#130c29;stroke-width:3;stroke:rgb(255,255,255)"/><text x="120" y="72" font-family="Helvetica" font-size="12" fill="white"> #130c29 </text><rect x="180" y="0" width="60" height="60" style="fill:#161633;stroke-width:3;stroke:rgb(255,255,255)"/><text x="180" y="72" font-family="Helvetica" font-size="12" fill="white"> #161633 </text><rect x="240" y="0" width="60" height="60" style="fill:#181036;stroke-width:3;stroke:rgb(255,255,255)"/><text x="240" y="72" font-family="Helvetica" font-size="12" fill="white"> #181036 </text><rect x="300" y="0" width="60" height="60" style="fill:#18c0c4;stroke-width:3;stroke:rgb(255,255,255)"/><text x="300" y="72" font-family="Helvetica" font-size="12" fill="white"> #18c0c4 </text><rect x="360" y="0" width="60" height="60" style="fill:#18c1c4;stroke-width:3;stroke:rgb(255,255,255)"/><text x="360" y="72" font-family="Helvetica" font-size="12" fill="white"> #18c1c4 </text><rect x="420" y="0" width="60" height="60" style="fill:#1c1a3b;stroke-width:3;stroke:rgb(255,255,255)"/><text x="420" y="72" font-family="Helvetica" font-size="12" fill="white"> #1c1a3b </text><rect x="480" y="0" width="60" height="60" style="fill:#1e1c3f;stroke-width:3;stroke:rgb(255,255,255)"/><text x="480" y="72" font-family="Helvetica" font-size="12" fill="white"> #1e1c3f </text><rect x="540" y="0" width="60" height="60" style="fill:#1e1e3f;stroke-width:3;stroke:rgb(255,255,255)"/><text x="540" y="72" font-family="Helvetica" font-size="12" fill="white"> #1e1e3f </text><rect x="600" y="0" width="60" height="60" style="fill:#1f1f41;stroke-width:3;stroke:rgb(255,255,255)"/><text x="600" y="72" font-family="Helvetica" font-size="12" fill="white"> #1f1f41 </text><rect x="660" y="0" width="60" height="60" style="fill:#1f1445;stroke-width:3;stroke:rgb(255,255,255)"/><text x="660" y="72" font-family="Helvetica" font-size="12" fill="white"> #1f1445 </text><rect x="720" y="0" width="60" height="60" style="fill:#201a38;stroke-width:3;stroke:rgb(255,255,255)"/><text x="720" y="72" font-family="Helvetica" font-size="12" fill="white"> #201a38 </text><rect x="780" y="0" width="60" height="60" style="fill:#211547;stroke-width:3;stroke:rgb(255,255,255)"/><text x="780" y="72" font-family="Helvetica" font-size="12" fill="white"> #211547 </text><rect x="840" y="0" width="60" height="60" style="fill:#222244;stroke-width:3;stroke:rgb(255,255,255)"/><text x="840" y="72" font-family="Helvetica" font-size="12" fill="white"> #222244 </text><rect x="900" y="0" width="60" height="60" style="fill:#251954;stroke-width:3;stroke:rgb(255,255,255)"/><text x="900" y="72" font-family="Helvetica" font-size="12" fill="white"> #251954 </text><rect x="960" y="0" width="60" height="60" style="fill:#252549;stroke-width:3;stroke:rgb(255,255,255)"/><text x="960" y="72" font-family="Helvetica" font-size="12" fill="white"> #252549 </text><rect x="1020" y="0" width="60" height="60" style="fill:#27264d;stroke-width:3;stroke:rgb(255,255,255)"/><text x="1020" y="72" font-family="Helvetica" font-size="12" fill="white"> #27264d </text><rect x="1080" y="0" width="60" height="60" style="fill:#2a1b5c;stroke-width:3;stroke:rgb(255,255,255)"/><text x="1080" y="72" font-family="Helvetica" font-size="12" fill="white"> #2a1b5c </text><rect x="1140" y="0" width="60" height="60" style="fill:#2d2b55;stroke-width:3;stroke:rgb(255,255,255)"/><text x="1140" y="72" font-family="Helvetica" font-size="12" fill="white"> #2d2b55 </text><rect x="1200" y="0" width="60" height="60" style="fill:#31e6e6;stroke-width:3;stroke:rgb(255,255,255)"/><text x="1200" y="72" font-family="Helvetica" font-size="12" fill="white"> #31e6e6 </text><rect x="1260" y="0" width="60" height="60" style="fill:#403c86;stroke-width:3;stroke:rgb(255,255,255)"/><text x="1260" y="72" font-family="Helvetica" font-size="12" fill="white"> #403c86 </text><rect x="1320" y="0" width="60" height="60" style="fill:#45f5cf;stroke-width:3;stroke:rgb(255,255,255)"/><text x="1320" y="72" font-family="Helvetica" font-size="12" fill="white"> #45f5cf </text><rect x="1380" y="0" width="60" height="60" style="fill:#484f7d;stroke-width:3;stroke:rgb(255,255,255)"/><text x="1380" y="72" font-family="Helvetica" font-size="12" fill="white"> #484f7d </text><rect x="1440" y="0" width="60" height="60" style="fill:#494685;stroke-width:3;stroke:rgb(255,255,255)"/><text x="1440" y="72" font-family="Helvetica" font-size="12" fill="white"> #494685 </text><rect x="1500" y="0" width="60" height="60" style="fill:#595a8a;stroke-width:3;stroke:rgb(255,255,255)"/><text x="1500" y="72" font-family="Helvetica" font-size="12" fill="white"> #595a8a </text><rect x="1560" y="0" width="60" height="60" style="fill:#5c5c61;stroke-width:3;stroke:rgb(255,255,255)"/><text x="1560" y="72" font-family="Helvetica" font-size="12" fill="white"> #5c5c61 </text><rect x="1620" y="0" width="60" height="60" style="fill:#5d37f0;stroke-width:3;stroke:rgb(255,255,255)"/><text x="1620" y="72" font-family="Helvetica" font-size="12" fill="white"> #5d37f0 </text><rect x="1680" y="0" width="60" height="60" style="fill:#5ca7e4;stroke-width:3;stroke:rgb(255,255,255)"/><text x="1680" y="72" font-family="Helvetica" font-size="12" fill="white"> #5ca7e4 </text><rect x="1740" y="0" width="60" height="60" style="fill:#66e9ec;stroke-width:3;stroke:rgb(255,255,255)"/><text x="1740" y="72" font-family="Helvetica" font-size="12" fill="white"> #66e9ec </text><rect x="1800" y="0" width="60" height="60" style="fill:#6df7d9;stroke-width:3;stroke:rgb(255,255,255)"/><text x="1800" y="72" font-family="Helvetica" font-size="12" fill="white"> #6df7d9 </text><rect x="1860" y="0" width="60" height="60" style="fill:#789ef8;stroke-width:3;stroke:rgb(255,255,255)"/><text x="1860" y="72" font-family="Helvetica" font-size="12" fill="white"> #789ef8 </text><rect x="1920" y="0" width="60" height="60" style="fill:#7998f2;stroke-width:3;stroke:rgb(255,255,255)"/><text x="1920" y="72" font-family="Helvetica" font-size="12" fill="white"> #7998f2 </text><rect x="1980" y="0" width="60" height="60" style="fill:#7a76c2;stroke-width:3;stroke:rgb(255,255,255)"/><text x="1980" y="72" font-family="Helvetica" font-size="12" fill="white"> #7a76c2 </text><rect x="2040" y="0" width="60" height="60" style="fill:#7d66ba;stroke-width:3;stroke:rgb(255,255,255)"/><text x="2040" y="72" font-family="Helvetica" font-size="12" fill="white"> #7d66ba </text><rect x="2100" y="0" width="60" height="60" style="fill:#7e7aaa;stroke-width:3;stroke:rgb(255,255,255)"/><text x="2100" y="72" font-family="Helvetica" font-size="12" fill="white"> #7e7aaa </text><rect x="2160" y="0" width="60" height="60" style="fill:#7ea7f3;stroke-width:3;stroke:rgb(255,255,255)"/><text x="2160" y="72" font-family="Helvetica" font-size="12" fill="white"> #7ea7f3 </text><rect x="2220" y="0" width="60" height="60" style="fill:#7d79d1;stroke-width:3;stroke:rgb(255,255,255)"/><text x="2220" y="72" font-family="Helvetica" font-size="12" fill="white"> #7d79d1 </text><rect x="2280" y="0" width="60" height="60" style="fill:#7ee2f3;stroke-width:3;stroke:rgb(255,255,255)"/><text x="2280" y="72" font-family="Helvetica" font-size="12" fill="white"> #7ee2f3 </text><rect x="2340" y="0" width="60" height="60" style="fill:#7ef3ca;stroke-width:3;stroke:rgb(255,255,255)"/><text x="2340" y="72" font-family="Helvetica" font-size="12" fill="white"> #7ef3ca </text><rect x="2400" y="0" width="60" height="60" style="fill:#80fcff;stroke-width:3;stroke:rgb(255,255,255)"/><text x="2400" y="72" font-family="Helvetica" font-size="12" fill="white"> #80fcff </text><rect x="2460" y="0" width="60" height="60" style="fill:#82aaff;stroke-width:3;stroke:rgb(255,255,255)"/><text x="2460" y="72" font-family="Helvetica" font-size="12" fill="white"> #82aaff </text><rect x="2520" y="0" width="60" height="60" style="fill:#82b1ff;stroke-width:3;stroke:rgb(255,255,255)"/><text x="2520" y="72" font-family="Helvetica" font-size="12" fill="white"> #82b1ff </text><rect x="2580" y="0" width="60" height="60" style="fill:#82b1ff;stroke-width:3;stroke:rgb(255,255,255)"/><text x="2580" y="72" font-family="Helvetica" font-size="12" fill="white"> #82b1ff </text><rect x="2640" y="0" width="60" height="60" style="fill:#8eace3;stroke-width:3;stroke:rgb(255,255,255)"/><text x="2640" y="72" font-family="Helvetica" font-size="12" fill="white"> #8eace3 </text><rect x="2700" y="0" width="60" height="60" style="fill:#9491ce;stroke-width:3;stroke:rgb(255,255,255)"/><text x="2700" y="72" font-family="Helvetica" font-size="12" fill="white"> #9491ce </text><rect x="2760" y="0" width="60" height="60" style="fill:#95acf1;stroke-width:3;stroke:rgb(255,255,255)"/><text x="2760" y="72" font-family="Helvetica" font-size="12" fill="white"> #95acf1 </text><rect x="2820" y="0" width="60" height="60" style="fill:#9cf1f5;stroke-width:3;stroke:rgb(255,255,255)"/><text x="2820" y="72" font-family="Helvetica" font-size="12" fill="white"> #9cf1f5 </text><rect x="2880" y="0" width="60" height="60" style="fill:#9effff;stroke-width:3;stroke:rgb(255,255,255)"/><text x="2880" y="72" font-family="Helvetica" font-size="12" fill="white"> #9effff </text><rect x="2940" y="0" width="60" height="60" style="fill:#9e62ff;stroke-width:3;stroke:rgb(255,255,255)"/><text x="2940" y="72" font-family="Helvetica" font-size="12" fill="white"> #9e62ff </text><rect x="3000" y="0" width="60" height="60" style="fill:#a56cf5;stroke-width:3;stroke:rgb(255,255,255)"/><text x="3000" y="72" font-family="Helvetica" font-size="12" fill="white"> #a56cf5 </text><rect x="3060" y="0" width="60" height="60" style="fill:#a599e9;stroke-width:3;stroke:rgb(255,255,255)"/><text x="3060" y="72" font-family="Helvetica" font-size="12" fill="white"> #a599e9 </text><rect x="3120" y="0" width="60" height="60" style="fill:#b07afc;stroke-width:3;stroke:rgb(255,255,255)"/><text x="3120" y="72" font-family="Helvetica" font-size="12" fill="white"> #b07afc </text><rect x="3180" y="0" width="60" height="60" style="fill:#b362ff;stroke-width:3;stroke:rgb(255,255,255)"/><text x="3180" y="72" font-family="Helvetica" font-size="12" fill="white"> #b362ff </text><rect x="3240" y="0" width="60" height="60" style="fill:#b4adca;stroke-width:3;stroke:rgb(255,255,255)"/><text x="3240" y="72" font-family="Helvetica" font-size="12" fill="white"> #b4adca </text><rect x="3300" y="0" width="60" height="60" style="fill:#c2f4e2;stroke-width:3;stroke:rgb(255,255,255)"/><text x="3300" y="72" font-family="Helvetica" font-size="12" fill="white"> #c2f4e2 </text><rect x="3360" y="0" width="60" height="60" style="fill:#c4a2f5;stroke-width:3;stroke:rgb(255,255,255)"/><text x="3360" y="72" font-family="Helvetica" font-size="12" fill="white"> #c4a2f5 </text><rect x="3420" y="0" width="60" height="60" style="fill:#cec5ff;stroke-width:3;stroke:rgb(255,255,255)"/><text x="3420" y="72" font-family="Helvetica" font-size="12" fill="white"> #cec5ff </text><rect x="3480" y="0" width="60" height="60" style="fill:#d6deeb;stroke-width:3;stroke:rgb(255,255,255)"/><text x="3480" y="72" font-family="Helvetica" font-size="12" fill="white"> #d6deeb </text><rect x="3540" y="0" width="60" height="60" style="fill:#efefef;stroke-width:3;stroke:rgb(255,255,255)"/><text x="3540" y="72" font-family="Helvetica" font-size="12" fill="white"> #efefef </text><rect x="3600" y="0" width="60" height="60" style="fill:#f26196;stroke-width:3;stroke:rgb(255,255,255)"/><text x="3600" y="72" font-family="Helvetica" font-size="12" fill="white"> #f26196 </text><rect x="3660" y="0" width="60" height="60" style="fill:#f3ca7e;stroke-width:3;stroke:rgb(255,255,255)"/><text x="3660" y="72" font-family="Helvetica" font-size="12" fill="white"> #f3ca7e </text><rect x="3720" y="0" width="60" height="60" style="fill:#f7f7f7;stroke-width:3;stroke:rgb(255,255,255)"/><text x="3720" y="72" font-family="Helvetica" font-size="12" fill="white"> #f7f7f7 </text><rect x="3780" y="0" width="60" height="60" style="fill:#fad000;stroke-width:3;stroke:rgb(255,255,255)"/><text x="3780" y="72" font-family="Helvetica" font-size="12" fill="white"> #fad000 </text><rect x="3840" y="0" width="60" height="60" style="fill:#fd1d53;stroke-width:3;stroke:rgb(255,255,255)"/><text x="3840" y="72" font-family="Helvetica" font-size="12" fill="white"> #fd1d53 </text><rect x="3900" y="0" width="60" height="60" style="fill:#fefeff;stroke-width:3;stroke:rgb(255,255,255)"/><text x="3900" y="72" font-family="Helvetica" font-size="12" fill="white"> #fefeff </text><rect x="3960" y="0" width="60" height="60" style="fill:#ff6e9c;stroke-width:3;stroke:rgb(255,255,255)"/><text x="3960" y="72" font-family="Helvetica" font-size="12" fill="white"> #ff6e9c </text><rect x="4020" y="0" width="60" height="60" style="fill:#ff6e9c;stroke-width:3;stroke:rgb(255,255,255)"/><text x="4020" y="72" font-family="Helvetica" font-size="12" fill="white"> #ff6e9c </text><rect x="4080" y="0" width="60" height="60" style="fill:#ff96b7;stroke-width:3;stroke:rgb(255,255,255)"/><text x="4080" y="72" font-family="Helvetica" font-size="12" fill="white"> #ff96b7 </text><rect x="4140" y="0" width="60" height="60" style="fill:#ffe46b;stroke-width:3;stroke:rgb(255,255,255)"/><text x="4140" y="72" font-family="Helvetica" font-size="12" fill="white"> #ffe46b </text><rect x="4200" y="0" width="60" height="60" style="fill:#ffffff;stroke-width:3;stroke:rgb(255,255,255)"/><text x="4200" y="72" font-family="Helvetica" font-size="12" fill="white"> #ffffff </text><rect x="4260" y="0" width="60" height="60" style="fill:#a1f7f8;stroke-width:3;stroke:rgb(255,255,255)"/><text x="4260" y="72" font-family="Helvetica" font-size="12" fill="white"> #a1f7f8 </text><rect x="4320" y="0" width="60" height="60" style="fill:#a56cf5;stroke-width:3;stroke:rgb(255,255,255)"/><text x="4320" y="72" font-family="Helvetica" font-size="12" fill="white"> #a56cf5 </text><rect x="4380" y="0" width="60" height="60" style="fill:#b07afc;stroke-width:3;stroke:rgb(255,255,255)"/><text x="4380" y="72" font-family="Helvetica" font-size="12" fill="white"> #b07afc </text><rect x="4440" y="0" width="60" height="60" style="fill:#b991f1;stroke-width:3;stroke:rgb(255,255,255)"/><text x="4440" y="72" font-family="Helvetica" font-size="12" fill="white"> #b991f1 </text><rect x="4500" y="0" width="60" height="60" style="fill:#c6d8fa;stroke-width:3;stroke:rgb(255,255,255)"/><text x="4500" y="72" font-family="Helvetica" font-size="12" fill="white"> #c6d8fa </text><rect x="4560" y="0" width="60" height="60" style="fill:#c792ea;stroke-width:3;stroke:rgb(255,255,255)"/><text x="4560" y="72" font-family="Helvetica" font-size="12" fill="white"> #c792ea </text><rect x="4620" y="0" width="60" height="60" style="fill:#d3423e;stroke-width:3;stroke:rgb(255,255,255)"/><text x="4620" y="72" font-family="Helvetica" font-size="12" fill="white"> #d3423e </text><rect x="4680" y="0" width="60" height="60" style="fill:#d6deeb;stroke-width:3;stroke:rgb(255,255,255)"/><text x="4680" y="72" font-family="Helvetica" font-size="12" fill="white"> #d6deeb </text><rect x="4740" y="0" width="60" height="60" style="fill:#d9f5dd;stroke-width:3;stroke:rgb(255,255,255)"/><text x="4740" y="72" font-family="Helvetica" font-size="12" fill="white"> #d9f5dd </text><rect x="4800" y="0" width="60" height="60" style="fill:#efefef;stroke-width:3;stroke:rgb(255,255,255)"/><text x="4800" y="72" font-family="Helvetica" font-size="12" fill="white"> #efefef </text><rect x="4860" y="0" width="60" height="60" style="fill:#f3907e;stroke-width:3;stroke:rgb(255,255,255)"/><text x="4860" y="72" font-family="Helvetica" font-size="12" fill="white"> #f3907e </text><rect x="4920" y="0" width="60" height="60" style="fill:#f3ca7e;stroke-width:3;stroke:rgb(255,255,255)"/><text x="4920" y="72" font-family="Helvetica" font-size="12" fill="white"> #f3ca7e </text><rect x="4980" y="0" width="60" height="60" style="fill:#f5d131;stroke-width:3;stroke:rgb(255,255,255)"/><text x="4980" y="72" font-family="Helvetica" font-size="12" fill="white"> #f5d131 </text><rect x="5040" y="0" width="60" height="60" style="fill:#f74b73;stroke-width:3;stroke:rgb(255,255,255)"/><text x="5040" y="72" font-family="Helvetica" font-size="12" fill="white"> #f74b73 </text><rect x="5100" y="0" width="60" height="60" style="fill:#f85e9f;stroke-width:3;stroke:rgb(255,255,255)"/><text x="5100" y="72" font-family="Helvetica" font-size="12" fill="white"> #f85e9f </text><rect x="5160" y="0" width="60" height="60" style="fill:#fce687;stroke-width:3;stroke:rgb(255,255,255)"/><text x="5160" y="72" font-family="Helvetica" font-size="12" fill="white"> #fce687 </text><rect x="5220" y="0" width="60" height="60" style="fill:#fd3777;stroke-width:3;stroke:rgb(255,255,255)"/><text x="5220" y="72" font-family="Helvetica" font-size="12" fill="white"> #fd3777 </text><rect x="5280" y="0" width="60" height="60" style="fill:#fefeff;stroke-width:3;stroke:rgb(255,255,255)"/><text x="5280" y="72" font-family="Helvetica" font-size="12" fill="white"> #fefeff </text><rect x="5340" y="0" width="60" height="60" style="fill:#ff6e9c;stroke-width:3;stroke:rgb(255,255,255)"/><text x="5340" y="72" font-family="Helvetica" font-size="12" fill="white"> #ff6e9c </text><rect x="5400" y="0" width="60" height="60" style="fill:#ffed9e;stroke-width:3;stroke:rgb(255,255,255)"/><text x="5400" y="72" font-family="Helvetica" font-size="12" fill="white"> #ffed9e </text></svg>