<svg xmlns="http://www.w3.org/2000/svg" viewBox="0 0 377.27 367.58"><defs><style>.cls-1{fill:#181e44;}.cls-2{fill:#83ccbb;}.cls-3{fill:#6eb5bb;}.cls-4{opacity:0.2;}.cls-5{fill:#fff;}.cls-6{fill:#0073aa;}.cls-7{fill:#d4ecf0;}.cls-8{fill:#927fd9;}.cls-9{fill:#fbeec1;}.cls-10{opacity:0.3;}.cls-11{fill:#c7e4ea;}.cls-12{opacity:0.6;}.cls-13{fill:#ad0178;}.cls-14{fill:#89b7ed;}.cls-15{fill:#85b1e6;}.cls-16{opacity:0.4;}.cls-17{fill:#ffd02e;}.cls-18{fill:#4d3d99;}.cls-19{fill:#e21d92;}.cls-20{fill:#e84aa8;}.cls-21{fill:#ffebff;}.cls-22{fill:#ffceff;}.cls-23{fill:#2d061d;}.cls-24{font-size:41px;fill:#e529b7;font-family:AttractypeReborn, Attractype Reborn;}.cls-25{letter-spacing:0.03em;}.cls-26{letter-spacing:0em;}.cls-27{letter-spacing:-0.03em;}.cls-28{letter-spacing:0.05em;}.cls-29{letter-spacing:0.04em;}.cls-30{letter-spacing:0em;}</style></defs><title>Asset 9</title><g id="Layer_2" data-name="Layer 2"><g id="Layer_1-2" data-name="Layer 1"><rect class="cls-1" width="377.27" height="367.58" rx="11.34"/><path class="cls-2" d="M89.53,181.5,138,252a26.1,26.1,0,0,0,4.85-4.56,25.57,25.57,0,0,0,6.28-18.35,32.41,32.41,0,0,0-3.74-12.74,49.49,49.49,0,0,0-3.32-5.55S134.59,199.92,89.53,181.5Z"/><path class="cls-3" d="M98.09,241.08C116.22,267.43,138,252,138,252L89.53,181.5c.21,9.68.67,17.87,1.29,24.77.41,4.67.89,8.76,1.41,12.31,1.65,11.52,3.64,17.59,4.83,20.41A13.45,13.45,0,0,0,98.09,241.08Z"/><g class="cls-4"><path class="cls-5" d="M98.09,241.08C116.22,267.43,138,252,138,252a26.1,26.1,0,0,0,4.85-4.56,25.57,25.57,0,0,0,6.28-18.35L92.23,218.58c1.65,11.52,3.64,17.59,4.83,20.41A13.45,13.45,0,0,0,98.09,241.08Z"/></g><g class="cls-4"><path class="cls-5" d="M97.06,239l36.66,6.78,9.15,1.7a25.57,25.57,0,0,0,6.28-18.35,32.41,32.41,0,0,0-3.74-12.74l-29.75-5.51-6.81-1.26-2.56-.48-.42-.07-15.05-2.79c.41,4.67.89,8.76,1.41,12.31C93.88,230.1,95.87,236.17,97.06,239Z"/></g><path class="cls-5" d="M129.88,240.73h-.1a.56.56,0,0,1-.45-.66l5.29-28.58a.56.56,0,0,1,.66-.46.57.57,0,0,1,.45.66l-5.29,28.59A.57.57,0,0,1,129.88,240.73Z"/><path class="cls-5" d="M119.37,225.43h-.11a.56.56,0,0,1-.45-.66l3-16a.57.57,0,0,1,.66-.45.57.57,0,0,1,.46.66l-3,16.05A.56.56,0,0,1,119.37,225.43Z"/><path class="cls-5" d="M125.42,234.34h-.1L96.73,229a.57.57,0,0,1-.45-.66.57.57,0,0,1,.66-.46l28.58,5.29a.57.57,0,0,1-.1,1.13Z"/><path class="cls-5" d="M114.9,219h-.1l-16-3a.57.57,0,0,1-.46-.66A.57.57,0,0,1,99,215l16,3a.56.56,0,0,1,.46.66A.57.57,0,0,1,114.9,219Z"/><path class="cls-5" d="M135.49,248.91a.57.57,0,0,1-.47-.24L99.39,196.84a.56.56,0,0,1,.93-.64L136,248a.56.56,0,0,1-.15.78A.55.55,0,0,1,135.49,248.91Z"/><path class="cls-6" d="M54.36,235.78l84.16,15.58a25.94,25.94,0,0,0,.21-6.66,25.58,25.58,0,0,0-8.53-17.41,32.23,32.23,0,0,0-11.66-6.36,47,47,0,0,0-6.27-1.58S99.25,216.94,54.36,235.78Z"/><path class="cls-3" d="M102.55,271.85c31.45,5.82,36-20.49,36-20.49L54.36,235.78c7,6.7,13.12,12.15,18.43,16.6,3.6,3,6.83,5.56,9.71,7.71,9.31,7,15,9.86,17.84,11A13,13,0,0,0,102.55,271.85Z"/><g class="cls-4"><path class="cls-5" d="M102.55,271.85c31.45,5.82,36-20.49,36-20.49a25.94,25.94,0,0,0,.21-6.66,25.58,25.58,0,0,0-8.53-17.41l-47.7,32.8c9.31,7,15,9.86,17.84,11A13,13,0,0,0,102.55,271.85Z"/></g><g class="cls-4"><path class="cls-5" d="M100.34,271.1,131.06,250l7.67-5.28a25.58,25.58,0,0,0-8.53-17.41,32.23,32.23,0,0,0-11.66-6.36L93.61,238.07,87.91,242l-2.15,1.47-.35.25-12.62,8.67c3.6,3,6.83,5.56,9.71,7.71C91.81,267.07,97.51,270,100.34,271.1Z"/></g><path class="cls-5" d="M124.38,249.29a.56.56,0,0,1-.46-.25l-16.47-23.95a.56.56,0,0,1,.14-.79.57.57,0,0,1,.79.15l16.47,24a.57.57,0,0,1-.15.79A.55.55,0,0,1,124.38,249.29Z"/><path class="cls-5" d="M106.13,245.91a.57.57,0,0,1-.47-.24l-9.25-13.46a.56.56,0,0,1,.15-.78.57.57,0,0,1,.79.14L106.6,245a.57.57,0,0,1-.15.79A.55.55,0,0,1,106.13,245.91Z"/><path class="cls-5" d="M92.75,264.39a.55.55,0,0,1-.46-.24.56.56,0,0,1,.14-.79l23.95-16.47a.57.57,0,0,1,.79.15.57.57,0,0,1-.15.79l-24,16.47A.59.59,0,0,1,92.75,264.39Z"/><path class="cls-5" d="M85,253.8a.57.57,0,0,1-.32-1l13.45-9.25a.57.57,0,0,1,.79.15.57.57,0,0,1-.15.79L85.32,253.7A.63.63,0,0,1,85,253.8Z"/><path class="cls-5" d="M134.13,251.11H134L72.19,239.65a.56.56,0,0,1-.46-.65.57.57,0,0,1,.66-.46L134.24,250a.56.56,0,0,1-.11,1.12Z"/><path class="cls-7" d="M238.15,244.84c-.16,1.81-1.26,7-8.67,7H126.93a10.14,10.14,0,0,1-5.05-1.14,7.59,7.59,0,0,1-3.64-6.5V133.73q0-.63,0-1.2c.38-7.52,4.44-10.26,12-10.26,7.9,0,7.5-10.67,7.5-10.67V86.31h81V111.6s0,.36,0,.94a1.55,1.55,0,0,0,0,.21c0,.44.07,1,.16,1.6,0,.09,0,.18,0,.28s.08.44.12.67a2,2,0,0,0,.05.24l0,.08.09.37.12.44,0,.09q.12.41.27.81c.06.17.13.33.2.5s.13.29.2.43a.21.21,0,0,0,0,.07c.06.13.13.27.2.4l0,0c.08.14.15.27.24.4s.19.29.29.43l.13.17a1.15,1.15,0,0,0,.14.17l.06.08s0,0,0,0,.19.21.28.31h0c.12.12.23.23.36.34a3.47,3.47,0,0,0,.37.3.1.1,0,0,0,.05,0l0,0c.11.09.23.17.36.26l.46.25.07,0a1.24,1.24,0,0,0,.2.1l.21.09h0a2.19,2.19,0,0,0,.33.12l.26.08.2.06.19,0c.22.05.44.09.67.12l.53,0h1.59l.22,0,.65,0,.36,0,.4,0,.72.1.48.07.77.17h0l.35.08,0,0,.42.12.34.11.4.15a2.59,2.59,0,0,1,.38.17l.14,0,0,0a1.34,1.34,0,0,1,.24.12l.29.14.05,0,.34.2.35.23.17.12.17.13.25.19.33.3a2.5,2.5,0,0,1,.23.23l.14.14c.08.09.17.18.24.27a8.14,8.14,0,0,1,.85,1.23c.05.09.1.18.14.27l.12.24a4.28,4.28,0,0,1,.19.43,3.24,3.24,0,0,1,.13.33,2.33,2.33,0,0,1,.11.28c.08.24.16.49.23.75h0a3,3,0,0,1,.08.32v0c0,.15.07.3.1.46s0,.22.06.32,0,.06,0,.1l.06.34s0,.07,0,.11v0a5.82,5.82,0,0,1,.08.62.28.28,0,0,1,0,.09s0,0,0,0v.11c0,.11,0,.22,0,.34s0,.24,0,.36a.57.57,0,0,0,0,.13v.05c0,.13,0,.27,0,.4s0,.49,0,.75v110.5S238.18,244.46,238.15,244.84Z"/><rect class="cls-8" x="123.99" y="86.49" width="119.99" height="10.07" transform="translate(80.63 269.13) rotate(-86.25)"/><polygon class="cls-9" points="192.29 41.74 191.5 53.85 180.79 63.24 181.58 51.13 192.29 41.74"/><polygon class="cls-9" points="190.6 67.53 189.81 79.64 179.1 89.03 179.9 76.92 190.6 67.53"/><polygon class="cls-9" points="188.91 93.33 188.12 105.44 177.41 114.82 178.21 102.72 188.91 93.33"/><polygon class="cls-9" points="187.22 119.12 186.43 131.22 175.72 140.61 176.52 128.5 187.22 119.12"/><g class="cls-10"><rect class="cls-5" x="123.99" y="89.25" width="119.99" height="4.56" transform="translate(80.63 269.13) rotate(-86.25)"/></g><rect class="cls-2" x="141.42" y="107.2" width="119.99" height="10.07" transform="translate(32.5 269.18) rotate(-72.02)"/><polygon class="cls-9" points="221.71 66.02 217.96 77.56 205.28 84.03 209.02 72.49 221.71 66.02"/><polygon class="cls-9" points="213.73 90.6 209.99 102.14 197.3 108.61 201.05 97.07 213.73 90.6"/><polygon class="cls-9" points="205.75 115.19 202.01 126.73 189.32 133.2 193.07 121.66 205.75 115.19"/><polygon class="cls-9" points="197.78 139.77 194.03 151.31 181.35 157.78 185.09 146.24 197.78 139.77"/><g class="cls-10"><rect class="cls-5" x="141.42" y="109.95" width="119.99" height="4.56" transform="translate(32.5 269.18) rotate(-72.02)"/></g><rect class="cls-11" x="126.7" y="222.94" width="103.01" height="32.83" rx="5.66"/><g class="cls-12"><path class="cls-11" d="M238.15,132.53H118.27c.38-7.52,4.44-10.26,12-10.26,7.9,0,7.5-10.67,7.5-10.67V86.31h81V111.6s0,.36,0,.94a1.55,1.55,0,0,0,0,.21c0,.44.07,1,.16,1.6,0,.09,0,.18,0,.28s.08.44.12.67a2,2,0,0,0,.05.24l0,.08.09.37.12.44,0,.09q.12.41.27.81c.06.17.13.33.2.5s.13.29.2.43a.21.21,0,0,0,0,.07c.06.13.13.27.2.4l0,0c.08.14.15.27.24.4s.19.29.29.43l.13.17a1.15,1.15,0,0,0,.14.17l.06.08s0,0,0,0,.19.21.28.31h0l.36.34a3.47,3.47,0,0,0,.37.3.1.1,0,0,0,.05,0l0,0c.12.09.23.18.36.26l.46.25.07,0a1.24,1.24,0,0,0,.2.1l.21.09h0a2.19,2.19,0,0,0,.33.12l.26.08.2.06.19,0c.22.05.44.09.67.12l.53,0h1.59l.22,0,.65,0,.36,0,.4,0,.72.1.48.07.77.17h0l.35.08,0,0,.42.12.34.11.4.15a2.59,2.59,0,0,1,.38.17l.14,0,0,0a1.34,1.34,0,0,1,.24.12l.29.14.05,0,.34.2.35.23.17.12.17.13.25.19.33.3a2.5,2.5,0,0,1,.23.23l.14.14c.08.09.17.18.24.27a8.14,8.14,0,0,1,.85,1.23c.05.09.1.18.14.27l.12.24a4.28,4.28,0,0,1,.19.43,3.24,3.24,0,0,1,.13.33,2.33,2.33,0,0,1,.11.28c.08.24.16.49.23.75h0a3,3,0,0,1,.08.32v0c0,.15.07.3.1.46s0,.22.06.32,0,.06,0,.1l.06.34s0,.07,0,.11v0a5.82,5.82,0,0,1,.08.62.28.28,0,0,1,0,.09s0,0,0,0v.11c0,.11,0,.22,0,.34s0,.24,0,.36A.57.57,0,0,0,238.15,132.53Z"/></g><g class="cls-4"><path class="cls-5" d="M238.15,244.84c-.16,1.81-1.26,7-8.67,7H178.21V86.31h40.47V111.6s0,.36,0,.94a1.55,1.55,0,0,0,0,.21c0,.44.07,1,.16,1.6,0,.09,0,.18,0,.28s.08.44.12.67a2,2,0,0,0,.05.24l0,.08.09.37.12.44,0,.09q.12.41.27.81c.06.17.13.33.2.5s.13.29.2.43a.21.21,0,0,0,0,.07c.06.13.13.27.2.4l0,0c.08.14.15.27.24.4s.19.29.29.43l.13.17a1.15,1.15,0,0,0,.14.17l.06.08s0,0,0,0,.19.21.28.31h0c.12.12.23.23.36.34a3.47,3.47,0,0,0,.37.3.1.1,0,0,0,.05,0l0,0c.11.09.23.17.36.26l.46.25.07,0a1.24,1.24,0,0,0,.2.1l.21.09h0a2.19,2.19,0,0,0,.33.12l.26.08.2.06.19,0c.22.05.44.09.67.12l.53,0h1.59l.22,0,.65,0,.36,0,.4,0,.72.1.48.07.77.17h0l.35.08,0,0,.42.12.34.11.4.15a2.59,2.59,0,0,1,.38.17l.14,0,0,0a1.34,1.34,0,0,1,.24.12l.29.14.05,0,.34.2.35.23.17.12.17.13.25.19.33.3a2.5,2.5,0,0,1,.23.23l.14.14c.08.09.17.18.24.27a8.14,8.14,0,0,1,.85,1.23c.05.09.1.18.14.27l.12.24a4.28,4.28,0,0,1,.19.43,3.24,3.24,0,0,1,.13.33,2.33,2.33,0,0,1,.11.28c.08.24.16.49.23.75h0a3,3,0,0,1,.08.32v0c0,.15.07.3.1.46s0,.22.06.32,0,.06,0,.1l.06.34s0,.07,0,.11v0a5.82,5.82,0,0,1,.08.62.28.28,0,0,1,0,.09s0,0,0,0v.11c0,.11,0,.22,0,.34s0,.24,0,.36a.57.57,0,0,0,0,.13v.05c0,.13,0,.27,0,.4s0,.49,0,.75v110.5S238.18,244.46,238.15,244.84Z"/></g><path class="cls-13" d="M126.7,142.38V233.7a5.66,5.66,0,0,0,5.66,5.66h91.69a5.66,5.66,0,0,0,5.66-5.66V142.38Z"/><g class="cls-4"><path class="cls-5" d="M238.15,244.84c-.16,1.81-1.26,7-8.67,7H126.93a10.14,10.14,0,0,1-5.05-1.14,7.59,7.59,0,0,1-3.64-6.5V227.14L223.57,121.8a2.19,2.19,0,0,0,.33.12l.26.08.2.06.19,0c.22.05.44.09.67.12l.53,0h1.59l.22,0,.65,0,.36,0,.4,0,.72.1.48.07.77.17h0l.35.08,0,0,.42.12.34.11.4.15a2.59,2.59,0,0,1,.38.17l.14,0,0,0a1.34,1.34,0,0,1,.24.12l.29.14.05,0,.34.2.35.23.17.12.17.13.25.19.33.3a2.5,2.5,0,0,1,.23.23l.14.14c.08.09.17.18.24.27a8.14,8.14,0,0,1,.85,1.23c.05.09.1.18.14.27l.12.24a4.28,4.28,0,0,1,.19.43,3.24,3.24,0,0,1,.13.33,2.33,2.33,0,0,1,.11.28c.08.24.16.49.23.75h0a3,3,0,0,1,.08.32v0c0,.15.07.3.1.46s0,.22.06.32,0,.06,0,.1l.06.34s0,.07,0,.11v0a5.82,5.82,0,0,1,.08.62.28.28,0,0,1,0,.09s0,0,0,0v.11c0,.11,0,.22,0,.34s0,.24,0,.36a.57.57,0,0,0,0,.13v.05c0,.13,0,.27,0,.4s0,.49,0,.75v110.5S238.18,244.46,238.15,244.84Z"/></g><g class="cls-4"><path class="cls-5" d="M238.15,244.84c-.16,1.81-1.26,7-8.67,7H126.93a10.14,10.14,0,0,1-5.05-1.14,7.59,7.59,0,0,1-3.64-6.5V216.38L219.08,115.54l0,.08.09.37.12.44,0,.09q.12.41.27.81c.06.17.13.33.2.5s.13.29.2.43a.21.21,0,0,0,0,.07c.06.13.13.27.2.4l0,0c.08.14.15.27.24.4s.19.29.29.43l.13.17a1.15,1.15,0,0,0,.14.17l.06.08s0,0,0,0,.19.21.28.31h0c.12.12.23.23.36.34a3.47,3.47,0,0,0,.37.3.1.1,0,0,0,.05,0l0,0c.11.09.23.17.36.26l.46.25.07,0a1.24,1.24,0,0,0,.2.1l.21.09h0a2.19,2.19,0,0,0,.33.12l.26.08.2.06.19,0c.22.05.44.09.67.12l.53,0h1.59l.22,0,.65,0,.36,0,.4,0,.72.1.48.07.77.17h0l.35.08,0,0,.42.12.34.11.4.15a2.59,2.59,0,0,1,.38.17l.14,0,0,0a1.34,1.34,0,0,1,.24.12l.29.14.05,0,.34.2.35.23.17.12.17.13.25.19.33.3a2.5,2.5,0,0,1,.23.23l.14.14c.08.09.17.18.24.27a8.14,8.14,0,0,1,.85,1.23c.05.09.1.18.14.27l.12.24a4.28,4.28,0,0,1,.19.43,3.24,3.24,0,0,1,.13.33,2.33,2.33,0,0,1,.11.28c.08.24.16.49.23.75h0a3,3,0,0,1,.08.32v0c0,.15.07.3.1.46s0,.22.06.32,0,.06,0,.1l.06.34s0,.07,0,.11v0a5.82,5.82,0,0,1,.08.62.28.28,0,0,1,0,.09s0,0,0,0v.11c0,.11,0,.22,0,.34s0,.24,0,.36a.57.57,0,0,0,0,.13v.05c0,.13,0,.27,0,.4s0,.49,0,.75v110.5S238.18,244.46,238.15,244.84Z"/></g><rect class="cls-7" x="137.73" y="84.93" width="80.96" height="4.39" rx="0.57"/><rect class="cls-14" x="134.34" y="91.44" width="87.73" height="5.66" rx="1.7"/><rect class="cls-14" x="134.34" y="102.76" width="87.73" height="5.66" rx="1.7"/><rect class="cls-15" x="137.73" y="108.42" width="80.95" height="1.59"/><rect class="cls-15" x="137.73" y="97.1" width="80.95" height="1.59"/><g class="cls-4"><path class="cls-5" d="M146.46,226.15l19.62-19.62,63.63-63.64,8.44-8.43v-1.93a.57.57,0,0,1,0-.13c0-.12,0-.25,0-.36s0-.23,0-.34v-.11s0,0,0,0a.28.28,0,0,0,0-.09,5.82,5.82,0,0,0-.08-.62v0s0-.08,0-.11l-.06-.34s0-.07,0-.1,0-.21-.06-.32-.06-.31-.1-.46v0a3,3,0,0,0-.08-.32h0c-.07-.26-.15-.51-.23-.75a2.33,2.33,0,0,0-.11-.28,3.24,3.24,0,0,0-.13-.33,4.28,4.28,0,0,0-.19-.43l-.12-.24c0-.09-.09-.18-.14-.27a8.14,8.14,0,0,0-.85-1.23c-.07-.09-.16-.18-.24-.27l-.14-.14a2.5,2.5,0,0,0-.23-.23l-.33-.3-.25-.19-.17-.13-.17-.12L234,124l-.34-.2-.05,0-.29-.14a1.34,1.34,0,0,0-.24-.12l0,0-.14,0a2.59,2.59,0,0,0-.38-.17l-.4-.15-.34-.11-.42-.12,0,0-.35-.08h0l-.77-.17-.48-.07-.72-.1-.4,0-.36,0-.65,0-.22,0h-1.59l-.53,0c-.23,0-.45-.07-.67-.12l-.19,0-.2-.06-.26-.08a2.19,2.19,0,0,1-.33-.12h0l-.21-.09a1.24,1.24,0,0,1-.2-.1l-.07,0-.46-.25c-.13-.09-.25-.17-.36-.26l0,0a.1.1,0,0,1-.05,0,3.47,3.47,0,0,1-.37-.3c-.13-.11-.24-.22-.36-.34h0c-.09-.1-.18-.21-.28-.31s0,0,0,0l-.06-.08a1.15,1.15,0,0,1-.14-.17l-.13-.17c-.1-.14-.2-.28-.29-.43s-.16-.26-.24-.4l0,0c-.07-.13-.14-.27-.2-.4a.21.21,0,0,1,0-.07c-.07-.14-.14-.28-.2-.43s-.14-.33-.2-.5-.19-.54-.27-.81l0-.09-.12-.44-.09-.37,0-.08a2,2,0,0,1-.05-.24c0-.23-.09-.45-.12-.67s0-.19,0-.28c-.09-.61-.13-1.16-.16-1.6a1.55,1.55,0,0,1,0-.21c0-.58,0-.94,0-.94v-3.18h1.69a1.7,1.7,0,0,0,1.7-1.7v-2.26a1.7,1.7,0,0,0-1.7-1.7h-1.69V97.1h1.69a1.7,1.7,0,0,0,1.7-1.7V93.14a1.7,1.7,0,0,0-1.7-1.7h-.65l-1,1-4.62,4.62L201.15,110l-22.52,22.52-.42.42-9.43,9.43L126.7,184.46l-8.46,8.46v51.31a7.59,7.59,0,0,0,3.64,6.5l11.37-11.37Z"/></g><g class="cls-4"><path class="cls-5" d="M238.15,187.08v57.76c-.16,1.81-1.26,7-8.67,7H173.35l49.16-49.16Z"/></g><g class="cls-16"><path class="cls-5" d="M216,220.17a3.85,3.85,0,0,1-3.85,3.85h0a3.84,3.84,0,0,1-3.84-3.85v-60a3.85,3.85,0,0,1,3.84-3.85h0a3.86,3.86,0,0,1,3.85,3.85Z"/></g><g class="cls-16"><path class="cls-5" d="M203.21,180.59a1.79,1.79,0,0,1-1.79,1.79h0a1.79,1.79,0,0,1-1.79-1.79V152.71a1.79,1.79,0,0,1,1.79-1.78h0a1.79,1.79,0,0,1,1.79,1.78Z"/></g><circle class="cls-13" cx="179.89" cy="209.45" r="4.67"/><circle class="cls-13" cx="223.98" cy="156.31" r="2.7"/><circle class="cls-13" cx="147.21" cy="223.67" r="2.7"/><circle class="cls-13" cx="209.73" cy="232.75" r="4.15"/><circle class="cls-13" cx="132.94" cy="159.01" r="4.15"/><circle class="cls-17" cx="192.02" cy="175.64" r="2.55"/><circle class="cls-17" cx="178.68" cy="234.77" r="2.21"/><path class="cls-13" d="M144.21,233.51A3.21,3.21,0,1,1,141,230.3,3.21,3.21,0,0,1,144.21,233.51Z"/><path class="cls-17" d="M138.82,222.46a3.7,3.7,0,1,1-3.7-3.69A3.69,3.69,0,0,1,138.82,222.46Z"/><path class="cls-13" d="M137.66,214.11a1.51,1.51,0,1,1-1.51-1.51A1.52,1.52,0,0,1,137.66,214.11Z"/><path class="cls-13" d="M136.15,204.84a3.21,3.21,0,1,1-3.21-3.21A3.21,3.21,0,0,1,136.15,204.84Z"/><path class="cls-13" d="M226.14,228.6a5.1,5.1,0,1,1-5.09-5.09A5.09,5.09,0,0,1,226.14,228.6Z"/><path class="cls-17" d="M225.15,215.82a3,3,0,1,1-3-3A3,3,0,0,1,225.15,215.82Z"/><path class="cls-13" d="M225.16,202.28a4.12,4.12,0,1,1-4.11-4.11A4.11,4.11,0,0,1,225.16,202.28Z"/><circle class="cls-13" cx="175.63" cy="173.4" r="2.16"/><path class="cls-13" d="M227.89,193.16a2.73,2.73,0,1,1-2.73-2.73A2.72,2.72,0,0,1,227.89,193.16Z"/><path class="cls-17" d="M150,174.41a3,3,0,1,1-3-3A3,3,0,0,1,150,174.41Z"/><path class="cls-17" d="M138.21,183.26a3,3,0,1,1-3-3A3,3,0,0,1,138.21,183.26Z"/><circle class="cls-17" cx="138.25" cy="168.34" r="3.06"/><path class="cls-13" d="M158,162.12a6.23,6.23,0,1,1-6.22-6.23A6.22,6.22,0,0,1,158,162.12Z"/><circle class="cls-13" cx="179.54" cy="181.56" r="2.16"/><circle class="cls-13" cx="222.11" cy="181.56" r="4.11"/><g class="cls-16"><rect class="cls-5" x="155.62" y="216.1" width="18.85" height="18.85" rx="1.28" transform="matrix(0.07, -1, 1, 0.07, -71.82, 373.84)"/></g><g class="cls-16"><rect class="cls-5" x="152.78" y="170.83" width="18.85" height="18.85" rx="1.28" transform="translate(-79.95 167.6) rotate(-45.02)"/></g><g class="cls-16"><rect class="cls-5" x="183.5" y="183.73" width="18.85" height="18.85" rx="1.28" transform="translate(-62.13 290.49) rotate(-65.92)"/></g><path class="cls-18" d="M145.66,215.82a1.69,1.69,0,1,1-1.69-1.69A1.69,1.69,0,0,1,145.66,215.82Z"/><path class="cls-18" d="M204.25,223.67a1.71,1.71,0,1,1-1.7-1.71A1.71,1.71,0,0,1,204.25,223.67Z"/><path class="cls-18" d="M137.66,174.13a1.51,1.51,0,1,0-1.51,1.51A1.51,1.51,0,0,0,137.66,174.13Z"/><path class="cls-18" d="M205,203.53a1.29,1.29,0,1,1-1.29-1.29A1.29,1.29,0,0,1,205,203.53Z"/><path class="cls-18" d="M180.89,189.35a1,1,0,1,1-1-1A1,1,0,0,1,180.89,189.35Z"/><circle class="cls-18" cx="148.39" cy="231.82" r="1.6"/><path class="cls-18" d="M224,168.49a1.55,1.55,0,1,1-1.55-1.55A1.54,1.54,0,0,1,224,168.49Z"/><circle class="cls-18" cx="185.47" cy="218.25" r="1.75"/><circle class="cls-18" cx="153.28" cy="171.86" r="1.2"/><path class="cls-18" d="M138.82,153.61a2.68,2.68,0,1,1-2.67-2.67A2.68,2.68,0,0,1,138.82,153.61Z"/><path class="cls-6" d="M186.78,149.57l-4.67,20.79a9.77,9.77,0,0,0,2,0,8.44,8.44,0,0,0,5.22-2.11,7.82,7.82,0,0,0,1.9-2.88,9.4,9.4,0,0,0,.47-1.55S192.42,160.65,186.78,149.57Z"/><path class="cls-3" d="M176,161.47c-1.75,7.77,6.13,8.89,6.13,8.89l4.67-20.79c-2,1.73-3.64,3.24-5,4.55-.9.89-1.66,1.69-2.3,2.4a21.1,21.1,0,0,0-3.3,4.4A2.37,2.37,0,0,0,176,161.47Z"/><g class="cls-4"><path class="cls-5" d="M176,161.47c-1.75,7.77,6.13,8.89,6.13,8.89a9.77,9.77,0,0,0,2,0,8.44,8.44,0,0,0,5.22-2.11l-9.82-11.78a21.1,21.1,0,0,0-3.3,4.4A2.37,2.37,0,0,0,176,161.47Z"/></g><g class="cls-4"><path class="cls-5" d="M176.2,160.92l6.32,7.59,1.58,1.9a8.44,8.44,0,0,0,5.22-2.11,7.82,7.82,0,0,0,1.9-2.88l-5.13-6.16-1.17-1.41-.45-.53-.07-.09-2.6-3.11c-.9.89-1.66,1.69-2.3,2.4A21.1,21.1,0,0,0,176.2,160.92Z"/></g><path class="cls-5" d="M182.73,166.86a.14.14,0,0,1,.07-.11l7.18-4.07a.18.18,0,0,1,.23,0,.13.13,0,0,1,0,.19L183,167a.2.2,0,0,1-.24,0A.11.11,0,0,1,182.73,166.86Z"/><path class="cls-5" d="M183.74,162.35a.14.14,0,0,1,.08-.11l4-2.29a.21.21,0,0,1,.24,0,.12.12,0,0,1-.05.19l-4,2.29a.2.2,0,0,1-.24,0A.11.11,0,0,1,183.74,162.35Z"/><path class="cls-5" d="M178.21,159.05a.14.14,0,0,1,.07-.12.21.21,0,0,1,.24,0l4.93,5.92a.12.12,0,0,1,0,.19.18.18,0,0,1-.23,0l-4.93-5.92A.13.13,0,0,1,178.21,159.05Z"/><path class="cls-5" d="M181.38,157.14a.15.15,0,0,1,.07-.12.2.2,0,0,1,.24,0l2.77,3.32a.13.13,0,0,1,0,.19.19.19,0,0,1-.24,0l-2.77-3.33A.11.11,0,0,1,181.38,157.14Z"/><path class="cls-5" d="M182.18,169.27a0,0,0,0,1,0,0L185.62,154a.15.15,0,0,1,.19-.11c.09,0,.16.08.14.16l-3.43,15.28a.18.18,0,0,1-.2.11A.15.15,0,0,1,182.18,169.27Z"/><path class="cls-2" d="M285.57,175.85l-51.5,74.9a28,28,0,0,1-5.15-4.84,27.13,27.13,0,0,1-6.67-19.49,34.38,34.38,0,0,1,4-13.53,52,52,0,0,1,3.53-5.89S237.72,195.41,285.57,175.85Z"/><path class="cls-3" d="M276.47,239.12c-19.25,28-42.4,11.63-42.4,11.63l51.5-74.9c-.23,10.28-.72,19-1.38,26.31-.43,5-.94,9.3-1.49,13.07-1.75,12.24-3.87,18.68-5.13,21.67A13.53,13.53,0,0,1,276.47,239.12Z"/><g class="cls-4"><path class="cls-5" d="M276.47,239.12c-19.25,28-42.4,11.63-42.4,11.63a28,28,0,0,1-5.15-4.84,27.13,27.13,0,0,1-6.67-19.49l60.45-11.19c-1.75,12.24-3.87,18.68-5.13,21.67A13.53,13.53,0,0,1,276.47,239.12Z"/></g><g class="cls-4"><path class="cls-5" d="M277.57,236.9l-38.93,7.21-9.72,1.8a27.13,27.13,0,0,1-6.67-19.49,34.38,34.38,0,0,1,4-13.53l31.6-5.85L265,205.7l2.72-.5.45-.08,16-3c-.43,5-.94,9.3-1.49,13.07C281,227.47,278.83,233.91,277.57,236.9Z"/></g><path class="cls-5" d="M242.71,238.71a.57.57,0,0,1-.56-.46l-5.61-30.35a.56.56,0,0,1,.45-.66.57.57,0,0,1,.66.45l5.62,30.36a.56.56,0,0,1-.46.65Z"/><path class="cls-5" d="M253.88,222.47a.57.57,0,0,1-.56-.46l-3.15-17a.57.57,0,0,1,.45-.66.57.57,0,0,1,.66.46l3.15,17a.56.56,0,0,1-.45.66Z"/><path class="cls-5" d="M247.45,231.92a.56.56,0,0,1-.1-1.12l30.35-5.62a.57.57,0,0,1,.21,1.12l-30.36,5.62Z"/><path class="cls-5" d="M258.62,215.68a.57.57,0,0,1-.56-.46.57.57,0,0,1,.46-.66l17-3.15a.56.56,0,0,1,.21,1.11l-17,3.15Z"/><path class="cls-5" d="M236.76,247.41a.6.6,0,0,1-.32-.1.57.57,0,0,1-.15-.79l37.84-55a.57.57,0,0,1,.79-.15.57.57,0,0,1,.15.79l-37.85,55A.56.56,0,0,1,236.76,247.41Z"/><path class="cls-6" d="M322.91,233.49,233.54,250a28.81,28.81,0,0,1,8.84-25.56,34.38,34.38,0,0,1,12.37-6.76,52.37,52.37,0,0,1,6.67-1.67S275.24,213.49,322.91,233.49Z"/><path class="cls-3" d="M271.74,271.8C238.34,278,233.54,250,233.54,250l89.37-16.55c-7.43,7.12-13.93,12.91-19.58,17.63-3.81,3.2-7.24,5.91-10.3,8.19-9.89,7.41-15.94,10.47-18.95,11.69A13.87,13.87,0,0,1,271.74,271.8Z"/><g class="cls-4"><path class="cls-5" d="M271.74,271.8C238.34,278,233.54,250,233.54,250a28.81,28.81,0,0,1,8.84-25.56L293,259.31c-9.89,7.41-15.94,10.47-18.95,11.69A13.87,13.87,0,0,1,271.74,271.8Z"/></g><g class="cls-4"><path class="cls-5" d="M274.08,271l-32.62-22.43-8.15-5.6a27.19,27.19,0,0,1,9.07-18.49,34.38,34.38,0,0,1,12.37-6.76l26.48,18.21,6.06,4.16,2.28,1.57.37.25,13.39,9.21c-3.81,3.2-7.24,5.91-10.3,8.19C283.14,266.72,277.09,269.78,274.08,271Z"/></g><path class="cls-5" d="M248.55,247.81a.63.63,0,0,1-.32-.1.56.56,0,0,1-.14-.79l17.49-25.44a.56.56,0,0,1,.93.64L249,247.56A.57.57,0,0,1,248.55,247.81Z"/><path class="cls-5" d="M267.93,244.22a.55.55,0,0,1-.32-.1.57.57,0,0,1-.14-.79l9.82-14.28a.57.57,0,0,1,.79-.15.57.57,0,0,1,.14.79L268.4,244A.57.57,0,0,1,267.93,244.22Z"/><path class="cls-5" d="M282.14,263.85a.63.63,0,0,1-.32-.1l-25.43-17.49a.57.57,0,0,1-.15-.79.57.57,0,0,1,.79-.15l25.43,17.49a.57.57,0,0,1-.32,1Z"/><path class="cls-5" d="M290.37,252.59a.55.55,0,0,1-.32-.1l-14.28-9.82a.57.57,0,0,1-.15-.79.57.57,0,0,1,.79-.14l14.28,9.82a.56.56,0,0,1-.32,1Z"/><path class="cls-5" d="M238.2,249.74a.56.56,0,0,1-.11-1.12l65.68-12.16a.56.56,0,1,1,.2,1.11L238.3,249.73Z"/><path class="cls-2" d="M246.7,150.65c-5.39,4.69-13,16.81-10.91,30.1l6.23,1.7,9-30.51S252.09,146,246.7,150.65Z"/><path class="cls-3" d="M255.41,153.23c2,6.87,1.74,21.16-7.23,31.19l-6.16-2,9-30.51S253.44,146.36,255.41,153.23Z"/><path class="cls-2" d="M217.64,261.14c-7.56-.38-14-4.81-19-10-5.76-6-9.46-13-10.41-15.86-1.77-5.28,2.69-8.06,4-4.71,1,2.65,3.65,4.36,5.64,5.31a16.36,16.36,0,0,0,2.36.94l.07,0,6.77,9.46.14.2,10.41,14.55Z"/><path class="cls-3" d="M256.39,255.46c-4.35,3.47-24.57,13.88-38.75,5.68l.08,0,27.72-10.89a17.45,17.45,0,0,0,5,.65,9.21,9.21,0,0,0,5.16-1.52C258.52,247.23,260.75,252,256.39,255.46Z"/><path class="cls-3" d="M265,211.27a10.9,10.9,0,0,1-2.27,1.46l-.43.2-.25-1.42h0l-3-16.34a12.09,12.09,0,0,0,1.22-2,12.78,12.78,0,0,0,1.09-3.27,9.54,9.54,0,0,0,0-3.25c-.77-4.56,1-6.19,2.77-5.66.52.15,1.75,2.47,2.89,5.81C269.5,193.93,271.48,205.8,265,211.27Z"/><path class="cls-3" d="M256.57,243a19,19,0,0,1-1.9.24A13.47,13.47,0,0,1,256.42,233a13,13,0,0,1,2.45-2.79,9.64,9.64,0,0,0,4.14-1.83c2.31-1.67,5-4.84,6.22-10.82,0,0,.5-2.78,2.57-2.12S272.76,240.1,256.57,243Z"/><path class="cls-2" d="M224.14,169.11c-1.76-.52-24,15.35-15.81,27.85l12.37-13.15s-.45-5,2.68-8.44S225.89,169.62,224.14,169.11Z"/><path class="cls-2" d="M201,222.64a13.35,13.35,0,0,1-2.82,3.9c-.48-.36-.93-.74-1.35-1.12l-.34-.33c-4.12-4-5.26-9.16-4.93-14.12.6-9.05,6.1-17.47,7.4-17.12,2.09.57,1,3.18,1,3.18a18.84,18.84,0,0,0-1.34,10.09,13.11,13.11,0,0,0,.74,2.57,9.47,9.47,0,0,0,2.4,3.59A12.79,12.79,0,0,1,201,222.64Z"/><path class="cls-19" d="M262.73,229.31a55.78,55.78,0,0,1-3.38,8.69,52.45,52.45,0,0,1-2.78,5,49.12,49.12,0,0,1-6.1,7.86c-9,9.38-20.83,13.79-31.81,10.54l-.94-.3-.13-.05A27.32,27.32,0,0,1,205,251.94a31.93,31.93,0,0,1-2.15-3.08,37.69,37.69,0,0,1-3.3-6.85,42.74,42.74,0,0,1-1.72-6.12,48.39,48.39,0,0,1-1-10.47c0-.17,0-.34,0-.52a55.34,55.34,0,0,1,2.28-14.4c.08-.27.17-.54.25-.81.39-1.25.82-2.47,1.28-3.67A53.82,53.82,0,0,1,207,194.25a43.67,43.67,0,0,1,13.75-12.68,32.68,32.68,0,0,1,4-2,29.23,29.23,0,0,1,10.66-2.25,25.81,25.81,0,0,1,7.13.88l.62.17.51.16h0a26.27,26.27,0,0,1,4.23,1.78,24,24,0,0,1,2.33,1.4,29,29,0,0,1,7.55,7.45h0c.43.62.85,1.25,1.25,1.9s.79,1.35,1.16,2a43.71,43.71,0,0,1,4.7,18.13c.06,1.26.07,2.53,0,3.83,0,.83-.06,1.67-.13,2.52A55.44,55.44,0,0,1,263,228.34Z"/><path class="cls-20" d="M262.73,229.31a55.78,55.78,0,0,1-3.38,8.69,52.45,52.45,0,0,1-2.78,5,49.12,49.12,0,0,1-6.1,7.86c-9,9.38-20.83,13.79-31.81,10.54l-.94-.3-.13-.05A27.32,27.32,0,0,1,205,251.94a31.93,31.93,0,0,1-2.15-3.08,37.69,37.69,0,0,1-3.3-6.85c.13-1.71.34-3.44.64-5.18A56.71,56.71,0,0,1,205.92,220l.48-.89a46,46,0,0,1,16.22-17.3c.65-.39,1.3-.75,2-1.1,6.76-3.5,14.15-4.56,21.2-2.48l.12,0a25.77,25.77,0,0,1,7.86,3.93A30.25,30.25,0,0,1,262,211.5q.36.6.69,1.23c.5.92,1,1.88,1.38,2.87.28.66.55,1.33.8,2A55.44,55.44,0,0,1,263,228.34Z"/><g class="cls-4"><path class="cls-5" d="M259.35,238a52.45,52.45,0,0,1-2.78,5,49.12,49.12,0,0,1-6.1,7.86c-9,9.38-20.83,13.79-31.81,10.54l-.94-.3-.13-.05A27.32,27.32,0,0,1,205,251.94l0-.08a50.53,50.53,0,0,1,1.85-5.19c.05-.12.1-.24.16-.36a47.22,47.22,0,0,1,2.28-4.62l.16-.28a45,45,0,0,1,2.61-4c.39-.53.78-1.05,1.19-1.56,5-6.28,11.35-10.64,18-12.31h0a23.59,23.59,0,0,1,11.05-.17c.46.1.91.22,1.37.36a21.17,21.17,0,0,1,3.22,1.23,23.52,23.52,0,0,1,7.42,5.51,3.45,3.45,0,0,1,.26.28,26.57,26.57,0,0,1,1.81,2.25A31.61,31.61,0,0,1,259.35,238Z"/></g><g class="cls-4"><path class="cls-5" d="M256.39,255.46c-4.35,3.47-24.57,13.88-38.75,5.68-7.56-.38-14-4.81-19-10-5.76-6-9.46-13-10.41-15.86-1.77-5.28,2.69-8.06,4-4.71,1,2.65,3.65,4.36,5.64,5.31a48.39,48.39,0,0,1-1-10.47l-.34-.33.35-.19,4.16-2.26,4.89-2.65,43.81-23.8,9.38-5.1,2.25-1.22,5.7-3.1c2.44,7.16,4.42,19-2.09,24.5.06,1.26.07,2.53,0,3.83,0,.83-.06,1.67-.13,2.52A55.44,55.44,0,0,1,263,228.34c2.31-1.67,5-4.84,6.22-10.82,0,0,.5-2.78,2.57-2.12s1,24.7-15.23,27.61a49.12,49.12,0,0,1-6.1,7.86,9.21,9.21,0,0,0,5.16-1.52C258.52,247.23,260.75,252,256.39,255.46Z"/></g><g class="cls-4"><path class="cls-5" d="M265,211.27c.06,1.26.07,2.53,0,3.83l-.93.5-7.17,3.89L246,225.4l-6.19,3.37-1.66.9-21.76,11.82-.09,0L211,244.45l-3.8,2.06-.3.16-4,2.19-4.22,2.29c-5.76-6-9.46-13-10.41-15.86-1.77-5.28,2.69-8.06,4-4.71,1,2.65,3.65,4.36,5.64,5.31a48.39,48.39,0,0,1-1-10.47l-.34-.33c-4.12-4-5.26-9.16-4.93-14.12l7.07-3.85,2-1.1L219.21,196l26.06-14.15.47-.26,2.23-1.21,4.69-2.55,3.83-2.08c1.54,3.69-.68,10.16,1.21,13.2a1.58,1.58,0,0,1,.15.28h0c.43.62.85,1.25,1.25,1.9l2.25-1.22a9.54,9.54,0,0,0,0-3.25c-.77-4.56,1-6.19,2.77-5.66.52.15,1.75,2.47,2.89,5.81C269.5,193.93,271.48,205.8,265,211.27Z"/></g><path class="cls-19" d="M244.12,178.52s-4.91-2.11-4.13-5.92a4,4,0,0,0-4.75-4.44c-4.6.64-6.23,9.37-10,11.14S244.12,178.52,244.12,178.52Z"/><path class="cls-19" d="M249,183.39c-.95-.74-1.87-1.48-2.72-2.15-1.32-1.06-2.45-2-3.18-2.57l0,0-.49-.4-.32-.26a7.58,7.58,0,0,0,1,.09h.06c1.61.06,4.63-.2,5.65-2.81a4,4,0,0,1,5.49-1.8,4.92,4.92,0,0,1,.92.66,4.05,4.05,0,0,1,1.11,1.59c1.54,3.69-.68,10.16,1.21,13.2a1.58,1.58,0,0,1,.15.28h0C258.4,190.52,253.49,186.88,249,183.39Z"/><path class="cls-5" d="M255.27,228.67c-.28.94-.59,1.87-.93,2.77a39.64,39.64,0,0,1-1.8,4.15c-6.55,13.07-19.07,20.55-30.4,17.2a19.74,19.74,0,0,1-6.85-3.64,23.66,23.66,0,0,1-5.75-7c-4-7.39-5-17.47-2-27.59,5.09-17.22,19.92-28,33.12-24.12S260.36,211.44,255.27,228.67Z"/><path class="cls-21" d="M254.34,231.44c-5.8,15.6-19.72,25-32.2,21.35a21.38,21.38,0,0,1-12.6-10.68,35.77,35.77,0,0,1,1.34-13.76c4.48-15.12,17.5-24.6,29.09-21.17C249.14,209.89,254.66,219.89,254.34,231.44Z"/><path class="cls-22" d="M252.54,235.59c-6.55,13.07-19.07,20.55-30.4,17.2a19.74,19.74,0,0,1-6.85-3.64,31,31,0,0,1,1.28-8.2c3.81-12.84,14.87-20.9,24.71-18C246.84,224.61,250.82,229.41,252.54,235.59Z"/><path class="cls-23" d="M249.29,208.15a1.72,1.72,0,1,1-1.16-2.14A1.71,1.71,0,0,1,249.29,208.15Z"/><path class="cls-23" d="M241,195.5a1.25,1.25,0,0,1-2.39-.71,1.25,1.25,0,0,1,2.39.71Z"/><path class="cls-23" d="M226.9,238.62a1.24,1.24,0,1,1-.84-1.55A1.24,1.24,0,0,1,226.9,238.62Z"/><path class="cls-23" d="M225.39,248.1a1.24,1.24,0,1,1-2.38-.71,1.24,1.24,0,0,1,2.38.71Z"/><path class="cls-23" d="M235.7,247.18a1.24,1.24,0,1,1-.84-1.55A1.25,1.25,0,0,1,235.7,247.18Z"/><path class="cls-23" d="M224.61,201.44a1.14,1.14,0,1,1-.77-1.42A1.15,1.15,0,0,1,224.61,201.44Z"/><path class="cls-23" d="M219.07,228.37a1.14,1.14,0,1,1-.77-1.42A1.15,1.15,0,0,1,219.07,228.37Z"/><circle class="cls-23" cx="239.35" cy="214" r="1.69" transform="translate(-73.15 140.31) rotate(-28.53)"/><path class="cls-23" d="M211.5,223a1.69,1.69,0,1,1-1.15-2.1A1.7,1.7,0,0,1,211.5,223Z"/><path class="cls-23" d="M231.62,196.62a.94.94,0,1,1-.63-1.17A.95.95,0,0,1,231.62,196.62Z"/><path class="cls-23" d="M219,209.25a1.2,1.2,0,1,1-2.3-.68,1.2,1.2,0,1,1,2.3.68Z"/><path class="cls-23" d="M231.68,219.31a1.59,1.59,0,1,1-1.07-2A1.58,1.58,0,0,1,231.68,219.31Z"/><path class="cls-23" d="M233.84,203a1.17,1.17,0,1,1-.79-1.46A1.17,1.17,0,0,1,233.84,203Z"/><path class="cls-23" d="M249.65,222.64a1.1,1.1,0,1,1-2.1-.63,1.08,1.08,0,0,1,1.36-.73A1.1,1.1,0,0,1,249.65,222.64Z"/><path class="cls-23" d="M239.81,228.92a1.2,1.2,0,0,1-1.48.81,1.19,1.19,0,0,1,.67-2.29A1.2,1.2,0,0,1,239.81,228.92Z"/><path class="cls-23" d="M220.55,219.33a1.15,1.15,0,1,1-2.21-.66,1.15,1.15,0,0,1,2.21.66Z"/><path class="cls-23" d="M212,215.49a1.24,1.24,0,1,1-.84-1.54A1.24,1.24,0,0,1,212,215.49Z"/><path class="cls-23" d="M246.39,200.81a1.07,1.07,0,1,1-.72-1.33A1.06,1.06,0,0,1,246.39,200.81Z"/><path class="cls-23" d="M214.06,237.16a1.07,1.07,0,1,1-.73-1.33A1.08,1.08,0,0,1,214.06,237.16Z"/><path class="cls-23" d="M246.49,236.49a1.13,1.13,0,1,1-.76-1.4A1.12,1.12,0,0,1,246.49,236.49Z"/><path class="cls-23" d="M232,231.82a1.49,1.49,0,1,1-1-1.85A1.5,1.5,0,0,1,232,231.82Z"/><path class="cls-23" d="M237.27,240.6a1,1,0,1,1-.7-1.28A1,1,0,0,1,237.27,240.6Z"/><path class="cls-2" d="M167.67,212.23l-20.54-15.35a7.92,7.92,0,0,0-1.35,1.55,6.09,6.09,0,0,0-1,5.33,7.61,7.61,0,0,0,2,3.12,12.47,12.47,0,0,0,1.45,1.25S151.47,210.5,167.67,212.23Z"/><path class="cls-3" d="M161.15,197c-7.68-5.73-14-.09-14-.09l20.54,15.35c-.67-2.56-1.32-4.71-1.95-6.5-.43-1.22-.84-2.27-1.23-3.18a19.9,19.9,0,0,0-2.87-5.09A3.46,3.46,0,0,0,161.15,197Z"/><g class="cls-4"><path class="cls-5" d="M161.15,197c-7.68-5.73-14-.09-14-.09a7.92,7.92,0,0,0-1.35,1.55,6.09,6.09,0,0,0-1,5.33l19.68-1.21a19.9,19.9,0,0,0-2.87-5.09A3.46,3.46,0,0,0,161.15,197Z"/></g><g class="cls-4"><path class="cls-5" d="M161.62,197.46l-12.67.78-3.17.19a6.09,6.09,0,0,0-1,5.33,7.61,7.61,0,0,0,2,3.12l10.29-.63,2.35-.14.89-.06h.14l5.21-.32c-.43-1.22-.84-2.27-1.23-3.18A19.9,19.9,0,0,0,161.62,197.46Z"/></g><path class="cls-5" d="M150.54,199.31h0a.17.17,0,0,1,.19.15l0,8a.2.2,0,0,1-.19.17c-.11,0-.19-.06-.19-.15v-8A.18.18,0,0,1,150.54,199.31Z"/><path class="cls-5" d="M155,202.64h0c.11,0,.19.06.19.15v4.48a.19.19,0,0,1-.19.17c-.11,0-.19-.06-.19-.15V202.8A.18.18,0,0,1,155,202.64Z"/><path class="cls-5" d="M152.43,200.7h0l9.88-.61c.11,0,.2.06.2.15a.19.19,0,0,1-.2.16l-9.88.61a.16.16,0,0,1-.19-.14A.17.17,0,0,1,152.43,200.7Z"/><path class="cls-5" d="M156.88,204h0l5.55-.34a.16.16,0,0,1,.19.14.19.19,0,0,1-.19.17l-5.56.34a.16.16,0,0,1-.19-.14A.19.19,0,0,1,156.88,204Z"/><path class="cls-5" d="M148.16,197.53a.17.17,0,0,1,.17,0l15.1,11.28a.14.14,0,0,1,0,.22.24.24,0,0,1-.27,0l-15.1-11.29a.14.14,0,0,1,0-.22A.21.21,0,0,1,148.16,197.53Z"/><text class="cls-24" transform="translate(67.42 331.7)"><tspan class="cls-25">P</tspan><tspan class="cls-26" x="20.87" y="0">i</tspan><tspan class="cls-27" x="29.03" y="0">t</tspan><tspan x="37.06" y="0">aya S</tspan><tspan class="cls-28" x="118.69" y="0">m</tspan><tspan class="cls-29" x="151.12" y="0">o</tspan><tspan class="cls-30" x="169.04" y="0">othie</tspan></text><path class="cls-19" d="M109.84,340.62c-.76,0-2.1,0-2.72.05C109.43,340.72,113.65,340.62,109.84,340.62Zm-10.37.08a9.36,9.36,0,0,1-1.9.1A7,7,0,0,1,99.47,340.7Zm13.12,0c1.48-.05,2.58-.05,4.37,0-.49,0-.73.11-1.34.13C116.44,340.62,113,340.82,112.59,340.69Zm-16.11.11c-.06.09-1,.05-1.07.14s.46-.06,1.09,0a11.44,11.44,0,0,1-1.89.13c.3-.05.22-.09-.29-.08C94.32,340.82,95.48,340.82,96.48,340.8Zm24.6,0c.92-.09,3.38-.06,4.37,0C124.27,340.91,122.54,340.76,121.08,340.79Zm-10.1.09a11.09,11.09,0,0,1,2.74,0C112.51,341,112.07,340.86,111,340.88Zm.29.13c.22.21-4.32,0-6.54.11C106.78,340.9,109.05,341.12,111.27,341Zm24.31-.15h1.64c.28.15-1.07.06-1.63.09C135.59,340.92,135.58,340.89,135.58,340.86Zm2.74.08a16.79,16.79,0,0,1,3.29,0Zm29,0a54,54,0,0,1-5.45.11C163.58,341,164.87,341,167.3,341Zm26,0c-.37.25-2.92,0-4.91.06C188.41,341,191.87,341,193.28,341Zm5.73,0a25.85,25.85,0,0,1-4.08.1A33.3,33.3,0,0,1,199,341ZM92,341.57c-1.81.2-3.71-.13-5.74,0A51.36,51.36,0,0,1,92,341.57Zm87.14-.44a29.76,29.76,0,0,1-3,.1A22,22,0,0,1,179.09,341.13ZM66,341.72c1,0,1.51,0,2.73,0A11.51,11.51,0,0,1,66,341.72Zm236.42,1.54c1.21-.13,3.24,0,4.65,0A37.21,37.21,0,0,1,302.43,343.26ZM96.8,344.57c0,.08-.32.1-.25.18-1.09-.16-3-.19-4.41-.29A42.32,42.32,0,0,1,96.8,344.57Zm-13.35.28a20,20,0,0,1,2.73,0A13.71,13.71,0,0,1,83.45,344.85Zm27.92.23c1.1-.18,3.81.07,0,0ZM301,344.31a11.44,11.44,0,0,1,2.19,0C302.73,344.43,301.91,344.25,301,344.31Zm-172.09.79a14.11,14.11,0,0,1-2.45,0A16.5,16.5,0,0,1,128.87,345.1Zm163.36-.66c.45-.1,2.09,0,3-.06-1.79.14-2.53.19-4.89.2a24.27,24.27,0,0,1,2.72-.1A3.42,3.42,0,0,0,292.23,344.44Zm-150.8.61c-1.83.19-3.73.11-6.53.16C136.83,345,138.55,345.08,141.43,345.05Zm42.9-.13c-1.34.22-3.94,0-6,.07C179.92,344.84,181.52,345,184.33,344.92Zm-72.63.51c.9-.1,3,0,4.36-.06C115.16,345.48,113.06,345.4,111.7,345.43Zm110.68-.18a16.28,16.28,0,0,1-3.27.1A16.15,16.15,0,0,1,222.38,345.25Zm31.25.57c-.72.11-2.63,0-3.81.06A33.18,33.18,0,0,1,253.63,345.82Zm-40.93.43c.76,0,.71.06,1.37,0C213.84,346.39,212.57,346.43,212.7,346.25Zm-105.55-5.4c1.08-.09,1.86,0,3.27-.06,0,0-.33,0-.54,0,0,0,.11,0,.28,0A22.06,22.06,0,0,1,107.15,340.85ZM93,341.52c.32,0-.15.12,1.1.08,0-.12-1.19-.12.26-.13a6.32,6.32,0,0,0-1.1,0,1.43,1.43,0,0,1,.53-.09.88.88,0,0,0-.54.05c-.87-.15,1.1-.23,1.87-.27s.1.14,0,.17c1,0,1.56-.07,1.66.13-.7,0-.34,0-.29-.09-.86,0-1,.08-1.9.05a52.33,52.33,0,0,0,7.65,0,17.36,17.36,0,0,0,1.91,0,6,6,0,0,0-1.94-.12c-.37-.09,2.57,0,3.55-.06,0,.08-.9,0-.8.13a1.81,1.81,0,0,0,1.07-.13c6.15,0,11.07-.05,17.77,0-1-.08,0-.09.8-.13.12.07-.2.08-.53.09a3.84,3.84,0,0,0,1.62-.09,15.26,15.26,0,0,0,1.93.08c3,0,1.84,0-1.62.09.93.1,3,0,4.37,0a3.61,3.61,0,0,1-1.63.05c1.45.41,6.91,0,10.69.17-1.32-.12-3.71-.06-5.75-.06a10.62,10.62,0,0,1,2.18,0c-.74-.32-4.8.09-5.78-.24,7.92.06,14.74.21,21.9.21.61,0,.41.09.84.09,5.42-.26,10,.09,17.77,0-.19-.16.92,0,1.62-.09.75,0-.61.1-.52.18a42,42,0,0,1,5.46-.07c-1.37,0-2.21-.05-3,0,3.17.06,7.78,0,10.66,0-2-.1-4.87,0-1.66-.08.81,0,1.65-.08,3-.05.49.08-.19.08.3.17,3.83-.09,6.84,0,9.8-.26,0,.09-1.19,0-1.35.09.77.15,2.37-.09,3,0,.37,0,.21-.11.25-.18,1.19.05.66-.05,1.9-.05-.23.08-1,.07-1.06.18,2.87,0,6.28.07,9.56,0a3.42,3.42,0,0,0-.83,0c.64-.17,2.69.06,4.1-.06-1.45-.17-6,0-8.23-.14-2.56,0,3.26-.07,4.09-.06,6.77,0,13.61.25,21.35.17-1.54.21-5.44.06-7.91.12.61.16,3.52,0,3.31.16a18.71,18.71,0,0,1,1.9-.09c-.09.06-.47.07-.53.13,1.15-.06,1.47,0,2.73,0a6.13,6.13,0,0,0-1.09,0c.71-.08,3.73-.08,2.73,0,8.4,0,19.28.41,29.84.23-.19-.1-1.68,0-1.93-.08-.54,0,1.81,0,2.19,0a32.4,32.4,0,0,0-4.67-.12c-1.24,0-2.63,0-4.1,0,3.85-.22,8.17-.13,13.1-.14-.16,0-.61.16.3.13-.72.1-2.64,0-3.82.06,2.67.06,5.91,0,8.49.1-.13-.1-1.45,0-1.65-.09,3.41,0,9.41.12,11.48.05.55-.11,2.95.29,3.88.33,1.6.06,4.26-.22,4.95.2a10.08,10.08,0,0,0-1.09,0c.4.11,1.58.09,1.94.21-1-.17,4-.28,3.82-.06,1-.09,1.26-.05,2.17-.09a3,3,0,0,1-.8.13,7,7,0,0,0,2.47.08,17.41,17.41,0,0,0,3,.21,8.32,8.32,0,0,0,3.08.42c-.22.11-1.9,0-2.17.1,1.32.1.86.26,2.23.3a2.06,2.06,0,0,1-.82,0c-.58.07,1,.15,1.14.26,1.38-.11,1.39,0,2.45-.06-3,.39-8.7.49-12.76.58a16,16,0,0,1-1.94-.17c-.52,0-.67.1-1.35.1.06.06,1.15.07,0,.09.54,0,2.09.12,2.2.07-.06.2-2.74.22-4.62.2-2.07.09-4.05.29-6.8.2-.36.07-.75.14-1.05.22,2-.06,4.71,0,6-.19-.6.2,1.06.07,1.93.12-1.61.22-6.08,0-8.18.16,2.31.13-2.26.53-4.05.28a6.08,6.08,0,0,1-1.61.19,1.88,1.88,0,0,1,.8-.1c-2.23-.2-6.06-.14-9.59-.13a13.15,13.15,0,0,1,3-.15c-7.69-.13-19.18.29-28.39.25-1.43,0-2.87-.09-4.11-.07a13.81,13.81,0,0,1-1.67-.17c-4.52,0-6.83,0-10.94,0-.31,0-.15,0,0,0-4.06.05-9.9,0-13.68,0,5.35-.09,13.75-.08,20.5,0-3.59-.27-8.73-.11-13.69-.12l-9.3-.05c-3.08,0-6.56.12-8.2,0-11,.07-18.71,0-28.42.07.58.06,2.7,0,4.37,0-.6.08-3,.08-4.91.06-.83,0-3.84-.05-2.19-.08,1.26,0,1.65.06,2.46,0-3.3-.07-6.22-.07-7.38,0-2-.19-8.13,0-13.13,0-6.71,0-14.36.11-22.14,0-.43,0,.25.08-.26.09-.76-.08-.32,0-1.11-.13a3.38,3.38,0,0,1-1.08.09s.33,0,.54,0c-2-.12-5.66,0-7.14-.19-.86.22-5.12,0-7.64.07-.06-.28,1.22-.08,2.44-.1-2.86-.19-3.5,0-7.4-.14a45.66,45.66,0,0,0,4.67.16,65.68,65.68,0,0,1-7.93,0c.89.11,1.94.19,3,.25-2.14.08-4-.41-6.34-.32,1.75-.13,3.37.12,5.46,0-4.47-.26-9.31-.23-13.48-.56-.85,0-.51.12-1.35.09.7-.13-.89-.15-1.4-.21a19,19,0,0,1,1.92,0c.22-.17-1.45,0-1.66-.12a12.41,12.41,0,0,1,2.19,0,15.45,15.45,0,0,0-3.87-.24c.61-.33-2.51-.3-3.33-.34.27-.1,1.71,0,2.45,0-.34-.07-1.05-.07-1.39-.13.26-.26,2-.11,2.7-.23-1.38-.1-3.31-.1-4.94-.16.18.09,1.38,0,1.12.17-1.94-.13-5-.18-5-.41.31,0,.15,0,0,0,2.16-.07,4.17.19,6.57.06a17.5,17.5,0,0,0-2.46,0c1.2-.17-.3,0-.3-.17,1.58-.07,1.84.1,2.74,0,.06-.08-.28-.09-.28,0,1.6-.35,7.59-.25,10.31-.48-.56-.1-1.69.08-2.2-.08,0,.22-.81,0-2.45.09C90.78,341.67,92.31,341.72,93,341.52Zm187.29.25a15.54,15.54,0,0,0,2.2.08A14.37,14.37,0,0,0,280.33,341.77Zm-15.09,3.13a16.82,16.82,0,0,0-2.72.05A17.24,17.24,0,0,0,265.24,344.9Zm-29.75.25c-.08-.09,3.15,0,4.1,0a44.23,44.23,0,0,0-5.48-.07A5.5,5.5,0,0,0,235.49,345.15Zm-116.53-4a.68.68,0,0,0,0,.14c.62,0,1.82-.06,1.08-.1C119.84,341.36,119.63,341.13,119,341.19Zm7.67.15a21.89,21.89,0,0,0-3-.12A24.61,24.61,0,0,0,126.63,341.34Zm-9.28.08a8.57,8.57,0,0,0,2.47,0A18.78,18.78,0,0,0,117.35,341.42Zm25.16.07c.9-.13,2.4.09,2.71-.14C143.69,341.32,142.31,341.36,142.51,341.49Zm-42.9.13c-.21,0-.32,0-.28-.08-1.24,0-2.32.13-3.28,0A28.21,28.21,0,0,0,99.61,341.62Zm38.81-.07h3c0-.11.5-.14-.3-.17C141.28,341.56,138,341.46,138.42,341.55Zm9.28-.08a12.85,12.85,0,0,0-2.2-.12C145.47,341.52,147.22,341.39,147.7,341.47Zm126.89.28a17.59,17.59,0,0,0,2.72-.06A23.83,23.83,0,0,0,274.59,341.75Zm17.84.45a27.09,27.09,0,0,0-2.73.06A15.79,15.79,0,0,0,292.43,342.2Zm-.78.27c-.88-.06,1.11,0,.8-.14-1.5.08-2.71,0-3.82.06A26.6,26.6,0,0,0,291.65,342.47ZM143,344.82c-.83,0-2.36,0-2.73.06A27.17,27.17,0,0,0,143,344.82Zm126.53-.2c.49,0,1.36-.05,1.11.08,1.36,0,4.21,0,3.52-.19C273.7,344.68,271.15,344.44,269.57,344.62Zm14.19-.15c-3.16,0-2.06.24,0,0ZM230,345c.73,0,1.62,0,1.63-.1-.77.05-1.89-.06-1.91,0C229.92,344.92,230,345,230,345Zm48.95.06c-.34,0-.18-.05,0-.09-.83,0-2.34.07-2.74,0a6.59,6.59,0,0,1,1.36-.05,11.1,11.1,0,0,0-3.28,0,15.15,15.15,0,0,1,1.92,0c-1.15,0,.18.14-.8.18C276.61,345.1,278.59,345.14,278.94,345.06Zm-117.85-.18a20.93,20.93,0,0,1-2.72.1C157.69,344.78,160.46,345,161.09,344.88Zm41-3.63a12.66,12.66,0,0,1,1.9-.09s.07.07.28.08A16,16,0,0,1,202.07,341.25Zm-104.71-.06c0-.05.27,0,.27,0,.72-.05,1.67-.06,2.73-.05-.09.13-1.55,0-.81.09,0,.11-.92,0-1.09,0a1.48,1.48,0,0,0-.53.09c0,.09,1.26-.08.56.09.89,0,.18-.14,1.08-.09a8.78,8.78,0,0,1-2.44.14C97.49,341.34,97.76,341.25,97.36,341.19Zm88.26-.22c0,.18-.84.24-2.15.23-.59-.08,2.19,0,1.88-.19-5.27.1-7,0-12,0-.2-.17,1.49-.06,2.17-.1a1.89,1.89,0,0,1-.54.05C177.27,341,182,340.94,185.62,341Zm-108.92,1c2.13.06,4,.17,1.12.12-.79,0-1.35-.09-2.48-.07,0,0,.1-.05.27-.05s-.12,0-.28,0c.9-.12,2.26.06,3.56,0A21.89,21.89,0,0,1,76.7,341.94Zm173.77-.58a8.22,8.22,0,0,1-1.91.05C249.05,341.35,249.4,341.4,250.47,341.36Zm45.22.74a1.16,1.16,0,0,0,.54-.05c.75,0,.28.17.85.18C297.06,342.28,295.45,342.24,295.69,342.1ZM91,344.2a22.18,22.18,0,0,1,2.47.08A19.67,19.67,0,0,1,91,344.2Zm24.75.91c-.34,0-.27.09,0,.09-1.31,0-3,0-4.65,0,.48-.14,3.28.07,3-.18C114.72,345,117,345.2,115.75,345.11Z"/></g></g></svg>