<svg xmlns="http://www.w3.org/2000/svg" viewBox="0 0 48.19 65.61"><defs><style>.cls-1{fill:#83ccbb;}.cls-2{fill:#6eb5bb;}.cls-3{fill:#e21d92;}.cls-4{fill:#e84aa8;}.cls-5{opacity:0.2;}.cls-6{fill:#fff;}.cls-7{fill:#ffebff;}.cls-8{fill:#ffceff;}.cls-9{fill:#2d061d;}</style></defs><title>Asset 12</title><g id="Layer_2" data-name="Layer 2"><g id="Layer_1-2" data-name="Layer 1"><path class="cls-1" d="M33.49,1c-3.07,2.67-7.38,9.56-6.21,17.12l3.55,1L36,1.75S36.55-1.65,33.49,1Z"/><path class="cls-2" d="M38.44,2.49c1.12,3.9,1,12-4.11,17.74l-3.5-1.12L36,1.75S37.32-1.42,38.44,2.49Z"/><path class="cls-1" d="M17,63.86c-4.3-.22-8-2.74-10.8-5.68a28.94,28.94,0,0,1-5.93-9c-1-3,1.53-4.59,2.26-2.68a6.2,6.2,0,0,0,3.21,3A8.28,8.28,0,0,0,7,50l0,0,3.85,5.37.08.12,5.92,8.28Z"/><path class="cls-2" d="M39,60.63c-2.48,2-14,7.9-22,3.23l.05,0,15.76-6.19a9.91,9.91,0,0,0,2.86.37,5.21,5.21,0,0,0,2.93-.86C40.21,56,41.48,58.66,39,60.63Z"/><path class="cls-2" d="M43.88,35.5a7,7,0,0,1-1.29.83l-.25.11-.14-.81h0l-1.69-9.29a6.59,6.59,0,0,0,.69-1.15,6.88,6.88,0,0,0,.62-1.86,5.2,5.2,0,0,0,0-1.85c-.44-2.6.58-3.52,1.57-3.22.3.08,1,1.4,1.65,3.3C46.45,25.64,47.58,32.39,43.88,35.5Z"/><path class="cls-2" d="M39.1,53.55c-.35.06-.71.11-1.08.14a7.71,7.71,0,0,1,1-5.86,7.5,7.5,0,0,1,1.4-1.58,5.47,5.47,0,0,0,2.35-1c1.32-1,2.82-2.76,3.54-6.16,0,0,.29-1.58,1.46-1.2S48.31,51.89,39.1,53.55Z"/><path class="cls-1" d="M20.65,11.52c-1-.29-13.67,8.73-9,15.84l7-7.48a6.9,6.9,0,0,1,1.52-4.8C22,13.14,21.65,11.81,20.65,11.52Z"/><path class="cls-1" d="M7.51,42a7.66,7.66,0,0,1-1.6,2.21,8.17,8.17,0,0,1-.77-.64L5,43.36a9.84,9.84,0,0,1-2.81-8c.34-5.15,3.47-9.94,4.21-9.74,1.19.33.58,1.81.58,1.81a10.59,10.59,0,0,0-.76,5.74,7.26,7.26,0,0,0,.42,1.46,5.33,5.33,0,0,0,1.36,2A7.29,7.29,0,0,1,7.51,42Z"/><path class="cls-3" d="M42.6,45.76a31.07,31.07,0,0,1-1.92,4.94,29,29,0,0,1-1.58,2.85A27.3,27.3,0,0,1,35.63,58c-5.11,5.33-11.84,7.84-18.09,6L17,63.84l-.08,0a15.54,15.54,0,0,1-7.16-5.19c-.43-.56-.84-1.14-1.22-1.75A20.94,20.94,0,0,1,6.68,53a22.88,22.88,0,0,1-1-3.48,26.92,26.92,0,0,1-.56-6v-.29a31.34,31.34,0,0,1,1.31-8.19c0-.15.09-.31.14-.46.22-.71.46-1.41.73-2.08a30,30,0,0,1,3.6-6.7,24.87,24.87,0,0,1,7.82-7.21A18,18,0,0,1,21,17.49a16.39,16.39,0,0,1,6.06-1.28,14.39,14.39,0,0,1,4.06.5l.35.1.29.08h0a13.79,13.79,0,0,1,2.41,1,13.54,13.54,0,0,1,1.32.79,16.65,16.65,0,0,1,4.3,4.24h0c.25.35.49.71.71,1.08s.45.77.66,1.17A25,25,0,0,1,43.88,35.5c0,.71,0,1.44,0,2.17,0,.48,0,1-.07,1.44a31.77,31.77,0,0,1-1.07,6.1C42.71,45.39,42.66,45.58,42.6,45.76Z"/><path class="cls-4" d="M42.6,45.76a31.07,31.07,0,0,1-1.92,4.94,29,29,0,0,1-1.58,2.85A27.3,27.3,0,0,1,35.63,58c-5.11,5.33-11.84,7.84-18.09,6L17,63.84l-.08,0a15.54,15.54,0,0,1-7.16-5.19c-.43-.56-.84-1.14-1.22-1.75A20.94,20.94,0,0,1,6.68,53C6.75,52,6.87,51,7,50a34,34,0,0,1,.86-3.7,31.91,31.91,0,0,1,2.39-5.87c.09-.17.18-.34.28-.51a26.3,26.3,0,0,1,9.22-9.84c.37-.22.74-.43,1.12-.62A16.06,16.06,0,0,1,33,28.08l.07,0a14.55,14.55,0,0,1,4.47,2.24,17.26,17.26,0,0,1,4.69,5.29l.39.7c.28.52.54,1.07.78,1.63.16.38.31.76.46,1.15a31.77,31.77,0,0,1-1.07,6.1C42.71,45.39,42.66,45.58,42.6,45.76Z"/><g class="cls-5"><path class="cls-6" d="M40.68,50.7a29,29,0,0,1-1.58,2.85A27.3,27.3,0,0,1,35.63,58c-5.11,5.33-11.84,7.84-18.09,6L17,63.84l-.08,0a15.54,15.54,0,0,1-7.16-5.19l0-.05a27.79,27.79,0,0,1,1.05-2.95l.09-.21a27.76,27.76,0,0,1,1.3-2.62l.09-.16c.46-.8,1-1.57,1.48-2.3.22-.3.45-.6.68-.88a19.38,19.38,0,0,1,10.23-7h0a13.65,13.65,0,0,1,6.29-.1c.26.07.52.13.78.21a13,13,0,0,1,1.83.7,13.74,13.74,0,0,1,4.22,3.13l.14.16a15.59,15.59,0,0,1,1,1.28A16.57,16.57,0,0,1,40.68,50.7Z"/></g><g class="cls-5"><path class="cls-6" d="M39,60.63c-2.48,2-14,7.9-22,3.23-4.3-.22-8-2.74-10.8-5.68a28.94,28.94,0,0,1-5.93-9c-1-3,1.53-4.59,2.26-2.68a6.2,6.2,0,0,0,3.21,3,26.92,26.92,0,0,1-.56-6L5,43.36l.19-.11L7.51,42l2.78-1.51L35.21,26.92,40.54,24l1.28-.69,3.25-1.77c1.38,4.08,2.51,10.83-1.19,13.94,0,.71,0,1.44,0,2.17,0,.48,0,1-.07,1.44a31.77,31.77,0,0,1-1.07,6.1c1.32-1,2.82-2.76,3.54-6.16,0,0,.29-1.58,1.46-1.2s.55,14-8.66,15.7A27.3,27.3,0,0,1,35.63,58a5.21,5.21,0,0,0,2.93-.86C40.21,56,41.48,58.66,39,60.63Z"/></g><g class="cls-5"><path class="cls-6" d="M43.88,35.5c0,.71,0,1.44,0,2.17l-.53.29L39.3,40.18l-6.19,3.36-3.53,1.91-.94.51L16.26,52.69l-.05,0-3,1.65L11,55.54l-.17.09L8.55,56.88l-2.39,1.3a28.94,28.94,0,0,1-5.93-9c-1-3,1.53-4.59,2.26-2.68a6.2,6.2,0,0,0,3.21,3,26.92,26.92,0,0,1-.56-6L5,43.36a9.84,9.84,0,0,1-2.81-8l4-2.19,1.15-.62,10.53-5.73,14.82-8,.27-.14,1.27-.69,2.67-1.45,2.18-1.19c.87,2.1-.39,5.78.68,7.51a1.46,1.46,0,0,1,.09.16h0c.25.35.49.71.71,1.08l1.28-.69a5.2,5.2,0,0,0,0-1.85c-.44-2.6.58-3.52,1.57-3.22.3.08,1,1.4,1.65,3.3C46.45,25.64,47.58,32.39,43.88,35.5Z"/></g><path class="cls-3" d="M32,16.87s-2.8-1.2-2.35-3.36A2.25,2.25,0,0,0,27,11c-2.62.36-3.54,5.33-5.69,6.34S32,16.87,32,16.87Z"/><path class="cls-3" d="M34.82,19.64l-1.55-1.22L31.46,17l0,0-.27-.22L31,16.56a4.14,4.14,0,0,0,.56.05h0c.91,0,2.63-.11,3.21-1.59a2.25,2.25,0,0,1,3.12-1,2.55,2.55,0,0,1,.52.38,2.4,2.4,0,0,1,.64.9c.87,2.1-.39,5.78.68,7.51a1.46,1.46,0,0,1,.09.16h0C40.14,23.69,37.35,21.62,34.82,19.64Z"/><path class="cls-6" d="M38.36,45.39c-.16.54-.34,1.07-.53,1.58a22.68,22.68,0,0,1-1,2.36C33.08,56.77,26,61,19.52,59.11A11.1,11.1,0,0,1,15.62,57a13.38,13.38,0,0,1-3.27-4,20.86,20.86,0,0,1-1.17-15.69c2.9-9.8,11.34-15.94,18.84-13.72S41.26,35.59,38.36,45.39Z"/><path class="cls-7" d="M37.83,47c-3.3,8.87-11.22,14.24-18.31,12.14A12.18,12.18,0,0,1,12.35,53a20.32,20.32,0,0,1,.77-7.83c2.54-8.6,10-14,16.54-12C34.87,34.71,38,40.4,37.83,47Z"/><path class="cls-8" d="M36.81,49.33C33.08,56.77,26,61,19.52,59.11A11.1,11.1,0,0,1,15.62,57a18,18,0,0,1,.73-4.66c2.17-7.31,8.45-11.89,14-10.23C33.56,43.09,35.83,45.81,36.81,49.33Z"/><path class="cls-9" d="M35,33.72a1,1,0,1,1-.66-1.21A1,1,0,0,1,35,33.72Z"/><path class="cls-9" d="M30.22,26.53a.7.7,0,0,1-1.35-.4.7.7,0,1,1,1.35.4Z"/><path class="cls-9" d="M22.23,51.05a.71.71,0,1,1-.48-.88A.71.71,0,0,1,22.23,51.05Z"/><path class="cls-9" d="M21.37,56.44a.71.71,0,0,1-.88.48.7.7,0,1,1,.88-.48Z"/><path class="cls-9" d="M27.23,55.92a.7.7,0,1,1-1.35-.4.7.7,0,0,1,.87-.48A.71.71,0,0,1,27.23,55.92Z"/><path class="cls-9" d="M20.92,29.91a.65.65,0,0,1-1.24-.37.65.65,0,0,1,.81-.44A.64.64,0,0,1,20.92,29.91Z"/><path class="cls-9" d="M17.77,45.22a.65.65,0,1,1-.44-.8A.64.64,0,0,1,17.77,45.22Z"/><circle class="cls-9" cx="29.31" cy="37.05" r="0.96" transform="translate(-14.14 18.5) rotate(-28.53)"/><path class="cls-9" d="M13.46,42.16A1,1,0,1,1,12.81,41,1,1,0,0,1,13.46,42.16Z"/><path class="cls-9" d="M24.91,27.16a.52.52,0,0,1-.66.36.53.53,0,1,1,.66-.36Z"/><path class="cls-9" d="M17.76,34.35A.68.68,0,1,1,16.45,34a.68.68,0,0,1,.85-.46A.69.69,0,0,1,17.76,34.35Z"/><path class="cls-9" d="M24.94,40.07A.9.9,0,1,1,24.33,39,.9.9,0,0,1,24.94,40.07Z"/><path class="cls-9" d="M26.17,30.78a.67.67,0,0,1-.83.46A.67.67,0,0,1,25.72,30,.66.66,0,0,1,26.17,30.78Z"/><path class="cls-9" d="M35.16,42a.62.62,0,1,1-.42-.77A.61.61,0,0,1,35.16,42Z"/><path class="cls-9" d="M29.57,45.54a.68.68,0,1,1-1.3-.39.68.68,0,0,1,1.3.39Z"/><path class="cls-9" d="M18.62,40.08a.67.67,0,0,1-.82.45.65.65,0,0,1-.44-.82.64.64,0,0,1,.81-.44A.65.65,0,0,1,18.62,40.08Z"/><path class="cls-9" d="M13.72,37.9a.7.7,0,0,1-1.35-.4.7.7,0,1,1,1.35.4Z"/><path class="cls-9" d="M33.31,29.55a.61.61,0,1,1-1.17-.35.61.61,0,0,1,1.17.35Z"/><path class="cls-9" d="M14.92,50.22a.61.61,0,1,1-.41-.75A.6.6,0,0,1,14.92,50.22Z"/><path class="cls-9" d="M33.37,49.84a.64.64,0,0,1-.8.43.63.63,0,0,1-.43-.79.64.64,0,0,1,1.23.36Z"/><path class="cls-9" d="M25.14,47.19a.86.86,0,0,1-1.06.57.85.85,0,0,1,.48-1.63A.86.86,0,0,1,25.14,47.19Z"/><path class="cls-9" d="M28.13,52.18a.61.61,0,0,1-.74.4.59.59,0,1,1,.74-.4Z"/></g></g></svg>