<svg xmlns="http://www.w3.org/2000/svg" viewBox="0 0 295.74 67.01"><defs><style>.cls-1{font-size:41px;font-family:AttractypeReborn, Attractype Reborn;}.cls-1,.cls-11{fill:#e21d92;}.cls-2{letter-spacing:0.03em;}.cls-3{letter-spacing:0em;}.cls-4{letter-spacing:-0.03em;}.cls-5{letter-spacing:0.05em;}.cls-6{letter-spacing:0.04em;}.cls-7{letter-spacing:0em;}.cls-8{fill:none;stroke:#e21d92;stroke-linecap:round;stroke-linejoin:round;stroke-width:3px;}.cls-9{fill:#83ccbb;}.cls-10{fill:#6eb5bb;}.cls-12{fill:#e84aa8;}.cls-13{opacity:0.2;}.cls-14{fill:#fff;}.cls-15{fill:#ffebff;}.cls-16{fill:#ffceff;}.cls-17{fill:#2d061d;}</style></defs><title>Asset 7</title><g id="Layer_2" data-name="Layer 2"><g id="Layer_1-2" data-name="Layer 1"><text class="cls-1" transform="translate(0.82 56.44)"><tspan class="cls-2">P</tspan><tspan class="cls-3" x="20.87" y="0">i</tspan><tspan class="cls-4" x="29.03" y="0">t</tspan><tspan x="37.06" y="0">aya S</tspan><tspan class="cls-5" x="118.69" y="0">m</tspan><tspan class="cls-6" x="151.12" y="0">o</tspan><tspan class="cls-7" x="169.04" y="0">othie</tspan></text><line class="cls-8" x1="1.5" y1="65.51" x2="242.57" y2="65.51"/><path class="cls-9" d="M281,1c-3.07,2.67-7.38,9.56-6.2,17.12l3.54,1,5.14-17.36S284.1-1.65,281,1Z"/><path class="cls-10" d="M286,2.49c1.12,3.9,1,12-4.11,17.74l-3.5-1.12,5.14-17.36S284.87-1.42,286,2.49Z"/><path class="cls-9" d="M264.51,63.86c-4.3-.22-8-2.74-10.8-5.68a28.94,28.94,0,0,1-5.93-9c-1-3,1.54-4.59,2.26-2.68a6.2,6.2,0,0,0,3.21,3,8.67,8.67,0,0,0,1.34.53l0,0,3.85,5.37.08.12,5.92,8.28Z"/><path class="cls-10" d="M286.55,60.63c-2.48,2-14,7.9-22,3.23l.05,0,15.76-6.19a9.91,9.91,0,0,0,2.86.37,5.27,5.27,0,0,0,2.94-.86C287.76,56,289,58.66,286.55,60.63Z"/><path class="cls-10" d="M291.43,35.5a7,7,0,0,1-1.29.83l-.24.11-.15-.81h0l-1.69-9.29a6.59,6.59,0,0,0,.69-1.15,7.24,7.24,0,0,0,.63-1.86,5.45,5.45,0,0,0,0-1.85C289,18.88,290,18,291,18.26c.29.08,1,1.4,1.64,3.3C294,25.64,295.13,32.39,291.43,35.5Z"/><path class="cls-10" d="M286.65,53.55c-.35.06-.71.11-1.08.14a7.71,7.71,0,0,1,1-5.86,7.79,7.79,0,0,1,1.4-1.58,5.47,5.47,0,0,0,2.35-1c1.32-1,2.82-2.76,3.54-6.16,0,0,.29-1.58,1.47-1.2S295.86,51.89,286.65,53.55Z"/><path class="cls-9" d="M268.21,11.52c-1-.29-13.67,8.73-9,15.84l7-7.48a6.93,6.93,0,0,1,1.53-4.8C269.56,13.14,269.2,11.81,268.21,11.52Z"/><path class="cls-9" d="M255.06,42a7.66,7.66,0,0,1-1.6,2.21,9.68,9.68,0,0,1-.77-.64l-.19-.18a9.91,9.91,0,0,1-2.81-8c.35-5.15,3.47-9.94,4.21-9.74,1.19.33.58,1.81.58,1.81a10.69,10.69,0,0,0-.76,5.74,7.26,7.26,0,0,0,.42,1.46,5.33,5.33,0,0,0,1.36,2A7.29,7.29,0,0,1,255.06,42Z"/><path class="cls-11" d="M290.15,45.76a32,32,0,0,1-1.91,4.94,31.24,31.24,0,0,1-1.59,2.85A27.3,27.3,0,0,1,283.18,58c-5.11,5.33-11.84,7.84-18.09,6l-.53-.17-.08,0a15.54,15.54,0,0,1-7.16-5.19c-.43-.56-.84-1.14-1.22-1.75a21.59,21.59,0,0,1-1.87-3.9,22.88,22.88,0,0,1-1-3.48,28.17,28.17,0,0,1-.56-6c0-.09,0-.19,0-.29a31.32,31.32,0,0,1,1.3-8.19c0-.15.09-.31.14-.46.22-.71.46-1.41.73-2.08a30.41,30.41,0,0,1,3.6-6.7,24.87,24.87,0,0,1,7.82-7.21,18,18,0,0,1,2.3-1.12,16.39,16.39,0,0,1,6.06-1.28,14.39,14.39,0,0,1,4.06.5l.35.1.29.08h0a13.79,13.79,0,0,1,2.41,1,15,15,0,0,1,1.33.79,16.77,16.77,0,0,1,4.29,4.24h0c.25.35.49.71.71,1.08s.46.77.66,1.17a24.8,24.8,0,0,1,2.68,10.31c0,.71,0,1.44,0,2.17,0,.48,0,1-.07,1.44a31.77,31.77,0,0,1-1.07,6.1C290.26,45.39,290.21,45.58,290.15,45.76Z"/><path class="cls-12" d="M290.15,45.76a32,32,0,0,1-1.91,4.94,31.24,31.24,0,0,1-1.59,2.85A27.3,27.3,0,0,1,283.18,58c-5.11,5.33-11.84,7.84-18.09,6l-.53-.17-.08,0a15.54,15.54,0,0,1-7.16-5.19c-.43-.56-.84-1.14-1.22-1.75a21.59,21.59,0,0,1-1.87-3.9c.07-1,.19-2,.36-2.95a34,34,0,0,1,.86-3.7,31.25,31.25,0,0,1,2.4-5.87c.08-.17.18-.34.27-.51a26.3,26.3,0,0,1,9.22-9.84c.37-.22.74-.43,1.12-.62a16.06,16.06,0,0,1,12.06-1.41l.07,0a14.55,14.55,0,0,1,4.47,2.24,17.26,17.26,0,0,1,4.69,5.29l.39.7c.28.52.54,1.07.78,1.63.16.38.32.76.46,1.15a31.77,31.77,0,0,1-1.07,6.1C290.26,45.39,290.21,45.58,290.15,45.76Z"/><g class="cls-13"><path class="cls-14" d="M288.24,50.7a31.24,31.24,0,0,1-1.59,2.85A27.3,27.3,0,0,1,283.18,58c-5.11,5.33-11.84,7.84-18.09,6l-.53-.17-.08,0a15.54,15.54,0,0,1-7.16-5.19l0-.05a27.79,27.79,0,0,1,1.05-2.95l.09-.21a27.76,27.76,0,0,1,1.3-2.62l.09-.16a25.88,25.88,0,0,1,1.49-2.3c.21-.3.44-.6.67-.88a19.41,19.41,0,0,1,10.23-7h0a13.65,13.65,0,0,1,6.29-.1c.26.07.52.13.78.21a13,13,0,0,1,1.83.7,13.74,13.74,0,0,1,4.22,3.13l.15.16c.36.41.7.84,1,1.28A17.28,17.28,0,0,1,288.24,50.7Z"/></g><g class="cls-13"><path class="cls-14" d="M286.55,60.63c-2.48,2-14,7.9-22,3.23-4.3-.22-8-2.74-10.8-5.68a28.94,28.94,0,0,1-5.93-9c-1-3,1.54-4.59,2.26-2.68a6.2,6.2,0,0,0,3.21,3,28.17,28.17,0,0,1-.56-6l-.19-.18.2-.11L255.06,42l2.79-1.51,24.91-13.54,5.33-2.9,1.29-.69,3.24-1.77c1.38,4.08,2.51,10.83-1.19,13.94,0,.71,0,1.44,0,2.17,0,.48,0,1-.07,1.44a31.77,31.77,0,0,1-1.07,6.1c1.32-1,2.82-2.76,3.54-6.16,0,0,.29-1.58,1.47-1.2s.54,14-8.67,15.7A27.3,27.3,0,0,1,283.18,58a5.27,5.27,0,0,0,2.94-.86C287.76,56,289,58.66,286.55,60.63Z"/></g><g class="cls-13"><path class="cls-14" d="M291.43,35.5c0,.71,0,1.44,0,2.17l-.53.29-4.07,2.22-6.19,3.36-3.52,1.91-.95.51-12.37,6.73-.06,0-3,1.65-2.16,1.17-.17.09-2.29,1.25-2.39,1.3a28.94,28.94,0,0,1-5.93-9c-1-3,1.54-4.59,2.26-2.68a6.2,6.2,0,0,0,3.21,3,28.17,28.17,0,0,1-.56-6l-.19-.18a9.91,9.91,0,0,1-2.81-8l4-2.19,1.15-.62,10.53-5.73,14.82-8,.27-.14,1.27-.69,2.67-1.45,2.18-1.19c.88,2.1-.39,5.78.69,7.51l.08.16h0c.25.35.49.71.71,1.08l1.29-.69a5.45,5.45,0,0,0,0-1.85C289,18.88,290,18,291,18.26c.29.08,1,1.4,1.64,3.3C294,25.64,295.13,32.39,291.43,35.5Z"/></g><path class="cls-11" d="M279.57,16.87s-2.79-1.2-2.35-3.36a2.25,2.25,0,0,0-2.7-2.53c-2.62.36-3.54,5.33-5.69,6.34S279.57,16.87,279.57,16.87Z"/><path class="cls-11" d="M282.37,19.64l-1.55-1.22L279,17s0,0,0,0l-.28-.22-.18-.15a4.09,4.09,0,0,0,.55.05h0c.91,0,2.63-.11,3.21-1.59a2.25,2.25,0,0,1,3.12-1,2.55,2.55,0,0,1,.52.38,2.4,2.4,0,0,1,.64.9c.88,2.1-.39,5.78.69,7.51l.08.16h0C287.69,23.69,284.9,21.62,282.37,19.64Z"/><path class="cls-14" d="M285.91,45.39c-.16.54-.33,1.07-.53,1.58a22.68,22.68,0,0,1-1,2.36c-3.72,7.44-10.85,11.69-17.29,9.78a11.19,11.19,0,0,1-3.9-2.07,13.2,13.2,0,0,1-3.26-4,20.81,20.81,0,0,1-1.17-15.69c2.89-9.8,11.33-15.94,18.83-13.72S288.81,35.59,285.91,45.39Z"/><path class="cls-15" d="M285.38,47c-3.29,8.87-11.21,14.24-18.31,12.14A12.16,12.16,0,0,1,259.91,53a20.3,20.3,0,0,1,.76-7.83c2.54-8.6,9.95-14,16.54-12C282.43,34.71,285.57,40.4,285.38,47Z"/><path class="cls-16" d="M284.36,49.33c-3.72,7.44-10.85,11.69-17.29,9.78a11.19,11.19,0,0,1-3.9-2.07,18,18,0,0,1,.73-4.66c2.17-7.31,8.46-11.89,14.05-10.23C281.12,43.09,283.38,45.81,284.36,49.33Z"/><path class="cls-17" d="M282.51,33.72a1,1,0,1,1-.66-1.21A1,1,0,0,1,282.51,33.72Z"/><path class="cls-17" d="M277.77,26.53a.7.7,0,0,1-1.35-.4.7.7,0,1,1,1.35.4Z"/><path class="cls-17" d="M269.78,51.05a.71.71,0,0,1-.88.48.71.71,0,1,1,.88-.48Z"/><path class="cls-17" d="M268.92,56.44a.71.71,0,1,1-.48-.87A.71.71,0,0,1,268.92,56.44Z"/><path class="cls-17" d="M274.78,55.92a.7.7,0,1,1-.47-.88A.71.71,0,0,1,274.78,55.92Z"/><path class="cls-17" d="M268.48,29.91a.66.66,0,0,1-.81.43.65.65,0,0,1-.44-.8.66.66,0,0,1,.81-.44A.65.65,0,0,1,268.48,29.91Z"/><path class="cls-17" d="M265.32,45.22a.65.65,0,1,1-.44-.8A.64.64,0,0,1,265.32,45.22Z"/><circle class="cls-17" cx="276.86" cy="37.05" r="0.96" transform="translate(15.92 136.73) rotate(-28.53)"/><path class="cls-17" d="M261,42.16a1,1,0,0,1-1.2.65,1,1,0,0,1-.65-1.19,1,1,0,0,1,1.2-.65A1,1,0,0,1,261,42.16Z"/><path class="cls-17" d="M272.46,27.16a.52.52,0,0,1-.66.36.53.53,0,1,1,.66-.36Z"/><path class="cls-17" d="M265.31,34.35a.68.68,0,1,1-.46-.85A.68.68,0,0,1,265.31,34.35Z"/><path class="cls-17" d="M272.49,40.07a.9.9,0,1,1-.6-1.12A.9.9,0,0,1,272.49,40.07Z"/><path class="cls-17" d="M273.72,30.78a.67.67,0,0,1-.83.46.67.67,0,0,1,.38-1.29A.66.66,0,0,1,273.72,30.78Z"/><path class="cls-17" d="M282.72,42a.63.63,0,0,1-.78.42.61.61,0,0,1-.42-.77.63.63,0,0,1,1.2.35Z"/><path class="cls-17" d="M277.12,45.54a.68.68,0,1,1-.46-.84A.68.68,0,0,1,277.12,45.54Z"/><path class="cls-17" d="M266.17,40.08a.66.66,0,1,1-1.26-.37.64.64,0,0,1,.81-.44A.65.65,0,0,1,266.17,40.08Z"/><path class="cls-17" d="M261.27,37.9a.7.7,0,0,1-1.35-.4.7.7,0,1,1,1.35.4Z"/><path class="cls-17" d="M280.86,29.55a.6.6,0,0,1-.76.41.61.61,0,0,1-.41-.76.62.62,0,0,1,.76-.41A.61.61,0,0,1,280.86,29.55Z"/><path class="cls-17" d="M262.47,50.22a.6.6,0,0,1-.75.41.6.6,0,1,1,.34-1.16A.6.6,0,0,1,262.47,50.22Z"/><path class="cls-17" d="M280.92,49.84a.64.64,0,1,1-.43-.79A.63.63,0,0,1,280.92,49.84Z"/><path class="cls-17" d="M272.69,47.19a.85.85,0,0,1-1.63-.48.85.85,0,1,1,1.63.48Z"/><path class="cls-17" d="M275.68,52.18a.6.6,0,0,1-.74.4.59.59,0,0,1,.34-1.13A.59.59,0,0,1,275.68,52.18Z"/></g></g></svg>