<?xml version="1.0"?>
<svg xmlns="http://www.w3.org/2000/svg" xmlns:xlink="http://www.w3.org/1999/xlink" version="1.1" id="Capa_1" x="0px" y="0px" viewBox="0 0 512.001 512.001" style="enable-background:new 0 0 512.001 512.001;" xml:space="preserve" width="512px" height="512px" class="hovered-paths"><g><rect x="156.616" y="8.983" style="fill:#E1EAF8;" width="287.55" height="405.262" data-original="#E1EAF8"/><rect x="112.228" y="53.372" style="fill:#7B21BE" width="287.55" height="405.262" data-original="#76FFD9" class="" data-old_color="#76FFD9"/><rect x="67.844" y="97.746" style="fill:#FFFFFF;" width="287.55" height="405.262" data-original="#FFFFFF"/><g>
	<path style="fill:#434C54;" d="M444.158,76.648c-4.962,0-8.983,4.022-8.983,8.983V405.26h-11.451c-4.962,0-8.983,4.022-8.983,8.983   c0,4.961,4.021,8.983,8.983,8.983h20.434c4.962,0,8.983-4.022,8.983-8.983V85.631C453.141,80.67,449.121,76.648,444.158,76.648z" data-original="#434C54"/>
	<path style="fill:#434C54;" d="M444.158,0H156.612c-4.962,0-8.983,4.022-8.983,8.983v35.406h-35.405   c-4.962,0-8.983,4.022-8.983,8.983v20.421c0,4.961,4.021,8.983,8.983,8.983s8.983-4.022,8.983-8.983V62.355h269.58v387.293h-26.417   V97.752c0-4.961-4.021-8.983-8.983-8.983H67.843c-4.962,0-8.983,4.022-8.983,8.983v405.265c0,4.961,4.021,8.983,8.983,8.983h57.487   c4.962,0,8.983-4.022,8.983-8.983s-4.021-8.983-8.983-8.983H76.826V106.735h269.579v351.78c0,0.039-0.006,0.077-0.006,0.116   s0.005,0.077,0.006,0.116v35.287H155.273c-4.962,0-8.983,4.022-8.983,8.983c0,4.961,4.021,8.983,8.983,8.983h200.115   c4.962,0,8.983-4.022,8.983-8.983v-35.404h35.4c4.962,0,8.983-4.022,8.983-8.983V53.372c0-4.961-4.021-8.983-8.983-8.983H165.595   V17.966h269.58v37.722c0,4.961,4.021,8.983,8.983,8.983s8.983-4.022,8.983-8.983V8.983C453.141,4.022,449.121,0,444.158,0z" data-original="#434C54"/>
</g><g>
	<path style="fill:#DC129B" d="M278.432,156.983c4.962,0,8.983-4.022,8.983-8.983c0-4.961-4.021-8.983-8.983-8.983h-56.687   c-4.962,0-8.983,4.022-8.983,8.983c0,4.961,4.021,8.983,8.983,8.983H278.432z" data-original="#FFC843" class="hovered-path active-path" data-old_color="#FFC843"/>
	<path style="fill:#DC129B" d="M191.801,156.983c4.962,0,8.983-4.022,8.983-8.983c0-4.961-4.021-8.983-8.983-8.983H144.8   c-4.962,0-8.983,4.022-8.983,8.983c0,4.961,4.021,8.983,8.983,8.983H191.801z" data-original="#FFC843" class="hovered-path active-path" data-old_color="#FFC843"/>
	<path style="fill:#DC129B" d="M111.064,210.188c0,4.961,4.021,8.983,8.983,8.983h183.137c4.962,0,8.983-4.022,8.983-8.983   c0-4.961-4.021-8.983-8.983-8.983H120.047C115.085,201.205,111.064,205.227,111.064,210.188z" data-original="#FFC843" class="hovered-path active-path" data-old_color="#FFC843"/>
	<path style="fill:#DC129B" d="M303.184,247.021h-27.545c-4.962,0-8.983,4.022-8.983,8.983c0,4.961,4.021,8.983,8.983,8.983h27.545   c4.962,0,8.983-4.022,8.983-8.983C312.167,251.043,308.146,247.021,303.184,247.021z" data-original="#FFC843" class="hovered-path active-path" data-old_color="#FFC843"/>
	<path style="fill:#DC129B" d="M120.047,264.987h125.649c4.962,0,8.983-4.022,8.983-8.983c0-4.961-4.021-8.983-8.983-8.983H120.047   c-4.962,0-8.983,4.022-8.983,8.983C111.064,260.965,115.085,264.987,120.047,264.987z" data-original="#FFC843" class="hovered-path active-path" data-old_color="#FFC843"/>
	<path style="fill:#DC129B" d="M120.047,310.803h183.137c4.962,0,8.983-4.022,8.983-8.983s-4.021-8.983-8.983-8.983H120.047   c-4.962,0-8.983,4.022-8.983,8.983S115.085,310.803,120.047,310.803z" data-original="#FFC843" class="hovered-path active-path" data-old_color="#FFC843"/>
	<path style="fill:#DC129B" d="M303.184,338.653H186.558c-4.962,0-8.983,4.022-8.983,8.983c0,4.961,4.021,8.983,8.983,8.983   h116.626c4.962,0,8.983-4.022,8.983-8.983C312.167,342.675,308.146,338.653,303.184,338.653z" data-original="#FFC843" class="hovered-path active-path" data-old_color="#FFC843"/>
	<path style="fill:#DC129B" d="M120.047,356.619h36.568c4.962,0,8.983-4.022,8.983-8.983c0-4.961-4.021-8.983-8.983-8.983h-36.568   c-4.962,0-8.983,4.022-8.983,8.983C111.064,352.597,115.085,356.619,120.047,356.619z" data-original="#FFC843" class="hovered-path active-path" data-old_color="#FFC843"/>
	<path style="fill:#DC129B" d="M303.184,430.285h-61.08c-4.962,0-8.983,4.022-8.983,8.983s4.021,8.983,8.983,8.983h61.08   c4.962,0,8.983-4.022,8.983-8.983S308.146,430.285,303.184,430.285z" data-original="#FFC843" class="hovered-path active-path" data-old_color="#FFC843"/>
</g></g> </svg>
