<?xml version="1.0"?>
<svg xmlns="http://www.w3.org/2000/svg" height="512px" viewBox="1 -2 511.99998 511" width="512px" class="hovered-paths"><g><path d="m8.347656 8.847656h495.304688v490.242188h-495.304688zm0 0" fill="#fff" data-original="#FFF"/><path d="m8.347656 374.734375h495.304688v124.355469h-495.304688zm0 0" fill="#ffc843" data-original="#FFC843" class="hovered-path active-path" style="fill:#FF43A8" data-old_color="#ffc843"/><path d="m8.347656 74.253906h495.304688v29.457032h-495.304688zm0 0" fill="#e1eaf8" data-original="#E1EAF8"/><path d="m8.347656 345.28125h495.304688v29.453125h-495.304688zm0 0" fill="#e1eaf8" data-original="#E1EAF8"/><path d="m8.347656 8.847656h495.304688v65.40625h-495.304688zm0 0" fill="#fff" data-original="#FFF"/><g fill="#76ffd9"><path d="m464.371094 49.898438h-12.691406c-4.609376 0-8.347657-3.734376-8.347657-8.347657 0-4.609375 3.738281-8.347656 8.347657-8.347656h12.691406c4.613281 0 8.347656 3.738281 8.347656 8.347656 0 4.613281-3.734375 8.347657-8.347656 8.347657zm0 0" data-original="#76FFD9" class="" data-old_color="#76FFD9" style="fill:#732EBE"/><path d="m419.292969 49.898438h-12.691407c-4.613281 0-8.347656-3.734376-8.347656-8.347657 0-4.609375 3.734375-8.347656 8.347656-8.347656h12.691407c4.613281 0 8.347656 3.738281 8.347656 8.347656 0 4.613281-3.734375 8.347657-8.347656 8.347657zm0 0" data-original="#76FFD9" class="" data-old_color="#76FFD9" style="fill:#732EBE"/><path d="m373.101562 49.898438h-12.691406c-4.613281 0-8.347656-3.734376-8.347656-8.347657 0-4.609375 3.734375-8.347656 8.347656-8.347656h12.691406c4.613282 0 8.347657 3.738281 8.347657 8.347656 0 4.613281-3.734375 8.347657-8.347657 8.347657zm0 0" data-original="#76FFD9" class="" data-old_color="#76FFD9" style="fill:#732EBE"/><path d="m179.898438 153.726562c-5.429688-5.433593-14.238282-5.441406-19.679688-.011718l-58.773438 58.699218c-2.613281 2.609376-4.078124 6.148438-4.078124 9.84375 0 3.695313 1.464843 7.234376 4.078124 9.84375l58.773438 58.699219c2.71875 2.714844 6.277344 4.070313 9.832031 4.070313 3.5625 0 7.128907-1.363282 9.84375-4.082032 5.429688-5.4375 5.425781-14.246093-.011719-19.675781l-48.914062-48.855469 48.914062-48.855468c5.4375-5.429688 5.445313-14.238282.015626-19.675782zm0 0" data-original="#76FFD9" class="" data-old_color="#76FFD9" style="fill:#732EBE"/><path d="m408.765625 212.414062-58.777344-58.699218c-5.4375-5.429688-14.246093-5.421875-19.675781.015625s-5.421875 14.246093.015625 19.675781l48.914063 48.855469-48.914063 48.855469c-5.4375 5.429687-5.445313 14.238281-.015625 19.675781 2.71875 2.71875 6.28125 4.082031 9.847656 4.082031 3.554688 0 7.113282-1.359375 9.828125-4.070312l58.777344-58.699219c2.613281-2.609375 4.082031-6.148438 4.082031-9.84375 0-3.695313-1.46875-7.238281-4.082031-9.847657zm0 0" data-original="#76FFD9" class="" data-old_color="#76FFD9" style="fill:#732EBE"/><path d="m297.824219 111.992188c-7.160157-2.796876-15.226563.742187-18.019531 7.902343l-74.667969 191.203125c-2.792969 7.15625.742187 15.226563 7.902343 18.019532 1.660157.648437 3.371094.957031 5.054688.957031 5.566406 0 10.820312-3.363281 12.964844-8.855469l74.664062-191.203125c2.796875-7.160156-.742187-15.226563-7.898437-18.023437zm0 0" data-original="#76FFD9" class="" data-old_color="#76FFD9" style="fill:#732EBE"/></g><path d="m377.894531 418.691406c0-4.613281-3.738281-8.347656-8.351562-8.347656h-312.371094c-4.609375 0-8.347656 3.734375-8.347656 8.347656 0 4.609375 3.738281 8.347656 8.347656 8.347656h312.371094c4.613281 0 8.351562-3.738281 8.351562-8.347656zm0 0" fill="#fff" data-original="#FFF"/><path d="m57.171875 444.570312c-4.609375 0-8.347656 3.738282-8.347656 8.347657 0 4.613281 3.738281 8.351562 8.347656 8.351562h200.578125c4.613281 0 8.347656-3.738281 8.347656-8.351562 0-4.609375-3.734375-8.347657-8.347656-8.347657zm0 0" fill="#fff" data-original="#FFF"/><path d="m503.652344.5h-495.304688c-4.609375 0-8.347656 3.738281-8.347656 8.347656v490.242188c0 4.613281 3.738281 8.347656 8.347656 8.347656h370.289063c4.609375 0 8.347656-3.734375 8.347656-8.347656 0-4.609375-3.738281-8.347656-8.347656-8.347656h-361.941407v-408.140626h478.609376v408.144532h-66.292969c-4.613281 0-8.347657 3.734375-8.347657 8.347656 0 4.609375 3.734376 8.347656 8.347657 8.347656h74.640625c4.609375 0 8.347656-3.738281 8.347656-8.347656v-490.246094c0-4.609375-3.738281-8.347656-8.347656-8.347656zm-242.785156 65.40625h-244.171876v-48.710938h244.171876zm234.4375 0h-217.742188v-48.710938h217.742188zm0 0" fill="#434c54" data-original="#434C54" class=""/><path d="m175.882812 33.203125h-128.359374c-4.609376 0-8.347657 3.738281-8.347657 8.347656 0 4.613281 3.738281 8.347657 8.347657 8.347657h128.359374c4.609376 0 8.347657-3.734376 8.347657-8.347657 0-4.609375-3.738281-8.347656-8.347657-8.347656zm0 0" fill="#c1c8d2" data-original="#C1C8D2" class=""/></g> </svg>
