<?xml version="1.0"?>
<svg xmlns="http://www.w3.org/2000/svg" xmlns:xlink="http://www.w3.org/1999/xlink" version="1.1" id="Capa_1" x="0px" y="0px" viewBox="0 0 512 512" style="enable-background:new 0 0 512 512;" xml:space="preserve" width="512px" height="512px" class=""><g><rect x="8.997" y="72.898" style="fill:#9170C6" width="494.015" height="365.686" data-original="#76FFD9" class="" data-old_color="#76FFD9"/><polygon style="fill:#FFFFFF;" points="503.012,72.898 503.012,438.584 196.401,438.584 298.932,72.898 " data-original="#FFFFFF"/><rect x="8.997" y="72.898" style="fill:#C34BCA" width="494.015" height="55.144" data-original="#FFA816" class="" data-old_color="#FFA816"/><polygon style="fill:#F216FF" points="503.012,72.898 503.012,128.042 283.468,128.042 298.932,72.898 " data-original="#FFC843" class="active-path" data-old_color="#FFC843"/><g>
	<path style="fill:#434C54;" d="M503.009,64.167H8.991C4.025,64.167,0,68.193,0,73.158v106.691c0,4.965,4.025,8.991,8.991,8.991   s8.991-4.025,8.991-8.991v-97.7h476.037v347.702h-19.661c-4.965,0-8.991,4.026-8.991,8.991c0,4.965,4.026,8.991,8.991,8.991h28.652   c4.965,0,8.991-4.025,8.991-8.991V73.158C512,68.193,507.975,64.167,503.009,64.167z" data-original="#434C54" class=""/>
	<path style="fill:#434C54;" d="M442.59,429.852H17.982V213.415c0-4.965-4.025-8.991-8.991-8.991S0,208.449,0,213.415v225.427   c0,4.965,4.025,8.991,8.991,8.991H442.59c4.965,0,8.991-4.025,8.991-8.991C451.581,433.877,447.555,429.852,442.59,429.852z" data-original="#434C54" class=""/>
</g><g>
	<path style="fill:#4A1C94" d="M85.955,161.867H49.991c-4.965,0-8.991,4.025-8.991,8.991s4.025,8.991,8.991,8.991h35.963   c4.965,0,8.991-4.025,8.991-8.991S90.92,161.867,85.955,161.867z" data-original="#00A97D" class="" data-old_color="#00A97D"/>
	<path style="fill:#4A1C94" d="M85.955,199.529H49.991c-4.965,0-8.991,4.025-8.991,8.991c0,4.965,4.025,8.991,8.991,8.991h35.963   c4.965,0,8.991-4.025,8.991-8.991C94.945,203.555,90.92,199.529,85.955,199.529z" data-original="#00A97D" class="" data-old_color="#00A97D"/>
	<path style="fill:#4A1C94" d="M85.955,237.19H49.991c-4.965,0-8.991,4.025-8.991,8.991c0,4.965,4.025,8.991,8.991,8.991h35.963   c4.965,0,8.991-4.025,8.991-8.991C94.945,241.216,90.92,237.19,85.955,237.19z" data-original="#00A97D" class="" data-old_color="#00A97D"/>
	<path style="fill:#4A1C94" d="M85.955,274.852H49.991c-4.965,0-8.991,4.026-8.991,8.991c0,4.965,4.025,8.991,8.991,8.991h35.963   c4.965,0,8.991-4.025,8.991-8.991C94.945,278.877,90.92,274.852,85.955,274.852z" data-original="#00A97D" class="" data-old_color="#00A97D"/>
	<path style="fill:#4A1C94" d="M85.955,312.514H49.991c-4.965,0-8.991,4.025-8.991,8.991s4.025,8.991,8.991,8.991h35.963   c4.965,0,8.991-4.025,8.991-8.991S90.92,312.514,85.955,312.514z" data-original="#00A97D" class="" data-old_color="#00A97D"/>
	<path style="fill:#4A1C94" d="M85.955,350.174H49.991c-4.965,0-8.991,4.025-8.991,8.991s4.025,8.991,8.991,8.991h35.963   c4.965,0,8.991-4.025,8.991-8.991S90.92,350.174,85.955,350.174z" data-original="#00A97D" class="" data-old_color="#00A97D"/>
	<path style="fill:#4A1C94" d="M85.955,387.836H49.991c-4.965,0-8.991,4.025-8.991,8.991c0,4.965,4.025,8.991,8.991,8.991h35.963   c4.965,0,8.991-4.025,8.991-8.991C94.945,391.862,90.92,387.836,85.955,387.836z" data-original="#00A97D" class="" data-old_color="#00A97D"/>
	<path style="fill:#4A1C94" d="M144.694,161.867c-4.965,0-8.991,4.025-8.991,8.991s4.025,8.991,8.991,8.991h125.871   c4.965,0,8.991-4.025,8.991-8.991s-4.025-8.991-8.991-8.991H144.694z" data-original="#00A97D" class="" data-old_color="#00A97D"/>
	<path style="fill:#4A1C94" d="M448.134,199.529h-303.44c-4.965,0-8.991,4.025-8.991,8.991c0,4.965,4.025,8.991,8.991,8.991h303.44   c4.965,0,8.991-4.025,8.991-8.991C457.125,203.555,453.099,199.529,448.134,199.529z" data-original="#00A97D" class="" data-old_color="#00A97D"/>
	<path style="fill:#4A1C94" d="M144.694,255.172h179.816c4.965,0,8.991-4.025,8.991-8.991c0-4.965-4.025-8.991-8.991-8.991H144.694   c-4.965,0-8.991,4.025-8.991,8.991C135.704,251.146,139.729,255.172,144.694,255.172z" data-original="#00A97D" class="" data-old_color="#00A97D"/>
	<path style="fill:#4A1C94" d="M448.134,274.852h-303.44c-4.965,0-8.991,4.026-8.991,8.991c0,4.965,4.025,8.991,8.991,8.991h303.44   c4.965,0,8.991-4.025,8.991-8.991C457.125,278.877,453.099,274.852,448.134,274.852z" data-original="#00A97D" class="" data-old_color="#00A97D"/>
	<path style="fill:#4A1C94" d="M216.621,312.514h-71.926c-4.965,0-8.991,4.025-8.991,8.991s4.025,8.991,8.991,8.991h71.926   c4.965,0,8.991-4.025,8.991-8.991S221.586,312.514,216.621,312.514z" data-original="#00A97D" class="" data-old_color="#00A97D"/>
	<path style="fill:#4A1C94" d="M409.024,359.165c0-4.965-4.025-8.991-8.991-8.991H144.694c-4.965,0-8.991,4.025-8.991,8.991   s4.025,8.991,8.991,8.991h255.339C404.999,368.156,409.024,364.131,409.024,359.165z" data-original="#00A97D" class="" data-old_color="#00A97D"/>
	<path style="fill:#4A1C94" d="M144.694,387.836c-4.965,0-8.991,4.025-8.991,8.991c0,4.965,4.025,8.991,8.991,8.991h157.039   c4.965,0,8.991-4.025,8.991-8.991c0-4.965-4.025-8.991-8.991-8.991H144.694z" data-original="#00A97D" class="" data-old_color="#00A97D"/>
</g><g>
	<circle style="fill:#FFFFFF;" cx="39.202" cy="101.932" r="8.991" data-original="#FFFFFF"/>
	<circle style="fill:#FFFFFF;" cx="97.34" cy="101.932" r="8.991" data-original="#FFFFFF"/>
	<circle style="fill:#FFFFFF;" cx="68.273" cy="101.932" r="8.991" data-original="#FFFFFF"/>
</g></g> </svg>
