<?xml version="1.0"?>
<svg xmlns="http://www.w3.org/2000/svg" xmlns:xlink="http://www.w3.org/1999/xlink" version="1.1" id="Capa_1" x="0px" y="0px" viewBox="0 0 512 512" style="enable-background:new 0 0 512 512;" xml:space="preserve" width="512px" height="512px" class=""><g><path style="fill:#AFB9D2;" d="M407.47,216.547l24.252-17.97l-19.634-47.401l-29.856,4.442  c-10.547-15.161-23.573-27.967-38.263-38.188l4.452-29.923l-47.401-19.632l-18.01,24.307c-17.614-3.16-35.882-3.317-54.059-0.053  l-17.968-24.253l-47.402,19.635l4.442,29.856c-15.16,10.547-27.965,23.573-38.187,38.263l-29.923-4.453l-19.635,47.401l24.307,18.01  c-3.161,17.615-3.317,35.882-0.055,54.059l-24.252,17.97l19.635,47.401l29.856-4.442c10.547,15.161,23.573,27.967,38.263,38.187  l-4.452,29.923l47.402,19.634l18.009-24.306l1.357,0.001v-79.002c-29.87-10.576-51.307-38.992-51.307-72.487  c0-42.503,34.456-76.96,76.96-76.96c42.505,0,76.96,34.457,76.96,76.96c0,33.495-21.437,61.911-51.307,72.487v79.051l1.397,0.001  l17.969,24.253l47.402-19.634l-4.442-29.856c15.16-10.547,27.968-23.573,38.188-38.263l29.922,4.452l19.634-47.401l-24.307-18.01  C410.576,252.991,410.732,234.725,407.47,216.547z" data-original="#AFB9D2"/><path style="fill:#FFFFFF;" d="M230.347,25.119v393.353l22.704,83.25c0.819,3.004,5.078,3.004,5.898,0l22.704-83.25V25.119  c0-9.446-7.656-17.102-17.102-17.102h-17.102C238.003,8.017,230.347,15.674,230.347,25.119z" data-original="#FFFFFF"/><g>
	<rect x="230.347" y="50.772" style="fill:#8958BE" width="51.307" height="367.699" data-original="#FFC850" class="active-path" data-old_color="#FFC850"/>
	<rect x="230.347" y="50.772" style="fill:#8958BE" width="25.653" height="367.699" data-original="#FFC850" class="active-path" data-old_color="#FFC850"/>
</g><path style="fill:#E4EAF8;" d="M230.347,418.472L230.347,418.472l22.704,83.25c0.409,1.502,1.679,2.252,2.949,2.252v-85.502H230.347  z" data-original="#E4EAF8" class=""/><path style="fill:#FFFFFF;" d="M407.47,216.547l24.252-17.97l-19.634-47.401l-29.856,4.442  c-10.547-15.161-23.573-27.967-38.263-38.188l4.452-29.923l-47.401-19.632l-18.01,24.307c-17.614-3.16-35.882-3.317-54.059-0.053  l-17.968-24.253l-47.402,19.635l4.442,29.856c-15.16,10.547-27.965,23.573-38.187,38.263l-29.923-4.453l-19.635,47.401l24.307,18.01  c-3.161,17.615-3.317,35.882-0.055,54.059l-24.252,17.97l19.635,47.401l29.856-4.442c10.547,15.161,23.573,27.967,38.263,38.187  l-4.452,29.923l47.402,19.634l18.009-24.306l1.357,0.001v-79.002c-29.87-10.576-51.307-38.992-51.307-72.487  c0-42.503,34.456-76.96,76.96-76.96c42.505,0,76.96,34.457,76.96,76.96c0,33.495-21.437,61.911-51.307,72.487v79.051l1.397,0.001  l17.969,24.253l47.402-19.634l-4.442-29.856c15.16-10.547,27.968-23.573,38.188-38.263l29.922,4.452l19.634-47.401l-24.307-18.01  C410.576,252.991,410.732,234.725,407.47,216.547z" data-original="#FFFFFF"/><path style="fill:#E4EAF8;" d="M256,50.772h-25.653V25.119c0-9.446,7.656-17.102,17.102-17.102H256V50.772z" data-original="#E4EAF8" class=""/><path style="fill:#CC2BA8" d="M358.704,201.056c-25.075-60.534-97.451-87.144-156.553-54.735  c-44.387,24.339-66.848,77.276-53.532,126.115c8.693,31.881,29.813,55.788,56.075,69.435v74.843l6.288,2.605l18.009-24.306  l1.357,0.001v-79.002c-29.87-10.576-51.307-38.992-51.307-72.487c0-42.503,34.456-76.96,76.96-76.96  c42.505,0,76.96,34.457,76.96,76.96c0,33.495-21.437,61.911-51.307,72.487v79.051l1.397,0.001l17.969,24.253l6.288-2.605v-74.645  C357.916,315.759,380.94,254.74,358.704,201.056z" data-original="#ABFFDB" class="" data-old_color="#ABFFDB"/><path style="fill:#474D54" d="M436.494,282.174l-20.377-15.098c2.325-15.684,2.343-31.45,0.051-46.996l20.326-15.061  c2.956-2.19,4.042-6.111,2.634-9.509l-19.634-47.401c-1.408-3.399-4.952-5.405-8.586-4.861l-25.022,3.723  c-9.373-12.613-20.532-23.748-33.269-33.196l3.734-25.086c0.541-3.639-1.463-7.179-4.861-8.586l-47.401-19.633  c-3.398-1.408-7.32-0.322-9.509,2.634l-4.908,6.623V25.119C289.67,11.268,278.402,0,264.551,0h-17.102  c-13.851,0-25.119,11.268-25.119,25.119v44.607l-4.908-6.624c-2.189-2.955-6.11-4.041-9.509-2.634l-47.401,19.633  c-3.399,1.408-5.403,4.948-4.861,8.586l3.723,25.023c-12.612,9.373-23.747,20.531-33.194,33.268l-25.086-3.733  c-3.64-0.543-7.179,1.463-8.586,4.861l-19.635,47.401c-1.408,3.399-0.322,7.32,2.634,9.509l20.377,15.098  c-2.325,15.684-2.342,31.45-0.051,46.996l-20.326,15.061c-2.955,2.19-4.041,6.111-2.634,9.509l19.635,47.402  c1.408,3.399,4.952,5.404,8.586,4.861l25.023-3.723c9.373,12.613,20.531,23.748,33.268,33.196l-3.734,25.086  c-0.541,3.639,1.463,7.179,4.861,8.586l47.401,19.634c3.399,1.408,7.32,0.322,9.509-2.634l4.908-6.624v1.005  c0,0.78,0.113,1.556,0.338,2.303l25.653,85.511C249.339,509.677,252.46,512,256,512c3.54,0,6.661-2.323,7.679-5.713l25.653-85.511  c0.224-0.747,0.338-1.523,0.338-2.303v-1.005l4.908,6.624c1.548,2.09,3.961,3.245,6.443,3.245c1.028,0,2.069-0.199,3.066-0.61  l47.401-19.634c3.399-1.408,5.403-4.948,4.861-8.586l-3.723-25.023c12.613-9.373,23.749-20.533,33.196-33.268l25.085,3.733  c3.64,0.543,7.179-1.463,8.586-4.861l19.634-47.401C440.536,288.285,439.45,284.364,436.494,282.174z M273.637,58.789v23.934  c-11.777-1.314-23.576-1.331-35.273-0.048V58.789V42.756V25.119c0-5.01,4.076-9.086,9.086-9.086h17.102  c5.01,0,9.086,4.076,9.086,9.086v17.637V58.789z M222.33,303.75c-13.41-7.526-24.082-19.421-30.025-33.77  c-13.5-32.592-0.047-69.723,30.025-86.53V303.75z M238.363,410.455V176.963c11.837-3.14,23.967-2.982,35.273,0.026v233.467  l-0.223,7.585L256,476.084l-17.398-57.995L238.363,410.455z M407.076,327.167l-23.73-3.531c-3.015-0.449-6.021,0.85-7.761,3.351  c-9.92,14.259-22.095,26.459-36.185,36.261c-2.501,1.74-3.8,4.747-3.351,7.761l3.521,23.665l-35.836,14.844l-14.063-18.982v-68.94  c20.412-8.802,36.314-24.898,44.839-45.479c8.686-20.971,8.686-44.068,0-65.039c-17.932-43.289-67.738-63.919-111.028-45.989  c-43.29,17.932-63.92,67.739-45.989,111.028c8.449,20.398,24.65,36.771,44.838,45.5v68.92l-14.064,18.981l-35.836-14.844  l3.532-23.73c0.448-3.013-0.85-6.021-3.351-7.761c-14.259-9.921-26.459-22.096-36.261-36.185c-1.74-2.501-4.747-3.801-7.761-3.351  l-23.665,3.521l-14.844-35.836l19.223-14.243c2.449-1.814,3.657-4.859,3.118-7.858c-3.031-16.894-3.014-34.13,0.053-51.227  c0.538-2.999-0.669-6.044-3.118-7.857l-19.278-14.284l14.844-35.836l23.73,3.531c3.013,0.448,6.02-0.85,7.76-3.35  c9.923-14.26,22.097-26.46,36.185-36.261c2.501-1.739,3.8-4.747,3.351-7.76l-3.521-23.665l35.836-14.844L222.507,96.9  c1.814,2.449,4.857,3.656,7.857,3.118c16.892-3.031,34.127-3.014,51.227,0.053c2.997,0.538,6.042-0.67,7.856-3.118l14.284-19.277  l35.836,14.844l-3.532,23.732c-0.448,3.013,0.85,6.02,3.351,7.76c14.26,9.921,26.459,22.096,36.261,36.185  c1.74,2.501,4.749,3.802,7.761,3.351l23.665-3.521l14.844,35.835l-19.223,14.244c-2.449,1.814-3.657,4.858-3.118,7.857  c3.031,16.895,3.014,34.13-0.053,51.227c-0.538,2.999,0.669,6.044,3.118,7.857l19.277,14.284L407.076,327.167z M289.67,303.749  v-120.26c13.065,7.301,23.867,18.856,30.025,33.725c7.047,17.014,7.047,35.753,0,52.767  C313.691,284.476,303.172,296.225,289.67,303.749z" data-original="#474D54" class="" data-old_color="#474D54"/></g> </svg>
