<?xml version="1.0"?>
<svg xmlns="http://www.w3.org/2000/svg" height="512px" viewBox="0 -8 511.99945 511" width="512px" class="hovered-paths"><g><path d="m378.03125 488.578125c-8.0625 0-16.15625-1.9375-23.570312-5.859375l-98.460938-52.128906-98.464844 52.128906c-7.410156 3.921875-15.507812 5.859375-23.570312 5.859375-10.503906 0-20.953125-3.285156-29.78125-9.742187-15.601563-11.414063-23.414063-30.757813-20.152344-49.898438l18.804688-110.40625-79.660157-78.1875c-13.808593-13.554688-18.777343-33.828125-12.820312-52.296875 5.960937-18.464844 21.8125-31.925781 40.894531-34.71875l110.085938-16.105469 49.234374-100.453125c8.53125-17.410156 26.144532-28.433593 45.429688-28.433593 19.28125 0 36.894531 11.023437 45.425781 28.433593l49.234375 100.453125 110.085938 16.105469c19.082031 2.792969 34.933594 16.253906 40.894531 34.71875 5.957031 18.46875.988281 38.742187-12.820313 52.296875l-79.65625 78.1875 18.804688 110.40625c3.257812 19.140625-4.554688 38.480469-20.15625 49.898438-8.824219 6.457031-19.273438 9.742187-29.78125 9.742187zm0 0" fill="#ffc843" data-original="#FFC843" style="fill:#C4A2F5" class="" data-old_color="#ffc843"/><path d="m166.730469 477.316406c-10.503907.003906-20.957031-3.285156-29.78125-9.742187-15.601563-11.414063-23.414063-30.753907-20.15625-49.894531l18.804687-110.40625-79.65625-78.191407c-13.808594-13.554687-18.78125-33.824219-12.820312-52.292969 3.25-10.078124 9.453125-18.65625 17.511718-24.832031l-9.378906 1.371094c-19.082031 2.792969-34.9375 16.253906-40.894531 34.71875-5.960937 18.46875-.992187 38.742187 12.816406 52.296875l79.660157 78.1875-18.804688 110.40625c-3.257812 19.140625 4.554688 38.480469 20.152344 49.898438 8.828125 6.457031 19.277344 9.742187 29.785156 9.742187 8.0625 0 16.15625-1.9375 23.570312-5.859375l10.261719-5.433594c-.359375.007813-.714843.03125-1.070312.03125zm0 0" fill="#ffa816" data-original="#FFA816" style="fill:#7D58B1" class="hovered-path active-path" data-old_color="#ffa816"/><path d="m501.640625 188.050781c-5.957031-18.46875-21.8125-31.929687-40.894531-34.722656l-110.085938-16.105469 66.46875 16.105469c19.082032 2.792969 34.9375 16.253906 40.894532 34.722656 5.960937 18.464844.992187 38.738281-12.816407 52.292969l-79.660156 78.191406 18.804687 110.40625c3.257813 19.136719-4.554687 38.480469-20.152343 49.894532-2.527344 1.851562-5.195313 3.429687-7.953125 4.757812 6.917968 3.320312 14.363281 4.984375 21.789062 4.984375 10.503906 0 20.957032-3.285156 29.78125-9.742187 15.601563-11.414063 23.414063-30.757813 20.15625-49.894532l-18.808594-110.40625 79.660157-78.191406c13.808593-13.554688 18.777343-33.828125 12.816406-52.292969zm0 0" fill="#fff" data-original="#FFF" style="fill:#FFF"/><g fill="#434c54"><path d="m256 321.421875c-24.824219 0-45.023438-20.195313-45.023438-45.023437 0-4.328126-3.507812-7.835938-7.835937-7.835938-4.324219 0-7.835937 3.507812-7.835937 7.835938 0 33.46875 27.230468 60.695312 60.695312 60.695312s60.695312-27.226562 60.695312-60.695312c0-4.328126-3.507812-7.835938-7.835937-7.835938s-7.835937 3.507812-7.835937 7.835938c0 24.828124-20.199219 45.023437-45.023438 45.023437zm0 0" data-original="#434C54" class="" style="fill:#434C54" data-old_color="#434C54"/><path d="m221.5625 222.753906c0 10.613282-8.605469 19.21875-19.222656 19.21875-10.617188 0-19.222656-8.605468-19.222656-19.21875 0-10.617187 8.605468-19.222656 19.222656-19.222656 10.617187 0 19.222656 8.605469 19.222656 19.222656zm0 0" data-original="#434C54" class="" style="fill:#434C54" data-old_color="#434C54"/><path d="m328.878906 222.753906c0 10.613282-8.605468 19.21875-19.21875 19.21875-10.617187 0-19.222656-8.605468-19.222656-19.21875 0-10.617187 8.605469-19.222656 19.222656-19.222656 10.613282 0 19.21875 8.605469 19.21875 19.222656zm0 0" data-original="#434C54" class="" style="fill:#434C54" data-old_color="#434C54"/><path d="m509.097656 185.644531c-6.925781-21.46875-25.019531-36.820312-47.21875-40.066406l-106-15.511719-47.414062-96.742187c-9.921875-20.246094-30.027344-32.824219-52.464844-32.824219s-42.542969 12.578125-52.464844 32.824219l-47.414062 96.742187-106.003906 15.511719c-22.195313 3.246094-40.289063 18.597656-47.214844 40.066406-6.921875 21.441407-1.253906 44.546875 14.785156 60.292969l76.738281 75.320312-18.121093 106.367188c-3.785157 22.226562 5.125 44.269531 23.253906 57.535156 10.0625 7.363282 21.957031 11.253906 34.402344 11.253906v-15.671874h-.003907c-9.089843 0-17.785156-2.84375-25.148437-8.230469-13.300782-9.730469-19.835938-25.921875-17.054688-42.253907l19.492188-114.445312-82.582032-81.058594c-11.777343-11.5625-15.933593-28.535156-10.847656-44.296875 5.078125-15.742187 18.324219-26.996093 34.570313-29.371093l114.171875-16.707032 51.046875-104.15625c7.269531-14.835937 21.984375-24.050781 38.394531-24.050781s31.121094 9.214844 38.394531 24.050781l51.046875 104.15625 114.171875 16.707032c16.246094 2.375 29.492188 13.628906 34.570313 29.371093 5.085937 15.761719.929687 32.734375-10.847656 44.296875l-82.582032 81.058594 19.492188 114.441406c2.777344 16.332032-3.757813 32.523438-17.058594 42.257813-7.359375 5.382812-16.058594 8.230469-25.15625 8.230469-6.902344 0-13.785156-1.710938-19.902344-4.949219l-102.128906-54.066407-102.128906 54.066407c-6.117188 3.238281-13 4.949219-19.90625 4.949219l-.003906 7.835937.003906 7.835937c9.449218 0 18.871094-2.34375 27.238281-6.769531l94.796875-50.1875 94.796875 50.1875c8.367187 4.425781 17.785156 6.769531 27.234375 6.769531 12.449219 0 24.347656-3.894531 34.410156-11.257812 18.125-13.261719 27.035156-35.304688 23.253906-57.53125l-18.121093-106.371094 76.738281-75.320312c16.039062-15.742188 21.707031-38.84375 14.785156-60.289063zm0 0" data-original="#434C54" class="" style="fill:#434C54" data-old_color="#434C54"/></g></g> </svg>
