<?xml version="1.0"?>
<svg xmlns="http://www.w3.org/2000/svg" height="512px" viewBox="0 -12 512.00082 512" width="512px" class="hovered-paths"><g><path d="m58.167969 408.914062-49.132813 49.148438c-2.03125 2.03125-1.421875 4.304688 1.351563 5.050781l60.921875 16.347657c2.777344.746093 6.710937-.308594 8.742187-2.339844l23.152344-23.160156zm0 0" fill="#d8e0ea" data-original="#D8E0EA"/><path d="m58.167969 408.914062-49.132813 49.148438c-2.03125 2.03125-1.421875 4.304688 1.351563 5.050781l23.941406 6.421875 42.21875-42.234375zm0 0" fill="#c1c8d2" data-original="#C1C8D2"/><path d="m85.253906 370.5625-29.019531 29.027344c-2.03125 2.03125-2.03125 5.355468 0 7.390625l48.902344 48.917969c2.03125 2.03125 5.359375 2.03125 7.390625 0l29.015625-29.027344zm0 0" fill="#76ffd9" data-original="#76FFD9" class="" style="fill:#E05AB5" data-old_color="#76ffd9"/><path d="m107.988281 393.308594-22.738281-22.746094-29.015625 29.027344c-2.03125 2.03125-2.03125 5.355468 0 7.390625l20.996094 21.003906c-.507813-1.804687-.082031-3.824219 1.328125-5.234375zm0 0" fill="#5de0bf" data-original="#5DE0BF" class="" data-old_color="#5de0bf" style="fill:#DC129B"/><path d="m220.726562 403.460938-112.070312-112.105469c-.855469-.851563-1.574219-1.785157-2.1875-2.769531l-24.78125 78.414062 63.417969 63.4375 78.390625-24.789062c-.984375-.613282-1.917969-1.335938-2.769532-2.1875zm0 0" fill="#76ffd9" data-original="#76FFD9" class="" style="fill:#E05AB5" data-old_color="#76ffd9"/><path d="m108.65625 291.355469c-.855469-.851563-1.574219-1.785157-2.1875-2.769531l-24.78125 78.414062 25.382812 25.386719 24.636719-77.96875zm0 0" fill="#5de0bf" data-original="#5DE0BF" class="" data-old_color="#5de0bf" style="fill:#DC129B"/><path d="m365.351562 12.410156c6.09375-6.097656 16.070313-6.097656 22.164063 0l112.070313 112.105469c6.09375 6.09375 6.09375 16.074219 0 22.167969l-256.695313 256.777344c-6.097656 6.097656-16.070313 6.097656-22.164063 0l-112.070312-112.105469c-6.097656-6.097657-6.097656-16.074219 0-22.167969zm0 0" fill="#ffc843" data-original="#FFC843" class="hovered-path active-path" style="fill:#9256BE" data-old_color="#ffc843"/><path d="m134.710938 295.242188 256.699218-256.773438c5.742188-5.75 14.933594-6.074219 21.074219-.984375.054687.023437.109375.042969.164063.066406l-25.132813-25.140625c-6.09375-6.097656-16.070313-6.097656-22.164063 0l-256.695312 256.773438c-6.097656 6.097656-6.097656 16.074218 0 22.171875l25.15625 25.164062c-.03125-.0625-.050781-.128906-.078125-.191406-5.09375-6.140625-4.769531-15.335937.976563-21.085937zm0 0" fill="#ffb400" data-original="#FFB400" class="" data-old_color="#ffb400" style="fill:#7B21BE"/><path d="m346.125 31.644531 134.230469 134.277344-218.238281 218.304687-134.234376-134.277343zm0 0" fill="#fff" data-original="#FFF"/><path d="m346.125 31.644531 25.445312 25.492188-218.265624 218.277343-25.449219-25.488281zm0 0" fill="#e1eaf8" data-original="#E1EAF8"/><path d="m337.6875 136.242188c2.03125-2.035157 5.355469-2.035157 7.386719 0l30.71875 30.726562c2.03125 2.03125 2.03125 5.359375 0 7.390625l-100.003907 100.027344c-2.03125 2.03125-5.355468 2.03125-7.386718 0l-30.714844-30.726563c-2.03125-2.03125-2.03125-5.359375 0-7.390625zm0 0" fill="#fff" data-original="#FFF"/><path d="m337.6875 136.242188c2.03125-2.035157 5.355469-2.035157 7.386719 0l30.71875 30.726562c2.03125 2.03125 2.03125 5.359375 0 7.390625l-100.003907 100.027344c-2.03125 2.03125-5.355468 2.03125-7.386718 0l-30.714844-30.726563c-2.03125-2.03125-2.03125-5.359375 0-7.390625zm0 0" fill="#76ffd9" data-original="#76FFD9" class="" style="fill:#E05AB5" data-old_color="#76ffd9"/><path d="m255.0625 255.128906 101.480469-101.507812c1.203125-1.203125 2.847656-1.683594 4.421875-1.484375l-15.890625-15.894531c-2.03125-2.03125-5.355469-2.03125-7.386719 0l-100 100.03125c-2.03125 2.03125-2.03125 5.355468 0 7.386718l15.898438 15.902344c-.207032-1.578125.273437-3.226562 1.476562-4.433594zm0 0" fill="#5de0bf" data-original="#5DE0BF" class="" data-old_color="#5de0bf" style="fill:#DC129B"/><path d="m505.125 118.972656-112.066406-112.101562c-4.429688-4.429688-10.332032-6.871094-16.625-6.871094-6.289063 0-12.195313 2.441406-16.621094 6.871094l-256.699219 256.773437c-6.917969 6.917969-8.605469 17.109375-5.082031 25.636719l-23.8125 75.359375c-.589844 1.855469-.441406 3.824219.328125 5.546875l-23.855469 23.863281c-3.8125 3.8125-4.769531 9.417969-2.871094 14.132813l-44.324218 44.339844c-2.957032 2.957031-4.136719 6.910156-3.15625 10.574218.980468 3.664063 3.976562 6.5 8.015625 7.582032l60.921875 16.351562c1.253906.335938 2.59375.507812 3.980468.507812 4.597657 0 9.328126-1.867187 12.335938-4.878906l18.34375-18.347656c1.535156.617188 3.1875.945312 4.894531.945312 3.492188 0 6.773438-1.355468 9.238281-3.820312l23.84375-23.855469c1.003907.449219 2.09375.6875 3.195313.6875.789063 0 1.585937-.117187 2.363281-.363281l19.984375-6.320312c4.125-1.304688 6.414063-5.707032 5.109375-9.835938-1.304687-4.125-5.710937-6.414062-9.835937-5.109375l-15.445313 4.886719-56.6875-56.707032 19.316406-61.125 98.480469 98.507813-10.136719 3.207031c-4.128906 1.304688-6.414062 5.707032-5.109374 9.832032 1.304687 4.128906 5.707031 6.417968 9.832031 5.109374l19.808593-6.261718c2.820313 1.167968 5.871094 1.777344 9.019532 1.777344 6.292968 0 12.195312-2.4375 16.625-6.867188l49.960937-49.976562c3.058594-3.0625 3.058594-8.023438-.003906-11.082032-3.0625-3.0625-8.023437-3.0625-11.082031 0l-49.960938 49.976563c-1.464844 1.46875-3.433594 2.277343-5.539062 2.277343-2.105469 0-4.070313-.808593-5.539063-2.277343l-112.074219-112.101563c-3.054687-3.058594-3.054687-8.035156 0-11.089844l256.699219-256.777343c1.46875-1.464844 3.433594-2.277344 5.539063-2.277344 2.105468 0 4.070312.8125 5.539062 2.277344l112.070313 112.105469c3.058593 3.058593 3.058593 8.03125 0 11.089843l-182.707031 182.765625c-3.0625 3.0625-3.058594 8.023438 0 11.082032 3.0625 3.058593 8.023437 3.058593 11.082031 0l182.710937-182.765626c9.164063-9.167968 9.164063-24.085937-.003906-33.253906zm-430.539062 352.53125c-.242188.15625-.855469.363282-1.328126.363282h-.027343l-52.753907-14.160157 37.691407-37.707031 15.582031 15.585938-10.652344 10.652343c-3.058594 3.058594-3.058594 8.023438.003906 11.082031 1.53125 1.527344 3.535157 2.292969 5.539063 2.292969 2.007813 0 4.011719-.765625 5.542969-2.296875l10.644531-10.648437 7.292969 7.292969zm55.875-44.632812-21.628907 21.636718-45.210937-45.222656 21.628906-21.636718zm0 0" fill="#434c54" data-original="#434C54" class="" style="fill:#544352" data-old_color="#434c54"/></g> </svg>
