<svg xmlns="http://www.w3.org/2000/svg" viewBox="0 0 268.54 241.36"><defs><style>.cls-1{fill:#83ccbb;}.cls-2{fill:#6eb5bb;}.cls-3{opacity:0.2;}.cls-4{fill:#fff;}.cls-5{fill:#0073aa;}.cls-6{fill:#d4ecf0;}.cls-7{fill:#927fd9;}.cls-8{fill:#fbeec1;}.cls-9{opacity:0.3;}.cls-10{fill:#c7e4ea;}.cls-11{opacity:0.6;}.cls-12{fill:#e55c80;}.cls-13{fill:#89b7ed;}.cls-14{fill:#85b1e6;}.cls-15{opacity:0.4;}.cls-16{fill:#ffd02e;}.cls-17{fill:#4d3d99;}.cls-18{fill:#d2004b;}.cls-19{fill:#f20056;}.cls-20{fill:#fff3f7;}.cls-21{fill:#ffebf1;}.cls-22{fill:#5f020d;}</style></defs><title>Asset 2</title><g id="Layer_2" data-name="Layer 2"><g id="Layer_1-2" data-name="Layer 1"><path class="cls-1" d="M35.16,150.17l48.5,70.53a26.1,26.1,0,0,0,4.85-4.56,25.6,25.6,0,0,0,6.28-18.35,32.46,32.46,0,0,0-3.74-12.74,48.17,48.17,0,0,0-3.33-5.55S80.22,168.59,35.16,150.17Z"/><path class="cls-2" d="M43.73,209.75c18.12,26.36,39.93,10.95,39.93,10.95l-48.5-70.53c.21,9.68.68,17.87,1.3,24.77.41,4.68.89,8.76,1.41,12.32,1.64,11.52,3.64,17.58,4.83,20.4A13.45,13.45,0,0,0,43.73,209.75Z"/><g class="cls-3"><path class="cls-4" d="M43.73,209.75c18.12,26.36,39.93,10.95,39.93,10.95a26.1,26.1,0,0,0,4.85-4.56,25.6,25.6,0,0,0,6.28-18.35L37.87,187.26c1.64,11.52,3.64,17.58,4.83,20.4A13.45,13.45,0,0,0,43.73,209.75Z"/></g><g class="cls-3"><path class="cls-4" d="M42.7,207.66l36.66,6.79,9.15,1.69a25.6,25.6,0,0,0,6.28-18.35,32.46,32.46,0,0,0-3.74-12.74l-29.76-5.5-6.8-1.27-2.56-.47-.43-.08-15-2.79c.41,4.68.89,8.76,1.41,12.32C39.51,198.78,41.51,204.84,42.7,207.66Z"/></g><path class="cls-4" d="M75.52,209.4h-.1a.57.57,0,0,1-.46-.66l5.29-28.58a.57.57,0,0,1,1.12.21l-5.29,28.58A.57.57,0,0,1,75.52,209.4Z"/><path class="cls-4" d="M65,194.11h-.1a.57.57,0,0,1-.45-.66l3-16.05a.56.56,0,1,1,1.11.2l-3,16A.57.57,0,0,1,65,194.11Z"/><path class="cls-4" d="M71.06,203H71l-28.58-5.29a.56.56,0,0,1-.45-.66.57.57,0,0,1,.66-.46l28.58,5.3a.56.56,0,0,1,.45.66A.57.57,0,0,1,71.06,203Z"/><path class="cls-4" d="M60.54,187.71h-.1l-16.06-3a.56.56,0,0,1,.21-1.11l16,3a.56.56,0,0,1-.1,1.12Z"/><path class="cls-4" d="M81.13,217.59a.57.57,0,0,1-.47-.25L45,165.52a.57.57,0,0,1,.94-.65L81.59,216.7a.57.57,0,0,1-.14.79A.63.63,0,0,1,81.13,217.59Z"/><path class="cls-5" d="M0,204.45,84.16,220a25.88,25.88,0,0,0,.21-6.65A25.52,25.52,0,0,0,75.83,196a32.18,32.18,0,0,0-11.65-6.37A50.45,50.45,0,0,0,57.9,188S44.89,185.61,0,204.45Z"/><path class="cls-2" d="M48.19,240.52c31.45,5.82,36-20.49,36-20.49L0,204.45c7,6.7,13.11,12.16,18.43,16.6,3.6,3,6.82,5.57,9.7,7.71,9.32,7,15,9.86,17.85,11A13.32,13.32,0,0,0,48.19,240.52Z"/><g class="cls-3"><path class="cls-4" d="M48.19,240.52c31.45,5.82,36-20.49,36-20.49a25.88,25.88,0,0,0,.21-6.65A25.52,25.52,0,0,0,75.83,196l-47.7,32.79c9.32,7,15,9.86,17.85,11A13.32,13.32,0,0,0,48.19,240.52Z"/></g><g class="cls-3"><path class="cls-4" d="M46,239.78,76.7,218.65l7.67-5.27A25.52,25.52,0,0,0,75.83,196a32.18,32.18,0,0,0-11.65-6.37L39.25,206.75l-5.71,3.91-2.14,1.48-.36.24-12.61,8.67c3.6,3,6.82,5.57,9.7,7.71C37.45,235.74,43.14,238.62,46,239.78Z"/></g><path class="cls-4" d="M70,218a.57.57,0,0,1-.47-.24l-16.47-24a.56.56,0,0,1,.15-.78.57.57,0,0,1,.79.14l16.46,24A.56.56,0,0,1,70,218Z"/><path class="cls-4" d="M51.77,214.58a.57.57,0,0,1-.47-.24l-9.25-13.45a.57.57,0,0,1,.15-.79.55.55,0,0,1,.78.15l9.25,13.45a.56.56,0,0,1-.46.88Z"/><path class="cls-4" d="M38.39,233.07a.57.57,0,0,1-.47-.25.56.56,0,0,1,.15-.78l24-16.47a.56.56,0,0,1,.79.14.57.57,0,0,1-.15.79L38.71,233A.55.55,0,0,1,38.39,233.07Z"/><path class="cls-4" d="M30.64,222.47a.57.57,0,0,1-.47-.25.55.55,0,0,1,.15-.78l13.45-9.25a.56.56,0,1,1,.64.93L31,222.37A.55.55,0,0,1,30.64,222.47Z"/><path class="cls-4" d="M79.77,219.79h-.1L17.82,208.33a.57.57,0,0,1,.21-1.12l61.84,11.45a.57.57,0,0,1-.1,1.13Z"/><path class="cls-6" d="M183.78,213.51c-.15,1.81-1.26,7-8.66,7H72.57a10.11,10.11,0,0,1-5-1.15,7.58,7.58,0,0,1-3.64-6.49V102.4c0-.41,0-.81,0-1.2.38-7.52,4.44-10.26,12-10.26,7.91,0,7.51-10.66,7.51-10.66V55h80.94V80.28s0,.35,0,.94c0,.06,0,.13,0,.2a15.68,15.68,0,0,0,.16,1.6c0,.1,0,.19.05.28s.07.44.12.67a2,2,0,0,0,.05.24l0,.08.09.37.12.44a.32.32,0,0,0,0,.09c.07.28.17.55.26.81s.13.34.21.5.13.3.19.44l0,.06.21.4,0,0c.08.13.15.26.24.39s.19.29.29.44.08.11.13.17l.14.17.06.08s0,0,0,0,.19.21.28.31h0l.37.35.36.3a.1.1,0,0,1,.05,0h0l.37.26c.14.09.3.17.45.25l.07,0,.21.09a.78.78,0,0,0,.21.09l0,0a3.19,3.19,0,0,0,.33.11l.26.08a1.17,1.17,0,0,0,.2.06l.19,0a6.18,6.18,0,0,0,.67.12l.53,0h1.8l.65,0,.37,0,.4,0,.72.1.48.08.76.16h0l.35.09h0l.43.12.34.12.39.14.39.17.13,0,0,0,.23.12.3.15s0,0,0,0l.35.19c.12.08.24.15.35.24a1.77,1.77,0,0,1,.17.12,1,1,0,0,1,.16.12,2.43,2.43,0,0,1,.25.2c.12.09.23.19.34.29s.16.15.23.23.09.09.13.15l.25.27a7.53,7.53,0,0,1,.84,1.22l.15.27.12.24c.07.14.13.28.19.43s.09.22.13.33a2.31,2.31,0,0,1,.1.28,5.94,5.94,0,0,1,.23.75h0a1.78,1.78,0,0,1,.09.33h0c0,.15.08.3.11.46l.06.33a.37.37,0,0,0,0,.09c0,.11,0,.22,0,.34s0,.07,0,.11v0c0,.2.06.41.08.62a.38.38,0,0,0,0,.1,0,0,0,0,0,0,0v.11l0,.34,0,.37v.18c0,.13,0,.26,0,.39s0,.5,0,.75V212.91A4.44,4.44,0,0,1,183.78,213.51Z"/><rect class="cls-7" x="69.62" y="55.16" width="119.99" height="10.07" transform="translate(61.08 185.61) rotate(-86.25)"/><polygon class="cls-8" points="137.93 10.42 137.13 22.53 126.43 31.92 127.22 19.81 137.93 10.42"/><polygon class="cls-8" points="136.24 36.21 135.44 48.31 124.74 57.7 125.53 45.6 136.24 36.21"/><polygon class="cls-8" points="134.55 62 133.75 74.11 123.05 83.49 123.84 71.39 134.55 62"/><polygon class="cls-8" points="132.86 87.79 132.07 99.9 121.36 109.29 122.15 97.18 132.86 87.79"/><g class="cls-9"><rect class="cls-4" x="69.62" y="57.92" width="119.99" height="4.56" transform="translate(61.08 185.61) rotate(-86.25)"/></g><rect class="cls-1" x="87.06" y="75.87" width="119.99" height="10.07" transform="translate(24.72 195.81) rotate(-72.02)"/><polygon class="cls-8" points="167.34 34.69 163.6 46.24 150.91 52.71 154.66 41.16 167.34 34.69"/><polygon class="cls-8" points="159.37 59.27 155.62 70.82 142.94 77.29 146.68 65.75 159.37 59.27"/><polygon class="cls-8" points="151.39 83.86 147.65 95.41 134.96 101.87 138.71 90.33 151.39 83.86"/><polygon class="cls-8" points="143.41 108.44 139.67 119.99 126.98 126.46 130.73 114.91 143.41 108.44"/><g class="cls-9"><rect class="cls-4" x="87.06" y="78.62" width="119.99" height="4.56" transform="translate(24.72 195.81) rotate(-72.02)"/></g><rect class="cls-10" x="72.34" y="191.62" width="103.01" height="32.83" rx="5.66"/><g class="cls-11"><path class="cls-10" d="M183.78,101.2H63.9c.38-7.52,4.44-10.26,12-10.26,7.91,0,7.51-10.66,7.51-10.66V55h80.94V80.28s0,.35,0,.94c0,.06,0,.13,0,.2a15.68,15.68,0,0,0,.16,1.6c0,.1,0,.19.05.28s.07.44.12.67a2,2,0,0,0,.05.24l0,.08.09.37.12.44a.32.32,0,0,0,0,.09c.07.28.17.55.26.81s.13.34.21.5.13.3.19.44l0,.06.21.4,0,0c.08.13.15.26.24.39s.19.29.29.44.08.11.13.17l.14.17.06.08s0,0,0,0,.19.21.28.31h0l.37.35.36.3a.1.1,0,0,1,.05,0h0c.12.09.24.18.37.26s.3.17.45.25l.07,0,.21.09a.78.78,0,0,0,.21.09l0,0a3.19,3.19,0,0,0,.33.11l.26.08a1.17,1.17,0,0,0,.2.06l.19,0a6.18,6.18,0,0,0,.67.12l.53,0h1.8l.65,0,.37,0,.4,0,.72.1.48.08.76.16h0l.35.09h0l.43.12.34.12.39.14.39.17.13,0,0,0,.23.12.3.15s0,0,0,0l.35.19c.12.08.24.15.35.24a1.77,1.77,0,0,1,.17.12,1,1,0,0,1,.16.12,2.43,2.43,0,0,1,.25.2c.12.09.23.19.34.29s.16.15.23.23.09.09.13.15l.25.27a7.53,7.53,0,0,1,.84,1.22l.15.27.12.24c.07.14.13.28.19.43s.09.22.13.33a2.31,2.31,0,0,1,.1.28,5.94,5.94,0,0,1,.23.75h0a1.78,1.78,0,0,1,.09.33h0c0,.15.08.3.11.46l.06.33a.37.37,0,0,0,0,.09c0,.11,0,.22,0,.34s0,.07,0,.11v0c0,.2.06.41.08.62a.38.38,0,0,0,0,.1,0,0,0,0,0,0,0v.11l0,.34,0,.37Z"/></g><g class="cls-3"><path class="cls-4" d="M183.78,213.51c-.15,1.81-1.26,7-8.66,7H123.84V55h40.47V80.28s0,.35,0,.94c0,.06,0,.13,0,.2a15.68,15.68,0,0,0,.16,1.6c0,.1,0,.19.05.28s.07.44.12.67a2,2,0,0,0,.05.24l0,.08.09.37.12.44a.32.32,0,0,0,0,.09c.07.28.17.55.26.81s.13.34.21.5.13.3.19.44l0,.06.21.4,0,0c.08.13.15.26.24.39s.19.29.29.44.08.11.13.17l.14.17.06.08s0,0,0,0,.19.21.28.31h0l.37.35.36.3a.1.1,0,0,1,.05,0h0l.37.26c.14.09.3.17.45.25l.07,0,.21.09a.78.78,0,0,0,.21.09l0,0a3.19,3.19,0,0,0,.33.11l.26.08a1.17,1.17,0,0,0,.2.06l.19,0a6.18,6.18,0,0,0,.67.12l.53,0h1.8l.65,0,.37,0,.4,0,.72.1.48.08.76.16h0l.35.09h0l.43.12.34.12.39.14.39.17.13,0,0,0,.23.12.3.15s0,0,0,0l.35.19c.12.08.24.15.35.24a1.77,1.77,0,0,1,.17.12,1,1,0,0,1,.16.12,2.43,2.43,0,0,1,.25.2c.12.09.23.19.34.29s.16.15.23.23.09.09.13.15l.25.27a7.53,7.53,0,0,1,.84,1.22l.15.27.12.24c.07.14.13.28.19.43s.09.22.13.33a2.31,2.31,0,0,1,.1.28,5.94,5.94,0,0,1,.23.75h0a1.78,1.78,0,0,1,.09.33h0c0,.15.08.3.11.46l.06.33a.37.37,0,0,0,0,.09c0,.11,0,.22,0,.34s0,.07,0,.11v0c0,.2.06.41.08.62a.38.38,0,0,0,0,.1,0,0,0,0,0,0,0v.11l0,.34,0,.37v.18c0,.13,0,.26,0,.39s0,.5,0,.75V212.91A4.44,4.44,0,0,1,183.78,213.51Z"/></g><path class="cls-12" d="M72.34,111.05v91.32A5.65,5.65,0,0,0,78,208h91.69a5.66,5.66,0,0,0,5.66-5.66V111.05Z"/><g class="cls-3"><path class="cls-4" d="M183.78,213.51c-.15,1.81-1.26,7-8.66,7H72.57a10.11,10.11,0,0,1-5-1.15,7.58,7.58,0,0,1-3.64-6.49v-17.1L169.21,90.48a3.19,3.19,0,0,0,.33.11l.26.08a1.17,1.17,0,0,0,.2.06l.19,0a6.18,6.18,0,0,0,.67.12l.53,0h1.8l.65,0,.37,0,.4,0,.72.1.48.08.76.16h0l.35.09h0l.43.12.34.12.39.14.39.17.13,0,0,0,.23.12.3.15s0,0,0,0l.35.19c.12.08.24.15.35.24a1.77,1.77,0,0,1,.17.12,1,1,0,0,1,.16.12,2.43,2.43,0,0,1,.25.2c.12.09.23.19.34.29s.16.15.23.23.09.09.13.15l.25.27a7.53,7.53,0,0,1,.84,1.22l.15.27.12.24c.07.14.13.28.19.43s.09.22.13.33a2.31,2.31,0,0,1,.1.28,5.94,5.94,0,0,1,.23.75h0a1.78,1.78,0,0,1,.09.33h0c0,.15.08.3.11.46l.06.33a.37.37,0,0,0,0,.09c0,.11,0,.22,0,.34s0,.07,0,.11v0c0,.2.06.41.08.62a.38.38,0,0,0,0,.1,0,0,0,0,0,0,0v.11l0,.34,0,.37v.18c0,.13,0,.26,0,.39s0,.5,0,.75V212.91A4.44,4.44,0,0,1,183.78,213.51Z"/></g><g class="cls-3"><path class="cls-4" d="M183.78,213.51c-.15,1.81-1.26,7-8.66,7H72.57a10.11,10.11,0,0,1-5-1.15,7.58,7.58,0,0,1-3.64-6.49V185.05L164.72,84.21l0,.08.09.37.12.44a.32.32,0,0,0,0,.09c.07.28.17.55.26.81s.13.34.21.5.13.3.19.44l0,.06.21.4,0,0c.08.13.15.26.24.39s.19.29.29.44.08.11.13.17l.14.17.06.08s0,0,0,0,.19.21.28.31h0l.37.35.36.3a.1.1,0,0,1,.05,0h0l.37.26c.14.09.3.17.45.25l.07,0,.21.09a.78.78,0,0,0,.21.09l0,0a3.19,3.19,0,0,0,.33.11l.26.08a1.17,1.17,0,0,0,.2.06l.19,0a6.18,6.18,0,0,0,.67.12l.53,0h1.8l.65,0,.37,0,.4,0,.72.1.48.08.76.16h0l.35.09h0l.43.12.34.12.39.14.39.17.13,0,0,0,.23.12.3.15s0,0,0,0l.35.19c.12.08.24.15.35.24a1.77,1.77,0,0,1,.17.12,1,1,0,0,1,.16.12,2.43,2.43,0,0,1,.25.2c.12.09.23.19.34.29s.16.15.23.23.09.09.13.15l.25.27a7.53,7.53,0,0,1,.84,1.22l.15.27.12.24c.07.14.13.28.19.43s.09.22.13.33a2.31,2.31,0,0,1,.1.28,5.94,5.94,0,0,1,.23.75h0a1.78,1.78,0,0,1,.09.33h0c0,.15.08.3.11.46l.06.33a.37.37,0,0,0,0,.09c0,.11,0,.22,0,.34s0,.07,0,.11v0c0,.2.06.41.08.62a.38.38,0,0,0,0,.1,0,0,0,0,0,0,0v.11l0,.34,0,.37v.18c0,.13,0,.26,0,.39s0,.5,0,.75V212.91A4.44,4.44,0,0,1,183.78,213.51Z"/></g><rect class="cls-6" x="83.36" y="53.61" width="80.96" height="4.39" rx="0.57"/><rect class="cls-13" x="79.98" y="60.11" width="87.73" height="5.66" rx="1.7"/><rect class="cls-13" x="79.98" y="71.43" width="87.73" height="5.66" rx="1.7"/><rect class="cls-14" x="83.36" y="77.09" width="80.95" height="1.59"/><rect class="cls-14" x="83.36" y="65.77" width="80.95" height="1.59"/><g class="cls-3"><path class="cls-4" d="M92.09,194.82l19.62-19.62,63.64-63.64,8.43-8.43v-2l0-.37,0-.34v-.11a0,0,0,0,1,0,0,.38.38,0,0,1,0-.1c0-.21,0-.42-.08-.62v0s0-.07,0-.11,0-.23,0-.34a.37.37,0,0,1,0-.09l-.06-.33c0-.16-.07-.31-.11-.46h0a1.78,1.78,0,0,0-.09-.33h0A5.94,5.94,0,0,0,183,97a2.31,2.31,0,0,0-.1-.28c0-.11-.08-.22-.13-.33s-.12-.29-.19-.43l-.12-.24-.15-.27a7.53,7.53,0,0,0-.84-1.22l-.25-.27c0-.06-.09-.1-.13-.15s-.15-.15-.23-.23-.22-.2-.34-.29a2.43,2.43,0,0,0-.25-.2,1,1,0,0,0-.16-.12,1.77,1.77,0,0,0-.17-.12c-.11-.09-.23-.16-.35-.24l-.35-.19s0,0,0,0l-.3-.15-.23-.12,0,0-.13,0-.39-.17-.39-.14-.34-.12-.43-.12h0l-.35-.09h0l-.76-.16-.48-.08-.72-.1-.4,0-.37,0-.65,0h-1.8l-.53,0a6.18,6.18,0,0,1-.67-.12l-.19,0a1.17,1.17,0,0,1-.2-.06l-.26-.08a3.19,3.19,0,0,1-.33-.11l0,0a.78.78,0,0,1-.21-.09l-.21-.09-.07,0c-.15-.08-.31-.16-.45-.25l-.37-.26h0a.1.1,0,0,0-.05,0l-.36-.3-.37-.35h0c-.09-.1-.19-.2-.28-.31s0,0,0,0l-.06-.08-.14-.17c-.05-.06-.08-.12-.13-.17s-.2-.29-.29-.44-.16-.26-.24-.39l0,0-.21-.4,0-.06c-.06-.14-.13-.29-.19-.44s-.14-.33-.21-.5-.19-.53-.26-.81a.32.32,0,0,1,0-.09l-.12-.44-.09-.37,0-.08a2,2,0,0,1-.05-.24c0-.23-.09-.45-.12-.67s0-.18-.05-.28a15.68,15.68,0,0,1-.16-1.6c0-.07,0-.14,0-.2,0-.59,0-.94,0-.94V77.09H166a1.69,1.69,0,0,0,1.7-1.69V73.13a1.7,1.7,0,0,0-1.7-1.7h-1.7V65.77H166a1.69,1.69,0,0,0,1.7-1.69V61.81a1.7,1.7,0,0,0-1.7-1.7h-.66l-1,1-4.62,4.61L146.78,78.69,124.27,101.2l-.43.43-9.43,9.42L72.34,153.13l-8.46,8.46v51.32a7.58,7.58,0,0,0,3.64,6.49L78.89,208Z"/></g><g class="cls-3"><path class="cls-4" d="M183.78,155.75v57.76c-.15,1.81-1.26,7-8.66,7H119l49.16-49.16Z"/></g><g class="cls-15"><path class="cls-4" d="M161.59,188.85a3.84,3.84,0,0,1-3.84,3.84h0a3.84,3.84,0,0,1-3.85-3.84v-60a3.84,3.84,0,0,1,3.85-3.84h0a3.84,3.84,0,0,1,3.84,3.84Z"/></g><g class="cls-15"><path class="cls-4" d="M148.84,149.27a1.78,1.78,0,0,1-1.78,1.78h0a1.79,1.79,0,0,1-1.79-1.78V121.39a1.79,1.79,0,0,1,1.79-1.79h0a1.79,1.79,0,0,1,1.78,1.79Z"/></g><circle class="cls-12" cx="125.53" cy="178.12" r="4.67"/><circle class="cls-12" cx="169.62" cy="124.99" r="2.7"/><circle class="cls-12" cx="92.84" cy="192.34" r="2.7"/><circle class="cls-12" cx="155.36" cy="201.43" r="4.15"/><circle class="cls-12" cx="78.58" cy="127.69" r="4.15"/><circle class="cls-16" cx="137.66" cy="144.32" r="2.55"/><circle class="cls-16" cx="124.31" cy="203.45" r="2.21"/><path class="cls-12" d="M89.84,202.18a3.21,3.21,0,1,1-3.2-3.21A3.21,3.21,0,0,1,89.84,202.18Z"/><path class="cls-16" d="M84.46,191.14a3.7,3.7,0,1,1-3.7-3.7A3.7,3.7,0,0,1,84.46,191.14Z"/><path class="cls-12" d="M83.29,182.78a1.51,1.51,0,1,1-1.51-1.51A1.51,1.51,0,0,1,83.29,182.78Z"/><path class="cls-12" d="M81.78,173.51a3.21,3.21,0,1,1-3.2-3.21A3.21,3.21,0,0,1,81.78,173.51Z"/><path class="cls-12" d="M171.78,197.28a5.1,5.1,0,1,1-5.1-5.1A5.09,5.09,0,0,1,171.78,197.28Z"/><path class="cls-16" d="M170.78,184.49a3,3,0,1,1-3-3A3,3,0,0,1,170.78,184.49Z"/><path class="cls-12" d="M170.8,171a4.12,4.12,0,1,1-4.12-4.11A4.13,4.13,0,0,1,170.8,171Z"/><circle class="cls-12" cx="121.26" cy="142.07" r="2.16"/><path class="cls-12" d="M173.52,161.83a2.73,2.73,0,1,1-2.72-2.73A2.72,2.72,0,0,1,173.52,161.83Z"/><path class="cls-16" d="M95.62,143.08a3,3,0,1,1-3-3A3,3,0,0,1,95.62,143.08Z"/><path class="cls-16" d="M83.84,151.93a3,3,0,1,1-3-3A3,3,0,0,1,83.84,151.93Z"/><circle class="cls-16" cx="83.89" cy="137.02" r="3.06"/><path class="cls-12" d="M103.59,130.79a6.23,6.23,0,1,1-6.23-6.23A6.23,6.23,0,0,1,103.59,130.79Z"/><circle class="cls-12" cx="125.18" cy="150.23" r="2.16"/><circle class="cls-12" cx="167.74" cy="150.23" r="4.11"/><g class="cls-15"><rect class="cls-4" x="101.26" y="184.77" width="18.85" height="18.85" rx="1.28" transform="translate(-91.01 290.56) rotate(-85.86)"/></g><g class="cls-15"><rect class="cls-4" x="98.42" y="139.5" width="18.85" height="18.85" rx="1.28" transform="translate(-73.73 119.96) rotate(-45.02)"/></g><g class="cls-15"><rect class="cls-4" x="129.14" y="152.4" width="18.85" height="18.85" rx="1.28" transform="translate(-65.72 222.31) rotate(-65.92)"/></g><path class="cls-17" d="M91.3,184.49a1.69,1.69,0,1,1-1.69-1.69A1.69,1.69,0,0,1,91.3,184.49Z"/><path class="cls-17" d="M149.89,192.34a1.71,1.71,0,1,1-1.71-1.7A1.7,1.7,0,0,1,149.89,192.34Z"/><path class="cls-17" d="M83.29,142.81a1.51,1.51,0,1,0-1.51,1.51A1.5,1.5,0,0,0,83.29,142.81Z"/><path class="cls-17" d="M150.61,172.21a1.29,1.29,0,1,1-1.29-1.29A1.29,1.29,0,0,1,150.61,172.21Z"/><path class="cls-17" d="M126.52,158a1,1,0,1,1-1-1A1,1,0,0,1,126.52,158Z"/><circle class="cls-17" cx="94.03" cy="200.49" r="1.6"/><path class="cls-17" d="M169.62,137.16a1.55,1.55,0,1,1-1.55-1.55A1.55,1.55,0,0,1,169.62,137.16Z"/><circle class="cls-17" cx="131.11" cy="186.92" r="1.75"/><circle class="cls-17" cx="98.91" cy="140.53" r="1.2"/><path class="cls-17" d="M84.46,122.29a2.68,2.68,0,1,1-2.68-2.68A2.68,2.68,0,0,1,84.46,122.29Z"/><path class="cls-5" d="M132.41,118.24,127.75,139a9.77,9.77,0,0,0,2,.05A8.36,8.36,0,0,0,135,137a7.56,7.56,0,0,0,1.91-2.88,10.12,10.12,0,0,0,.47-1.55S138.05,129.33,132.41,118.24Z"/><path class="cls-2" d="M121.61,130.14c-1.74,7.77,6.14,8.89,6.14,8.89l4.66-20.79c-2,1.73-3.64,3.24-5,4.55-.9.89-1.66,1.69-2.31,2.4a20.45,20.45,0,0,0-3.29,4.41A2.78,2.78,0,0,0,121.61,130.14Z"/><g class="cls-3"><path class="cls-4" d="M121.61,130.14c-1.74,7.77,6.14,8.89,6.14,8.89a9.77,9.77,0,0,0,2,.05A8.36,8.36,0,0,0,135,137l-9.82-11.78a20.45,20.45,0,0,0-3.29,4.41A2.78,2.78,0,0,0,121.61,130.14Z"/></g><g class="cls-3"><path class="cls-4" d="M121.84,129.6l6.32,7.59,1.58,1.89A8.36,8.36,0,0,0,135,137a7.56,7.56,0,0,0,1.91-2.88l-5.13-6.16-1.18-1.4-.44-.53-.07-.09-2.6-3.12c-.9.89-1.66,1.69-2.31,2.4A20.45,20.45,0,0,0,121.84,129.6Z"/></g><path class="cls-4" d="M128.37,135.54a.13.13,0,0,1,.07-.12l7.17-4.07a.2.2,0,0,1,.24,0,.12.12,0,0,1,0,.19l-7.17,4.07a.18.18,0,0,1-.23,0A.11.11,0,0,1,128.37,135.54Z"/><path class="cls-4" d="M129.38,131a.13.13,0,0,1,.07-.12l4-2.28a.18.18,0,0,1,.23,0,.12.12,0,0,1,0,.2l-4,2.28a.18.18,0,0,1-.23,0A.16.16,0,0,1,129.38,131Z"/><path class="cls-4" d="M123.84,127.72a.13.13,0,0,1,.08-.11.18.18,0,0,1,.23,0l4.93,5.92a.12.12,0,0,1,0,.19.2.2,0,0,1-.24,0l-4.93-5.92A.11.11,0,0,1,123.84,127.72Z"/><path class="cls-4" d="M127,125.81a.13.13,0,0,1,.07-.12.21.21,0,0,1,.24,0l2.77,3.32a.13.13,0,0,1,0,.2.19.19,0,0,1-.23,0l-2.77-3.32A.13.13,0,0,1,127,125.81Z"/><path class="cls-4" d="M127.82,137.94v0l3.43-15.28a.19.19,0,0,1,.2-.11.14.14,0,0,1,.13.16L128.16,138a.17.17,0,0,1-.2.11A.15.15,0,0,1,127.82,137.94Z"/><path class="cls-1" d="M231.2,144.53l-51.49,74.89a27.46,27.46,0,0,1-5.16-4.84,27.15,27.15,0,0,1-6.66-19.48,34.29,34.29,0,0,1,4-13.53,49.86,49.86,0,0,1,3.53-5.9S183.35,164.08,231.2,144.53Z"/><path class="cls-2" d="M222.1,207.79c-19.24,28-42.39,11.63-42.39,11.63l51.49-74.89c-.22,10.28-.72,19-1.37,26.3-.44,5-1,9.3-1.5,13.08-1.75,12.23-3.87,18.67-5.13,21.66A13.53,13.53,0,0,1,222.1,207.79Z"/><g class="cls-3"><path class="cls-4" d="M222.1,207.79c-19.24,28-42.39,11.63-42.39,11.63a27.46,27.46,0,0,1-5.16-4.84,27.15,27.15,0,0,1-6.66-19.48l60.44-11.19c-1.75,12.23-3.87,18.67-5.13,21.66A13.53,13.53,0,0,1,222.1,207.79Z"/></g><g class="cls-3"><path class="cls-4" d="M223.2,205.57l-38.93,7.21-9.72,1.8a27.15,27.15,0,0,1-6.66-19.48,34.29,34.29,0,0,1,4-13.53l31.6-5.85,7.22-1.34,2.72-.51.45-.08,16-3c-.44,5-1,9.3-1.5,13.08C226.58,196.14,224.46,202.58,223.2,205.57Z"/></g><path class="cls-4" d="M188.35,207.39a.57.57,0,0,1-.56-.47l-5.62-30.35a.57.57,0,0,1,.46-.66.56.56,0,0,1,.65.46l5.62,30.35a.56.56,0,0,1-.45.66Z"/><path class="cls-4" d="M199.51,191.15a.57.57,0,0,1-.55-.47l-3.16-17a.57.57,0,0,1,1.12-.21l3.15,17a.57.57,0,0,1-.45.66Z"/><path class="cls-4" d="M193.09,200.6a.57.57,0,0,1-.56-.47.56.56,0,0,1,.46-.65l30.35-5.62a.57.57,0,0,1,.66.45.57.57,0,0,1-.46.66l-30.35,5.62Z"/><path class="cls-4" d="M204.26,184.36a.57.57,0,0,1-.11-1.13l17-3.15a.56.56,0,0,1,.66.45.57.57,0,0,1-.46.66l-17,3.16Z"/><path class="cls-4" d="M182.39,216.08a.55.55,0,0,1-.32-.1.56.56,0,0,1-.14-.79l37.84-55a.56.56,0,1,1,.93.64l-37.84,55A.57.57,0,0,1,182.39,216.08Z"/><path class="cls-5" d="M268.54,202.17l-89.37,16.54a27.68,27.68,0,0,1-.22-7.07A27.18,27.18,0,0,1,188,193.15a34.33,34.33,0,0,1,12.38-6.75,50.94,50.94,0,0,1,6.66-1.68S220.88,182.16,268.54,202.17Z"/><path class="cls-2" d="M217.37,240.47c-33.4,6.18-38.2-21.76-38.2-21.76l89.37-16.54c-7.43,7.11-13.92,12.9-19.57,17.63-3.82,3.2-7.25,5.9-10.3,8.18-9.89,7.42-15.94,10.47-18.95,11.7A14.07,14.07,0,0,1,217.37,240.47Z"/><g class="cls-3"><path class="cls-4" d="M217.37,240.47c-33.4,6.18-38.2-21.76-38.2-21.76a27.68,27.68,0,0,1-.22-7.07A27.18,27.18,0,0,1,188,193.15L238.67,228c-9.89,7.42-15.94,10.47-18.95,11.7A14.07,14.07,0,0,1,217.37,240.47Z"/></g><g class="cls-3"><path class="cls-4" d="M219.72,239.68l-32.63-22.44-8.14-5.6A27.18,27.18,0,0,1,188,193.15a34.33,34.33,0,0,1,12.38-6.75l26.48,18.2,6,4.16,2.28,1.57.38.26L249,219.8c-3.82,3.2-7.25,5.9-10.3,8.18C228.78,235.4,222.73,238.45,219.72,239.68Z"/></g><path class="cls-4" d="M194.19,216.48a.55.55,0,0,1-.32-.1.57.57,0,0,1-.15-.79l17.49-25.43a.56.56,0,1,1,.93.64l-17.48,25.43A.57.57,0,0,1,194.19,216.48Z"/><path class="cls-4" d="M213.57,212.89a.55.55,0,0,1-.32-.1.57.57,0,0,1-.15-.79l9.83-14.28a.56.56,0,1,1,.93.64L214,212.64A.57.57,0,0,1,213.57,212.89Z"/><path class="cls-4" d="M227.78,232.52a.53.53,0,0,1-.32-.1L202,214.93a.56.56,0,0,1,.64-.93l25.44,17.49a.55.55,0,0,1,.14.78A.56.56,0,0,1,227.78,232.52Z"/><path class="cls-4" d="M236,221.26a.55.55,0,0,1-.32-.1l-14.29-9.82a.56.56,0,0,1-.14-.78.55.55,0,0,1,.78-.15l14.29,9.82a.57.57,0,0,1,.15.79A.57.57,0,0,1,236,221.26Z"/><path class="cls-4" d="M183.83,218.41a.56.56,0,0,1-.1-1.12l65.67-12.16a.57.57,0,0,1,.21,1.12L183.94,218.4Z"/><path class="cls-1" d="M192.34,119.32c-5.39,4.7-13,16.81-10.91,30.1l6.23,1.71,9-30.52S197.73,114.63,192.34,119.32Z"/><path class="cls-2" d="M201.05,121.9c2,6.87,1.73,21.16-7.23,31.19l-6.16-2,9-30.52S199.08,115,201.05,121.9Z"/><path class="cls-1" d="M163.28,229.81c-7.56-.38-14.05-4.81-19-10-5.76-6-9.47-13-10.41-15.86-1.77-5.28,2.69-8.06,4-4.71,1,2.65,3.66,4.36,5.64,5.31a17.37,17.37,0,0,0,2.36.94l.08,0,6.76,9.46.15.2,10.41,14.56Z"/><path class="cls-2" d="M202,224.13c-4.36,3.47-24.57,13.88-38.75,5.68l.08,0,27.71-10.89a17.13,17.13,0,0,0,5,.65,9.09,9.09,0,0,0,5.16-1.52C204.16,215.91,206.38,220.67,202,224.13Z"/><path class="cls-2" d="M210.6,179.94a10.57,10.57,0,0,1-2.26,1.46l-.43.2-.26-1.42h0l-3-16.34a13.34,13.34,0,0,0,2.3-5.29,9.06,9.06,0,0,0,0-3.25c-.77-4.56,1-6.19,2.78-5.66.52.15,1.75,2.47,2.89,5.81C215.13,162.6,217.11,174.47,210.6,179.94Z"/><path class="cls-2" d="M202.21,211.68a19.15,19.15,0,0,1-1.91.24,13.52,13.52,0,0,1,1.75-10.29,13.29,13.29,0,0,1,2.45-2.78,9.69,9.69,0,0,0,4.14-1.84c2.31-1.67,5-4.84,6.22-10.82,0,0,.51-2.78,2.58-2.11S218.4,208.77,202.21,211.68Z"/><path class="cls-1" d="M169.77,137.78c-1.75-.51-24,15.35-15.8,27.86l12.37-13.16s-.45-5,2.68-8.44S171.52,138.29,169.77,137.78Z"/><path class="cls-1" d="M146.66,191.32a13.39,13.39,0,0,1-2.82,3.89c-.48-.36-.92-.74-1.34-1.12l-.35-.32c-4.11-4-5.26-9.17-4.92-14.13.6-9,6.1-17.47,7.39-17.11,2.1.57,1,3.17,1,3.17a18.78,18.78,0,0,0-1.34,10.1,12.36,12.36,0,0,0,.74,2.56,9.57,9.57,0,0,0,2.4,3.6A12.8,12.8,0,0,1,146.66,191.32Z"/><path class="cls-18" d="M208.36,198a55.64,55.64,0,0,1-3.37,8.68,52.45,52.45,0,0,1-2.78,5,48.72,48.72,0,0,1-6.11,7.86c-9,9.38-20.82,13.79-31.81,10.54l-.93-.3-.13,0a27.3,27.3,0,0,1-12.59-9.13,32.47,32.47,0,0,1-2.15-3.08,37,37,0,0,1-3.29-6.85,44.1,44.1,0,0,1-1.73-6.12,48.39,48.39,0,0,1-1-10.47v-.51a55.37,55.37,0,0,1,2.29-14.41c.08-.27.16-.54.25-.81.38-1.25.81-2.47,1.28-3.66a53.25,53.25,0,0,1,6.34-11.78,43.67,43.67,0,0,1,13.75-12.68,35,35,0,0,1,4-2A29.19,29.19,0,0,1,181.11,146a25.45,25.45,0,0,1,7.13.89l.62.17.51.15h0a26,26,0,0,1,6.57,3.18,29,29,0,0,1,7.55,7.45h0c.44.61.85,1.24,1.25,1.9s.8,1.34,1.16,2a43.6,43.6,0,0,1,4.7,18.13c.07,1.26.08,2.54,0,3.83,0,.83-.06,1.68-.12,2.52A55.47,55.47,0,0,1,208.64,197C208.55,197.33,208.46,197.66,208.36,198Z"/><path class="cls-19" d="M208.36,198a55.64,55.64,0,0,1-3.37,8.68,52.45,52.45,0,0,1-2.78,5,48.72,48.72,0,0,1-6.11,7.86c-9,9.38-20.82,13.79-31.81,10.54l-.93-.3-.13,0a27.3,27.3,0,0,1-12.59-9.13,32.47,32.47,0,0,1-2.15-3.08,37,37,0,0,1-3.29-6.85,51.88,51.88,0,0,1,.63-5.18,57.7,57.7,0,0,1,1.52-6.51,55.45,55.45,0,0,1,4.21-10.33c.15-.3.31-.59.47-.88a46.16,46.16,0,0,1,16.22-17.31c.65-.39,1.31-.75,2-1.09,6.77-3.51,14.16-4.57,21.2-2.49l.13,0a25.91,25.91,0,0,1,7.86,3.94,30.36,30.36,0,0,1,8.24,9.3q.36.6.69,1.23c.49.93.95,1.88,1.38,2.87.28.66.55,1.34.8,2A55.47,55.47,0,0,1,208.64,197C208.55,197.33,208.46,197.66,208.36,198Z"/><g class="cls-3"><path class="cls-4" d="M205,206.67a52.45,52.45,0,0,1-2.78,5,48.72,48.72,0,0,1-6.11,7.86c-9,9.38-20.82,13.79-31.81,10.54l-.93-.3-.13,0a27.3,27.3,0,0,1-12.59-9.13l0-.08a47.37,47.37,0,0,1,1.86-5.18l.15-.37a49.62,49.62,0,0,1,2.29-4.62c0-.09.11-.18.16-.28a45,45,0,0,1,2.61-4c.38-.53.78-1,1.18-1.55,5-6.29,11.36-10.65,18-12.31h0a23.59,23.59,0,0,1,11-.17c.45.1.91.22,1.37.36a22.28,22.28,0,0,1,3.22,1.23A23.91,23.91,0,0,1,200,199.1c.08.09.17.18.25.28a26.57,26.57,0,0,1,1.81,2.25A30.92,30.92,0,0,1,205,206.67Z"/></g><g class="cls-3"><path class="cls-4" d="M202,224.13c-4.36,3.47-24.57,13.88-38.75,5.68-7.56-.38-14.05-4.81-19-10-5.76-6-9.47-13-10.41-15.86-1.77-5.28,2.69-8.06,4-4.71,1,2.65,3.66,4.36,5.64,5.31a48.39,48.39,0,0,1-1-10.47l-.35-.32.35-.19,4.16-2.26,4.9-2.66,43.81-23.8,9.37-5.09,2.25-1.23,5.71-3.1c2.43,7.16,4.41,19-2.1,24.5.07,1.26.08,2.54,0,3.83,0,.83-.06,1.68-.12,2.52A55.47,55.47,0,0,1,208.64,197c2.31-1.67,5-4.84,6.22-10.82,0,0,.51-2.78,2.58-2.11s1,24.69-15.23,27.6a48.72,48.72,0,0,1-6.11,7.86,9.09,9.09,0,0,0,5.16-1.52C204.16,215.91,206.38,220.67,202,224.13Z"/></g><g class="cls-3"><path class="cls-4" d="M210.6,179.94c.07,1.26.08,2.54,0,3.83l-.92.5-7.17,3.9-10.88,5.91-6.2,3.36-1.65.9-21.76,11.83-.1.05-5.34,2.9-3.8,2.06-.3.17-4,2.18-4.21,2.29c-5.76-6-9.47-13-10.41-15.86-1.77-5.28,2.69-8.06,4-4.71,1,2.65,3.66,4.36,5.64,5.31a48.39,48.39,0,0,1-1-10.47l-.35-.32c-4.11-4-5.26-9.17-4.92-14.13l7.07-3.84,2-1.1,18.53-10.07,26.05-14.15.47-.25L193.6,149l4.69-2.54,3.84-2.09c1.54,3.7-.68,10.17,1.21,13.2a2,2,0,0,1,.15.28h0c.44.61.85,1.24,1.25,1.9l2.25-1.23a9.06,9.06,0,0,0,0-3.25c-.77-4.56,1-6.19,2.78-5.66.52.15,1.75,2.47,2.89,5.81C215.13,162.6,217.11,174.47,210.6,179.94Z"/></g><path class="cls-18" d="M189.76,147.19s-4.92-2.1-4.13-5.92a4,4,0,0,0-4.76-4.44c-4.6.64-6.22,9.38-10,11.15S189.76,147.19,189.76,147.19Z"/><path class="cls-18" d="M194.68,152.06c-1-.74-1.87-1.47-2.72-2.15-1.33-1-2.45-2-3.18-2.56l-.05,0-.49-.39-.32-.26s.39.06,1,.09H189c1.61.06,4.63-.2,5.65-2.81a4,4,0,0,1,5.49-1.8,5.21,5.21,0,0,1,.91.66,4.26,4.26,0,0,1,1.12,1.59c1.54,3.7-.68,10.17,1.21,13.2a2,2,0,0,1,.15.28h0C204,159.19,199.13,155.55,194.68,152.06Z"/><path class="cls-4" d="M200.9,197.34c-.28.94-.58,1.87-.92,2.78q-.81,2.15-1.8,4.14c-6.55,13.08-19.08,20.55-30.4,17.2a19.42,19.42,0,0,1-6.85-3.64,23.38,23.38,0,0,1-5.75-7c-4-7.39-5.05-17.47-2.06-27.58,5.1-17.23,19.93-28,33.12-24.12S206,180.11,200.9,197.34Z"/><path class="cls-20" d="M200,200.12c-5.8,15.59-19.73,25-32.2,21.34a21.34,21.34,0,0,1-12.6-10.68A35.55,35.55,0,0,1,156.52,197C161,181.9,174,172.42,185.6,175.85,194.78,178.56,200.3,188.56,200,200.12Z"/><path class="cls-21" d="M198.18,204.26c-6.55,13.08-19.08,20.55-30.4,17.2a19.42,19.42,0,0,1-6.85-3.64,30.52,30.52,0,0,1,1.28-8.19c3.8-12.85,14.86-20.9,24.7-18C192.47,193.28,196.45,198.08,198.18,204.26Z"/><path class="cls-22" d="M194.93,176.82a1.72,1.72,0,1,1-1.16-2.13A1.72,1.72,0,0,1,194.93,176.82Z"/><path class="cls-22" d="M186.59,164.17a1.24,1.24,0,1,1-.84-1.54A1.24,1.24,0,0,1,186.59,164.17Z"/><path class="cls-22" d="M172.54,207.29a1.24,1.24,0,1,1-2.38-.71,1.24,1.24,0,0,1,2.38.71Z"/><path class="cls-22" d="M171,216.77a1.24,1.24,0,1,1-.83-1.54A1.24,1.24,0,0,1,171,216.77Z"/><path class="cls-22" d="M181.34,215.85a1.24,1.24,0,1,1-2.38-.71,1.24,1.24,0,0,1,2.38.71Z"/><path class="cls-22" d="M170.25,170.11a1.14,1.14,0,1,1-.77-1.41A1.14,1.14,0,0,1,170.25,170.11Z"/><path class="cls-22" d="M164.7,197a1.14,1.14,0,1,1-.77-1.41A1.14,1.14,0,0,1,164.7,197Z"/><circle class="cls-22" cx="184.99" cy="182.68" r="1.69" transform="translate(-64.79 110.54) rotate(-28.53)"/><path class="cls-22" d="M157.13,191.66a1.69,1.69,0,1,1-1.14-2.1A1.68,1.68,0,0,1,157.13,191.66Z"/><path class="cls-22" d="M177.25,165.29a.92.92,0,0,1-1.16.63.93.93,0,1,1,.53-1.79A.92.92,0,0,1,177.25,165.29Z"/><path class="cls-22" d="M164.68,177.92a1.2,1.2,0,1,1-.81-1.49A1.2,1.2,0,0,1,164.68,177.92Z"/><path class="cls-22" d="M177.31,188a1.59,1.59,0,1,1-1.07-2A1.59,1.59,0,0,1,177.31,188Z"/><path class="cls-22" d="M179.48,171.65a1.18,1.18,0,1,1-.8-1.46A1.18,1.18,0,0,1,179.48,171.65Z"/><path class="cls-22" d="M195.29,191.31a1.11,1.11,0,0,1-1.37.74,1.1,1.1,0,0,1-.74-1.36,1.11,1.11,0,0,1,1.37-.74A1.1,1.1,0,0,1,195.29,191.31Z"/><path class="cls-22" d="M185.44,197.6a1.17,1.17,0,0,1-1.47.8,1.19,1.19,0,1,1,1.47-.8Z"/><path class="cls-22" d="M166.19,188a1.15,1.15,0,1,1-.78-1.43A1.15,1.15,0,0,1,166.19,188Z"/><path class="cls-22" d="M157.59,184.16A1.25,1.25,0,0,1,156,185a1.24,1.24,0,1,1,1.55-.84Z"/><path class="cls-22" d="M192,169.48a1.07,1.07,0,1,1-.72-1.33A1.07,1.07,0,0,1,192,169.48Z"/><path class="cls-22" d="M159.69,205.83a1.07,1.07,0,0,1-2.05-.61,1.07,1.07,0,0,1,2.05.61Z"/><path class="cls-22" d="M192.13,205.16a1.13,1.13,0,1,1-.76-1.4A1.14,1.14,0,0,1,192.13,205.16Z"/><path class="cls-22" d="M177.65,200.49a1.49,1.49,0,1,1-1-1.85A1.49,1.49,0,0,1,177.65,200.49Z"/><path class="cls-22" d="M182.91,209.28a1,1,0,1,1-.7-1.29A1,1,0,0,1,182.91,209.28Z"/><path class="cls-1" d="M113.31,180.9,92.76,165.55a8.51,8.51,0,0,0-1.34,1.55,6.12,6.12,0,0,0-1,5.33,7.78,7.78,0,0,0,2,3.13,13.49,13.49,0,0,0,1.45,1.24S97.11,179.18,113.31,180.9Z"/><path class="cls-2" d="M106.79,165.65c-7.68-5.74-14-.1-14-.1l20.55,15.35c-.67-2.56-1.33-4.71-2-6.5-.42-1.22-.83-2.27-1.22-3.18a20.1,20.1,0,0,0-2.87-5.09A2.93,2.93,0,0,0,106.79,165.65Z"/><g class="cls-3"><path class="cls-4" d="M106.79,165.65c-7.68-5.74-14-.1-14-.1a8.51,8.51,0,0,0-1.34,1.55,6.12,6.12,0,0,0-1,5.33l19.69-1.21a20.1,20.1,0,0,0-2.87-5.09A2.93,2.93,0,0,0,106.79,165.65Z"/></g><g class="cls-3"><path class="cls-4" d="M107.26,166.13l-12.68.78-3.16.19a6.12,6.12,0,0,0-1,5.33,7.78,7.78,0,0,0,2,3.13l10.29-.63,2.35-.15.88-.05h.15l5.2-.32c-.42-1.22-.83-2.27-1.22-3.18A20.1,20.1,0,0,0,107.26,166.13Z"/></g><path class="cls-4" d="M96.18,168h0c.11,0,.19.05.19.14v8a.2.2,0,0,1-.2.17.16.16,0,0,1-.19-.14l0-8A.19.19,0,0,1,96.18,168Z"/><path class="cls-4" d="M100.63,171.31h0a.16.16,0,0,1,.19.14v4.48a.19.19,0,0,1-.19.17.17.17,0,0,1-.2-.14v-4.49A.19.19,0,0,1,100.63,171.31Z"/><path class="cls-4" d="M98.06,169.37h0l9.88-.6c.11,0,.19.05.19.14a.19.19,0,0,1-.19.17l-9.88.6c-.11,0-.2,0-.2-.14A.18.18,0,0,1,98.06,169.37Z"/><path class="cls-4" d="M102.52,172.7h0l5.55-.34c.11,0,.19.06.19.15a.18.18,0,0,1-.19.16l-5.55.34c-.11,0-.19-.05-.19-.14A.18.18,0,0,1,102.52,172.7Z"/><path class="cls-4" d="M93.8,166.2a.25.25,0,0,1,.17,0l15.1,11.28a.14.14,0,0,1,0,.22.24.24,0,0,1-.28,0L93.7,166.47a.13.13,0,0,1,0-.22A.19.19,0,0,1,93.8,166.2Z"/></g></g></svg>