<svg xmlns="http://www.w3.org/2000/svg" viewBox="0 0 419.19 367.58"><defs><style>.cls-1{fill:#fcf2f5;}.cls-2{fill:#fff;}.cls-3{font-size:41px;fill:#690eb2;font-family:AttractypeReborn, Attractype Reborn;}.cls-4{letter-spacing:0.03em;}.cls-5{letter-spacing:0em;}.cls-6{letter-spacing:-0.03em;}.cls-7{fill:none;stroke:#690eb2;stroke-linecap:round;stroke-miterlimit:10;stroke-width:3px;}.cls-8{fill:#83ccbb;}.cls-9{fill:#6eb5bb;}.cls-10{opacity:0.2;}.cls-11{fill:#0073aa;}.cls-12{fill:#d4ecf0;}.cls-13{fill:#927fd9;}.cls-14{fill:#fbeec1;}.cls-15{opacity:0.3;}.cls-16{fill:#c7e4ea;}.cls-17{opacity:0.6;}.cls-18{fill:#ad0178;}.cls-19{fill:#89b7ed;}.cls-20{fill:#85b1e6;}.cls-21{opacity:0.4;}.cls-22{fill:#ffd02e;}.cls-23{fill:#4d3d99;}.cls-24{fill:#e21d92;}.cls-25{fill:#e84aa8;}.cls-26{fill:#ffebff;}.cls-27{fill:#ffceff;}.cls-28{fill:#2d061d;}</style></defs><title>Asset 5</title><g id="Layer_2" data-name="Layer 2"><g id="Layer_1-2" data-name="Layer 1"><rect class="cls-1" x="41.91" width="377.27" height="367.58" rx="11.34"/><path class="cls-2" d="M10.88,210.64a5.44,5.44,0,1,1-5.44-5.44A5.43,5.43,0,0,1,10.88,210.64Z"/><text class="cls-3" transform="translate(106.48 329.27)"><tspan class="cls-4">P</tspan><tspan class="cls-5" x="20.87" y="0">i</tspan><tspan class="cls-6" x="29.03" y="0">t</tspan><tspan x="37.06" y="0">aya Milkshake</tspan></text><line class="cls-7" x1="110.01" y1="342.05" x2="351.09" y2="342.05"/><path class="cls-8" d="M131.44,179.4l48.49,70.53a26.31,26.31,0,0,0,4.86-4.56A25.6,25.6,0,0,0,191.07,227a32.32,32.32,0,0,0-3.75-12.74,46.65,46.65,0,0,0-3.32-5.55S176.5,197.82,131.44,179.4Z"/><path class="cls-9" d="M140,239c18.12,26.36,39.92,11,39.92,11L131.44,179.4c.21,9.69.68,17.87,1.29,24.77.42,4.68.9,8.76,1.41,12.32,1.65,11.52,3.65,17.58,4.83,20.4A13.88,13.88,0,0,0,140,239Z"/><g class="cls-10"><path class="cls-2" d="M140,239c18.12,26.36,39.92,11,39.92,11a26.31,26.31,0,0,0,4.86-4.56A25.6,25.6,0,0,0,191.07,227l-56.93-10.53c1.65,11.52,3.65,17.58,4.83,20.4A13.88,13.88,0,0,0,140,239Z"/></g><g class="cls-10"><path class="cls-2" d="M139,236.89l36.67,6.79,9.15,1.69A25.6,25.6,0,0,0,191.07,227a32.32,32.32,0,0,0-3.75-12.74l-29.75-5.5-6.8-1.27-2.56-.47-.43-.08-15.05-2.79c.42,4.68.9,8.76,1.41,12.32C135.79,228,137.79,234.07,139,236.89Z"/></g><path class="cls-2" d="M171.8,238.63h-.1a.57.57,0,0,1-.46-.66l5.29-28.58a.57.57,0,0,1,1.12.21l-5.29,28.58A.57.57,0,0,1,171.8,238.63Z"/><path class="cls-2" d="M161.28,223.34h-.1a.56.56,0,0,1-.45-.66l3-16a.56.56,0,0,1,.66-.46.57.57,0,0,1,.45.66l-3,16.05A.57.57,0,0,1,161.28,223.34Z"/><path class="cls-2" d="M167.33,232.24h-.1l-28.58-5.29a.56.56,0,0,1-.45-.66.55.55,0,0,1,.65-.45l28.59,5.29a.56.56,0,0,1-.11,1.12Z"/><path class="cls-2" d="M156.82,216.94h-.11l-16.05-3a.56.56,0,1,1,.21-1.11l16,3a.56.56,0,0,1-.1,1.12Z"/><path class="cls-2" d="M177.41,246.82a.57.57,0,0,1-.47-.25L141.3,194.75a.57.57,0,0,1,.15-.79.57.57,0,0,1,.79.15l35.63,51.82a.57.57,0,0,1-.14.79A.55.55,0,0,1,177.41,246.82Z"/><path class="cls-11" d="M96.28,233.68l84.16,15.58a25.83,25.83,0,0,0,.21-6.65,25.56,25.56,0,0,0-8.54-17.41,32.18,32.18,0,0,0-11.65-6.37,50.45,50.45,0,0,0-6.28-1.58S141.16,214.84,96.28,233.68Z"/><path class="cls-9" d="M144.47,269.75c31.45,5.82,36-20.49,36-20.49L96.28,233.68c7,6.7,13.11,12.16,18.43,16.6,3.6,3,6.82,5.57,9.7,7.71,9.31,7,15,9.86,17.85,11A13,13,0,0,0,144.47,269.75Z"/><g class="cls-10"><path class="cls-2" d="M144.47,269.75c31.45,5.82,36-20.49,36-20.49a25.83,25.83,0,0,0,.21-6.65,25.56,25.56,0,0,0-8.54-17.41L124.41,258c9.31,7,15,9.86,17.85,11A13,13,0,0,0,144.47,269.75Z"/></g><g class="cls-10"><path class="cls-2" d="M142.26,269,173,247.88l7.67-5.27a25.56,25.56,0,0,0-8.54-17.41,32.18,32.18,0,0,0-11.65-6.37L135.52,236l-5.7,3.91-2.14,1.48-.36.24-12.61,8.67c3.6,3,6.82,5.57,9.7,7.71C133.72,265,139.42,267.85,142.26,269Z"/></g><path class="cls-2" d="M166.3,247.19a.57.57,0,0,1-.47-.24L149.36,223a.57.57,0,0,1,.93-.65l16.47,24a.56.56,0,0,1-.46.88Z"/><path class="cls-2" d="M148.05,243.81a.57.57,0,0,1-.47-.24l-9.25-13.45a.57.57,0,0,1,.15-.79.55.55,0,0,1,.78.15l9.25,13.45a.56.56,0,0,1-.14.78A.55.55,0,0,1,148.05,243.81Z"/><path class="cls-2" d="M134.67,262.3a.57.57,0,0,1-.47-.25.55.55,0,0,1,.15-.78l24-16.47a.56.56,0,0,1,.79.14.57.57,0,0,1-.15.79L135,262.2A.55.55,0,0,1,134.67,262.3Z"/><path class="cls-2" d="M126.92,251.7a.57.57,0,0,1-.47-.25.55.55,0,0,1,.15-.78l13.45-9.25a.56.56,0,0,1,.64.93l-13.45,9.25A.55.55,0,0,1,126.92,251.7Z"/><path class="cls-2" d="M176.05,249H176L114.1,237.56a.56.56,0,0,1-.45-.66.55.55,0,0,1,.66-.45l61.84,11.44a.58.58,0,0,1,.46.66A.57.57,0,0,1,176.05,249Z"/><path class="cls-12" d="M280.06,242.74c-.16,1.81-1.26,7-8.66,7H168.85a10.18,10.18,0,0,1-5.06-1.15,7.59,7.59,0,0,1-3.64-6.49V131.63c0-.41,0-.81,0-1.2.38-7.52,4.44-10.25,12-10.25,7.9,0,7.51-10.67,7.51-10.67V84.22h80.94v25.29s0,.35,0,.94a1.34,1.34,0,0,1,0,.21c0,.44.08,1,.17,1.59,0,.1,0,.19,0,.28s.08.44.13.67a2,2,0,0,0,.05.24l0,.08c0,.12.06.25.09.37l.12.44s0,.06,0,.09q.12.42.27.81c.07.17.13.34.2.5s.13.3.2.44l0,.06.21.4,0,0,.23.39c.09.15.2.29.3.44l.13.17.13.17.07.08s0,0,0,0l.28.3h0l.36.35.37.3a.1.1,0,0,1,.05,0h0l.36.26.46.25.07,0,.2.09a1,1,0,0,0,.22.09l0,0a3.19,3.19,0,0,0,.33.11l.26.08a1.39,1.39,0,0,0,.19.06l.2.05.66.11.54,0,.43,0h1.37l.65,0,.37,0,.4,0,.72.1.48.08.76.16h0l.35.09h0l.42.12.34.12.4.14.39.17a.75.75,0,0,1,.13.06h0l.23.12.3.15,0,0,.35.19c.12.08.24.15.35.24a1.77,1.77,0,0,1,.17.12l.16.12a2.43,2.43,0,0,1,.25.2c.12.09.23.19.34.29s.15.15.23.23l.13.15.25.27a8.22,8.22,0,0,1,.84,1.22l.15.27.12.24c.06.14.13.28.19.43l.13.33c0,.09.07.19.1.28.09.24.16.49.23.75h0a1.78,1.78,0,0,1,.09.33h0c0,.15.08.3.11.46l.06.33s0,.06,0,.09a3.43,3.43,0,0,1,.06.34s0,.07,0,.11v0c0,.2.05.41.08.62a.34.34,0,0,0,0,.1v0s0,.08,0,.11l0,.34,0,.37v.18c0,.13,0,.26,0,.39s0,.5,0,.75V242.14A4.44,4.44,0,0,1,280.06,242.74Z"/><rect class="cls-13" x="165.9" y="84.39" width="119.99" height="10.07" transform="translate(121.9 309) rotate(-86.25)"/><polygon class="cls-14" points="234.2 39.65 233.41 51.76 222.71 61.15 223.5 49.04 234.2 39.65"/><polygon class="cls-14" points="232.51 65.44 231.72 77.55 221.02 86.94 221.81 74.83 232.51 65.44"/><polygon class="cls-14" points="230.83 91.23 230.03 103.34 219.33 112.72 220.12 100.62 230.83 91.23"/><polygon class="cls-14" points="229.14 117.02 228.34 129.13 217.64 138.52 218.43 126.41 229.14 117.02"/><g class="cls-15"><rect class="cls-2" x="165.9" y="87.15" width="119.99" height="4.56" transform="translate(121.9 309) rotate(-86.25)"/></g><rect class="cls-8" x="183.34" y="105.1" width="119.99" height="10.07" transform="translate(63.47 307.6) rotate(-72.02)"/><polygon class="cls-14" points="263.62 63.92 259.88 75.47 247.19 81.94 250.94 70.39 263.62 63.92"/><polygon class="cls-14" points="255.65 88.51 251.9 100.05 239.22 106.52 242.96 94.97 255.65 88.51"/><polygon class="cls-14" points="247.67 113.09 243.92 124.64 231.24 131.1 234.98 119.56 247.67 113.09"/><polygon class="cls-14" points="239.69 137.68 235.95 149.22 223.26 155.69 227.01 144.14 239.69 137.68"/><g class="cls-15"><rect class="cls-2" x="183.34" y="107.85" width="119.99" height="4.56" transform="translate(63.47 307.6) rotate(-72.02)"/></g><rect class="cls-16" x="168.62" y="220.85" width="103.01" height="32.83" rx="5.66"/><g class="cls-17"><path class="cls-16" d="M280.06,130.43H160.18c.38-7.52,4.44-10.25,12-10.25,7.9,0,7.51-10.67,7.51-10.67V84.22h80.94v25.29s0,.35,0,.94a1.34,1.34,0,0,1,0,.21c0,.44.08,1,.17,1.59,0,.1,0,.19,0,.28s.08.44.13.67a2,2,0,0,0,.05.24l0,.08c0,.12.06.25.09.37l.12.44s0,.06,0,.09q.12.42.27.81c.07.17.13.34.2.5s.13.3.2.44l0,.06.21.4,0,0,.23.39c.09.15.2.29.3.44l.13.17.13.17.07.08s0,0,0,0l.28.3h0l.36.35.37.3a.1.1,0,0,1,.05,0h0l.36.26.46.25.07,0,.2.09a1,1,0,0,0,.22.09l0,0a3.19,3.19,0,0,0,.33.11l.26.08a1.39,1.39,0,0,0,.19.06l.2.05.66.11.54,0,.43,0h1.37l.65,0,.37,0,.4,0,.72.1.48.08.76.16h0l.35.09h0l.42.12.34.12.4.14.39.17a.75.75,0,0,1,.13.06h0l.23.12.3.15,0,0,.35.19c.12.08.24.15.35.24a1.77,1.77,0,0,1,.17.12l.16.12a2.43,2.43,0,0,1,.25.2c.12.09.23.19.34.29s.15.15.23.23l.13.15.25.27a8.22,8.22,0,0,1,.84,1.22l.15.27.12.24c.06.14.13.28.19.43l.13.33c0,.09.07.19.1.28.09.24.16.49.23.75h0a1.78,1.78,0,0,1,.09.33h0c0,.15.08.3.11.46l.06.33s0,.06,0,.09a3.43,3.43,0,0,1,.06.34s0,.07,0,.11v0c0,.2.05.41.08.62a.34.34,0,0,0,0,.1v0s0,.08,0,.11l0,.34,0,.37Z"/></g><g class="cls-10"><path class="cls-2" d="M280.06,242.74c-.16,1.81-1.26,7-8.66,7H220.12V84.22h40.47v25.29s0,.35,0,.94a1.34,1.34,0,0,1,0,.21c0,.44.08,1,.17,1.59,0,.1,0,.19,0,.28s.08.44.13.67a2,2,0,0,0,.05.24l0,.08c0,.12.06.25.09.37l.12.44s0,.06,0,.09q.12.42.27.81c.07.17.13.34.2.5s.13.3.2.44l0,.06.21.4,0,0,.23.39c.09.15.2.29.3.44l.13.17.13.17.07.08s0,0,0,0l.28.3h0l.36.35.37.3a.1.1,0,0,1,.05,0h0l.36.26.46.25.07,0,.2.09a1,1,0,0,0,.22.09l0,0a3.19,3.19,0,0,0,.33.11l.26.08a1.39,1.39,0,0,0,.19.06l.2.05.66.11.54,0,.43,0h1.37l.65,0,.37,0,.4,0,.72.1.48.08.76.16h0l.35.09h0l.42.12.34.12.4.14.39.17a.75.75,0,0,1,.13.06h0l.23.12.3.15,0,0,.35.19c.12.08.24.15.35.24a1.77,1.77,0,0,1,.17.12l.16.12a2.43,2.43,0,0,1,.25.2c.12.09.23.19.34.29s.15.15.23.23l.13.15.25.27a8.22,8.22,0,0,1,.84,1.22l.15.27.12.24c.06.14.13.28.19.43l.13.33c0,.09.07.19.1.28.09.24.16.49.23.75h0a1.78,1.78,0,0,1,.09.33h0c0,.15.08.3.11.46l.06.33s0,.06,0,.09a3.43,3.43,0,0,1,.06.34s0,.07,0,.11v0c0,.2.05.41.08.62a.34.34,0,0,0,0,.1v0s0,.08,0,.11l0,.34,0,.37v.18c0,.13,0,.26,0,.39s0,.5,0,.75V242.14A4.44,4.44,0,0,1,280.06,242.74Z"/></g><path class="cls-18" d="M168.62,140.29V231.6a5.65,5.65,0,0,0,5.66,5.66H266a5.66,5.66,0,0,0,5.66-5.66V140.29Z"/><g class="cls-10"><path class="cls-2" d="M280.06,242.74c-.16,1.81-1.26,7-8.66,7H168.85a10.18,10.18,0,0,1-5.06-1.15,7.59,7.59,0,0,1-3.64-6.49V225L265.49,119.71a3.19,3.19,0,0,0,.33.11l.26.08a1.39,1.39,0,0,0,.19.06l.2.05.66.11.54,0,.43,0h1.37l.65,0,.37,0,.4,0,.72.1.48.08.76.16h0l.35.09h0l.42.12.34.12.4.14.39.17a.75.75,0,0,1,.13.06h0l.23.12.3.15,0,0,.35.19c.12.08.24.15.35.24a1.77,1.77,0,0,1,.17.12l.16.12a2.43,2.43,0,0,1,.25.2c.12.09.23.19.34.29s.15.15.23.23l.13.15.25.27a8.22,8.22,0,0,1,.84,1.22l.15.27.12.24c.06.14.13.28.19.43l.13.33c0,.09.07.19.1.28.09.24.16.49.23.75h0a1.78,1.78,0,0,1,.09.33h0c0,.15.08.3.11.46l.06.33s0,.06,0,.09a3.43,3.43,0,0,1,.06.34s0,.07,0,.11v0c0,.2.05.41.08.62a.34.34,0,0,0,0,.1v0s0,.08,0,.11l0,.34,0,.37v.18c0,.13,0,.26,0,.39s0,.5,0,.75V242.14A4.44,4.44,0,0,1,280.06,242.74Z"/></g><g class="cls-10"><path class="cls-2" d="M280.06,242.74c-.16,1.81-1.26,7-8.66,7H168.85a10.18,10.18,0,0,1-5.06-1.15,7.59,7.59,0,0,1-3.64-6.49V214.28L261,113.44l0,.08c0,.12.06.25.09.37l.12.44s0,.06,0,.09q.12.42.27.81c.07.17.13.34.2.5s.13.3.2.44l0,.06.21.4,0,0,.23.39c.09.15.2.29.3.44l.13.17.13.17.07.08s0,0,0,0l.28.3h0l.36.35.37.3a.1.1,0,0,1,.05,0h0l.36.26.46.25.07,0,.2.09a1,1,0,0,0,.22.09l0,0a3.19,3.19,0,0,0,.33.11l.26.08a1.39,1.39,0,0,0,.19.06l.2.05.66.11.54,0,.43,0h1.37l.65,0,.37,0,.4,0,.72.1.48.08.76.16h0l.35.09h0l.42.12.34.12.4.14.39.17a.75.75,0,0,1,.13.06h0l.23.12.3.15,0,0,.35.19c.12.08.24.15.35.24a1.77,1.77,0,0,1,.17.12l.16.12a2.43,2.43,0,0,1,.25.2c.12.09.23.19.34.29s.15.15.23.23l.13.15.25.27a8.22,8.22,0,0,1,.84,1.22l.15.27.12.24c.06.14.13.28.19.43l.13.33c0,.09.07.19.1.28.09.24.16.49.23.75h0a1.78,1.78,0,0,1,.09.33h0c0,.15.08.3.11.46l.06.33s0,.06,0,.09a3.43,3.43,0,0,1,.06.34s0,.07,0,.11v0c0,.2.05.41.08.62a.34.34,0,0,0,0,.1v0s0,.08,0,.11l0,.34,0,.37v.18c0,.13,0,.26,0,.39s0,.5,0,.75V242.14A4.44,4.44,0,0,1,280.06,242.74Z"/></g><rect class="cls-12" x="179.64" y="82.84" width="80.96" height="4.39" rx="0.57"/><rect class="cls-19" x="176.26" y="89.35" width="87.73" height="5.66" rx="1.7"/><rect class="cls-19" x="176.26" y="100.67" width="87.73" height="5.66" rx="1.7"/><rect class="cls-20" x="179.64" y="106.33" width="80.95" height="1.59"/><rect class="cls-20" x="179.64" y="95.01" width="80.95" height="1.59"/><g class="cls-10"><path class="cls-2" d="M188.37,224.05,208,204.43l63.64-63.64,8.43-8.43v-2.05l0-.37,0-.34s0-.07,0-.11v0a.34.34,0,0,1,0-.1c0-.21-.05-.42-.08-.62v0s0-.07,0-.11a3.43,3.43,0,0,0-.06-.34s0-.07,0-.09l-.06-.33c0-.16-.07-.31-.11-.46h0a1.78,1.78,0,0,0-.09-.33h0c-.07-.26-.14-.51-.23-.75,0-.09-.06-.19-.1-.28l-.13-.33c-.06-.15-.13-.29-.19-.43l-.12-.24-.15-.27a8.22,8.22,0,0,0-.84-1.22l-.25-.27-.13-.15c-.08-.08-.16-.15-.23-.23s-.22-.2-.34-.29a2.43,2.43,0,0,0-.25-.2l-.16-.12a1.77,1.77,0,0,0-.17-.12c-.11-.09-.23-.16-.35-.24l-.35-.19,0,0-.3-.15-.23-.12h0a.75.75,0,0,0-.13-.06l-.39-.17L274,121l-.34-.12-.42-.12h0l-.35-.09h0l-.76-.16-.48-.08-.72-.1-.4,0-.37,0-.65,0H268.1l-.43,0-.54,0-.66-.11-.2-.05a1.39,1.39,0,0,1-.19-.06l-.26-.08a3.19,3.19,0,0,1-.33-.11l0,0a1,1,0,0,1-.22-.09l-.2-.09-.07,0-.46-.25-.36-.26h0a.1.1,0,0,0-.05,0l-.37-.3-.36-.35h0l-.28-.3s0,0,0,0l-.07-.08-.13-.17-.13-.17c-.1-.15-.21-.29-.3-.44l-.23-.39,0,0-.21-.4,0-.06c-.07-.14-.13-.29-.2-.44s-.13-.33-.2-.5-.19-.53-.27-.81c0,0,0-.06,0-.09l-.12-.44c0-.12-.07-.25-.09-.37l0-.08a2,2,0,0,1-.05-.24c-.05-.23-.09-.45-.13-.67s0-.18,0-.28c-.09-.6-.14-1.15-.17-1.59a1.34,1.34,0,0,0,0-.21c0-.59,0-.94,0-.94v-3.18h1.7a1.7,1.7,0,0,0,1.7-1.7v-2.27a1.7,1.7,0,0,0-1.7-1.69h-1.7V95h1.7a1.7,1.7,0,0,0,1.7-1.7V91a1.7,1.7,0,0,0-1.7-1.69h-.66l-1,1L256,95l-12.91,12.91-22.51,22.51-.43.43-9.43,9.43-42.07,42.07-8.47,8.46v51.32a7.59,7.59,0,0,0,3.64,6.49l11.38-11.37Z"/></g><g class="cls-10"><path class="cls-2" d="M280.06,185v57.76c-.16,1.81-1.26,7-8.66,7H215.27l49.16-49.16Z"/></g><g class="cls-21"><path class="cls-2" d="M257.87,218.08a3.84,3.84,0,0,1-3.84,3.84h0a3.84,3.84,0,0,1-3.85-3.84v-60a3.84,3.84,0,0,1,3.85-3.84h0a3.84,3.84,0,0,1,3.84,3.84Z"/></g><g class="cls-21"><path class="cls-2" d="M245.12,178.5a1.78,1.78,0,0,1-1.78,1.78h0a1.79,1.79,0,0,1-1.79-1.78V150.62a1.79,1.79,0,0,1,1.79-1.79h0a1.79,1.79,0,0,1,1.78,1.79Z"/></g><circle class="cls-18" cx="221.8" cy="207.35" r="4.67"/><circle class="cls-18" cx="265.9" cy="154.22" r="2.7"/><circle class="cls-18" cx="189.12" cy="221.57" r="2.7"/><circle class="cls-18" cx="251.64" cy="230.66" r="4.15"/><circle class="cls-18" cx="174.85" cy="156.92" r="4.15"/><circle class="cls-22" cx="233.94" cy="173.55" r="2.55"/><circle class="cls-22" cx="220.59" cy="232.68" r="2.21"/><path class="cls-18" d="M186.12,231.41a3.21,3.21,0,1,1-3.21-3.21A3.21,3.21,0,0,1,186.12,231.41Z"/><path class="cls-22" d="M180.73,220.37a3.7,3.7,0,1,1-3.69-3.7A3.69,3.69,0,0,1,180.73,220.37Z"/><path class="cls-18" d="M179.57,212a1.51,1.51,0,1,1-1.51-1.51A1.52,1.52,0,0,1,179.57,212Z"/><path class="cls-18" d="M178.06,202.74a3.21,3.21,0,1,1-3.21-3.21A3.21,3.21,0,0,1,178.06,202.74Z"/><path class="cls-18" d="M268.06,226.51a5.1,5.1,0,1,1-5.1-5.1A5.1,5.1,0,0,1,268.06,226.51Z"/><path class="cls-22" d="M267.06,213.72a3,3,0,1,1-3-3A3,3,0,0,1,267.06,213.72Z"/><path class="cls-18" d="M267.07,200.18a4.11,4.11,0,1,1-4.11-4.11A4.11,4.11,0,0,1,267.07,200.18Z"/><circle class="cls-18" cx="217.54" cy="171.31" r="2.16"/><path class="cls-18" d="M269.8,191.06a2.73,2.73,0,1,1-2.73-2.73A2.73,2.73,0,0,1,269.8,191.06Z"/><path class="cls-22" d="M191.9,172.31a3,3,0,1,1-3-3A3,3,0,0,1,191.9,172.31Z"/><path class="cls-22" d="M180.12,181.16a3,3,0,1,1-3-3A3,3,0,0,1,180.12,181.16Z"/><circle class="cls-22" cx="180.17" cy="166.25" r="3.06"/><path class="cls-18" d="M199.87,160a6.23,6.23,0,1,1-6.23-6.22A6.23,6.23,0,0,1,199.87,160Z"/><circle class="cls-18" cx="221.45" cy="179.46" r="2.16"/><circle class="cls-18" cx="264.02" cy="179.46" r="4.11"/><g class="cls-21"><rect class="cls-2" x="197.53" y="214" width="18.85" height="18.85" rx="1.28" transform="translate(-30.84 413.7) rotate(-85.86)"/></g><g class="cls-21"><rect class="cls-2" x="194.7" y="168.73" width="18.85" height="18.85" rx="1.28" transform="translate(-66.18 196.63) rotate(-45.02)"/></g><g class="cls-21"><rect class="cls-2" x="225.42" y="181.63" width="18.85" height="18.85" rx="1.28" transform="translate(-35.4 327.52) rotate(-65.92)"/></g><path class="cls-23" d="M187.58,213.72a1.69,1.69,0,1,1-1.69-1.69A1.69,1.69,0,0,1,187.58,213.72Z"/><path class="cls-23" d="M246.17,221.57a1.71,1.71,0,1,1-1.71-1.7A1.71,1.71,0,0,1,246.17,221.57Z"/><path class="cls-23" d="M179.57,172a1.51,1.51,0,1,0-1.51,1.51A1.51,1.51,0,0,0,179.57,172Z"/><path class="cls-23" d="M246.88,201.44a1.29,1.29,0,1,1-1.29-1.29A1.29,1.29,0,0,1,246.88,201.44Z"/><path class="cls-23" d="M222.8,187.25a1,1,0,1,1-2,0,1,1,0,0,1,2,0Z"/><circle class="cls-23" cx="190.31" cy="229.73" r="1.6"/><path class="cls-23" d="M265.9,166.39a1.55,1.55,0,1,1-1.55-1.55A1.55,1.55,0,0,1,265.9,166.39Z"/><circle class="cls-23" cx="227.39" cy="216.15" r="1.75"/><circle class="cls-23" cx="195.19" cy="169.76" r="1.2"/><path class="cls-23" d="M180.73,151.52a2.67,2.67,0,1,1-2.67-2.68A2.67,2.67,0,0,1,180.73,151.52Z"/><path class="cls-11" d="M228.69,147.47,224,168.26a9.77,9.77,0,0,0,2,.05,8.36,8.36,0,0,0,5.21-2.11,7.67,7.67,0,0,0,1.91-2.88,11.37,11.37,0,0,0,.47-1.55S234.33,158.56,228.69,147.47Z"/><path class="cls-9" d="M217.89,159.37c-1.74,7.77,6.14,8.89,6.14,8.89l4.66-20.79c-2,1.73-3.64,3.24-5,4.55q-1.35,1.33-2.31,2.4a21,21,0,0,0-3.3,4.41A3,3,0,0,0,217.89,159.37Z"/><g class="cls-10"><path class="cls-2" d="M217.89,159.37c-1.74,7.77,6.14,8.89,6.14,8.89a9.77,9.77,0,0,0,2,.05,8.36,8.36,0,0,0,5.21-2.11l-9.82-11.78a21,21,0,0,0-3.3,4.41A3,3,0,0,0,217.89,159.37Z"/></g><g class="cls-10"><path class="cls-2" d="M218.11,158.83l6.33,7.59,1.58,1.89a8.36,8.36,0,0,0,5.21-2.11,7.67,7.67,0,0,0,1.91-2.88L228,157.16l-1.17-1.4-.44-.53-.07-.09-2.6-3.12q-1.35,1.33-2.31,2.4A21,21,0,0,0,218.11,158.83Z"/></g><path class="cls-2" d="M224.65,164.77a.13.13,0,0,1,.07-.12l7.17-4.07a.21.21,0,0,1,.24,0,.12.12,0,0,1,0,.19l-7.17,4.07a.18.18,0,0,1-.23,0A.1.1,0,0,1,224.65,164.77Z"/><path class="cls-2" d="M225.66,160.26a.13.13,0,0,1,.07-.12l4-2.28a.18.18,0,0,1,.23,0,.12.12,0,0,1,0,.2l-4,2.28a.18.18,0,0,1-.23,0A.13.13,0,0,1,225.66,160.26Z"/><path class="cls-2" d="M220.12,157a.14.14,0,0,1,.08-.11.18.18,0,0,1,.23,0l4.93,5.92a.12.12,0,0,1,0,.19.2.2,0,0,1-.24,0L220.15,157A.11.11,0,0,1,220.12,157Z"/><path class="cls-2" d="M223.3,155a.13.13,0,0,1,.07-.12.21.21,0,0,1,.24,0l2.76,3.32a.12.12,0,0,1,0,.2.21.21,0,0,1-.24,0l-2.76-3.32A.13.13,0,0,1,223.3,155Z"/><path class="cls-2" d="M224.1,167.18v0l3.43-15.28a.19.19,0,0,1,.2-.11c.09,0,.15.09.13.16l-3.42,15.28a.17.17,0,0,1-.2.11A.15.15,0,0,1,224.1,167.18Z"/><path class="cls-8" d="M327.48,173.76,276,248.65a27.46,27.46,0,0,1-5.16-4.84,27.15,27.15,0,0,1-6.66-19.48,34.12,34.12,0,0,1,4-13.53,50.68,50.68,0,0,1,3.53-5.9S279.63,193.31,327.48,173.76Z"/><path class="cls-9" d="M318.38,237C299.14,265,276,248.65,276,248.65l51.49-74.89c-.22,10.28-.72,19-1.37,26.3-.44,5-.95,9.3-1.5,13.08-1.75,12.23-3.87,18.67-5.13,21.66A13.53,13.53,0,0,1,318.38,237Z"/><g class="cls-10"><path class="cls-2" d="M318.38,237C299.14,265,276,248.65,276,248.65a27.46,27.46,0,0,1-5.16-4.84,27.15,27.15,0,0,1-6.66-19.48l60.44-11.19c-1.75,12.23-3.87,18.67-5.13,21.66A13.53,13.53,0,0,1,318.38,237Z"/></g><g class="cls-10"><path class="cls-2" d="M319.48,234.8,280.55,242l-9.72,1.8a27.15,27.15,0,0,1-6.66-19.48,34.12,34.12,0,0,1,4-13.53L299.73,205l7.23-1.34,2.72-.51.45-.08,16-3c-.44,5-.95,9.3-1.5,13.08C322.86,225.37,320.74,231.81,319.48,234.8Z"/></g><path class="cls-2" d="M284.62,236.62a.56.56,0,0,1-.55-.47l-5.62-30.35a.56.56,0,1,1,1.11-.2L285.18,236a.56.56,0,0,1-.45.66Z"/><path class="cls-2" d="M295.79,220.38a.56.56,0,0,1-.55-.47l-3.16-17a.56.56,0,0,1,.46-.66.55.55,0,0,1,.65.45l3.16,17.05a.57.57,0,0,1-.45.66Z"/><path class="cls-2" d="M289.37,229.83a.56.56,0,0,1-.11-1.12l30.36-5.62a.55.55,0,0,1,.65.45.56.56,0,0,1-.45.66l-30.35,5.62Z"/><path class="cls-2" d="M300.53,213.59a.57.57,0,0,1-.1-1.13l17.05-3.15a.56.56,0,1,1,.2,1.11l-17,3.16Z"/><path class="cls-2" d="M278.67,245.31a.55.55,0,0,1-.32-.1.57.57,0,0,1-.15-.79l37.85-55a.56.56,0,1,1,.93.64l-37.84,55A.57.57,0,0,1,278.67,245.31Z"/><path class="cls-11" d="M364.82,231.4l-89.37,16.54a27.63,27.63,0,0,1-.22-7.06,27.14,27.14,0,0,1,9.06-18.5,34.33,34.33,0,0,1,12.38-6.75,50.53,50.53,0,0,1,6.66-1.68S317.16,211.39,364.82,231.4Z"/><path class="cls-9" d="M313.65,269.7c-33.4,6.18-38.2-21.76-38.2-21.76l89.37-16.54c-7.43,7.11-13.92,12.9-19.57,17.63-3.82,3.2-7.25,5.9-10.3,8.18-9.89,7.42-15.94,10.47-18.95,11.7A14.07,14.07,0,0,1,313.65,269.7Z"/><g class="cls-10"><path class="cls-2" d="M313.65,269.7c-33.4,6.18-38.2-21.76-38.2-21.76a27.63,27.63,0,0,1-.22-7.06,27.14,27.14,0,0,1,9.06-18.5L335,257.21c-9.89,7.42-15.94,10.47-18.95,11.7A14.07,14.07,0,0,1,313.65,269.7Z"/></g><g class="cls-10"><path class="cls-2" d="M316,268.91l-32.63-22.43-8.14-5.6a27.14,27.14,0,0,1,9.06-18.5,34.33,34.33,0,0,1,12.38-6.75l26.48,18.2L329.2,238l2.28,1.57.38.26L345.25,249c-3.82,3.2-7.25,5.9-10.3,8.18C325.06,264.63,319,267.68,316,268.91Z"/></g><path class="cls-2" d="M290.47,245.71a.55.55,0,0,1-.32-.1.57.57,0,0,1-.15-.79l17.49-25.43a.56.56,0,1,1,.93.64l-17.49,25.43A.56.56,0,0,1,290.47,245.71Z"/><path class="cls-2" d="M309.85,242.12a.55.55,0,0,1-.32-.1.57.57,0,0,1-.15-.79L319.2,227a.57.57,0,1,1,.94.64l-9.82,14.29A.57.57,0,0,1,309.85,242.12Z"/><path class="cls-2" d="M324.06,261.75a.51.51,0,0,1-.32-.1L298.3,244.16a.56.56,0,1,1,.64-.93l25.44,17.49a.57.57,0,0,1-.32,1Z"/><path class="cls-2" d="M332.29,250.49a.59.59,0,0,1-.32-.09l-14.29-9.83a.56.56,0,0,1,.64-.93l14.29,9.82a.56.56,0,0,1,.14.79A.55.55,0,0,1,332.29,250.49Z"/><path class="cls-2" d="M280.11,247.64a.56.56,0,0,1-.1-1.12l65.67-12.15a.56.56,0,1,1,.21,1.11l-65.68,12.16Z"/><path class="cls-8" d="M288.62,148.55c-5.39,4.7-13,16.81-10.91,30.1l6.23,1.71,9-30.52S294,143.86,288.62,148.55Z"/><path class="cls-9" d="M297.33,151.13c2,6.87,1.73,21.17-7.23,31.19l-6.16-2,9-30.52S295.36,144.26,297.33,151.13Z"/><path class="cls-8" d="M259.56,259c-7.56-.38-14.05-4.81-19-10-5.76-6-9.47-13-10.41-15.86-1.77-5.28,2.69-8.06,4-4.71,1,2.66,3.66,4.36,5.64,5.31a17.37,17.37,0,0,0,2.36.94l.08,0,6.76,9.46.15.2L259.5,259Z"/><path class="cls-9" d="M298.31,253.36c-4.36,3.47-24.57,13.88-38.75,5.68l.08,0,27.71-10.89a17.13,17.13,0,0,0,5,.65,9.15,9.15,0,0,0,5.16-1.51C300.44,245.14,302.66,249.9,298.31,253.36Z"/><path class="cls-9" d="M306.88,209.17a10.57,10.57,0,0,1-2.26,1.46l-.43.2-.26-1.42h0l-3-16.34a12,12,0,0,0,1.21-2,12.41,12.41,0,0,0,1.09-3.27,9.06,9.06,0,0,0,0-3.25c-.77-4.56,1-6.19,2.78-5.66.52.15,1.75,2.47,2.89,5.81C311.41,191.83,313.39,203.7,306.88,209.17Z"/><path class="cls-9" d="M298.48,240.91a18.59,18.59,0,0,1-1.9.24,13.52,13.52,0,0,1,1.75-10.29,13,13,0,0,1,2.45-2.78,9.69,9.69,0,0,0,4.14-1.84c2.31-1.67,5-4.84,6.22-10.82,0,0,.51-2.78,2.58-2.11S314.68,238,298.48,240.91Z"/><path class="cls-8" d="M266.05,167c-1.75-.51-24,15.35-15.81,27.86l12.38-13.16s-.45-5,2.68-8.44S267.8,167.52,266.05,167Z"/><path class="cls-8" d="M242.94,220.55a13.21,13.21,0,0,1-2.82,3.89c-.48-.36-.92-.74-1.34-1.12l-.35-.32c-4.11-4-5.26-9.17-4.92-14.13.6-9.05,6.09-17.46,7.39-17.11,2.1.57,1,3.17,1,3.17a18.86,18.86,0,0,0-1.33,10.1,12.36,12.36,0,0,0,.74,2.56,9.57,9.57,0,0,0,2.4,3.6A12.84,12.84,0,0,1,242.94,220.55Z"/><path class="cls-24" d="M304.64,227.22a55.25,55.25,0,0,1-3.37,8.68,50.4,50.4,0,0,1-2.79,5,48.12,48.12,0,0,1-6.1,7.86c-9,9.38-20.82,13.79-31.81,10.54q-.46-.13-.93-.3l-.14,0a27.27,27.27,0,0,1-12.58-9.13,32.47,32.47,0,0,1-2.15-3.08,37,37,0,0,1-3.29-6.85,42.4,42.4,0,0,1-1.73-6.12,48.34,48.34,0,0,1-1-10.47v-.51a55.37,55.37,0,0,1,2.29-14.41c.08-.27.16-.54.25-.81.38-1.25.81-2.47,1.28-3.66a53.48,53.48,0,0,1,6.34-11.78,43.67,43.67,0,0,1,13.75-12.68,35,35,0,0,1,4-2,29.19,29.19,0,0,1,10.66-2.25,25.45,25.45,0,0,1,7.13.89l.62.17.51.15h0a24.75,24.75,0,0,1,4.23,1.79,23.86,23.86,0,0,1,2.33,1.39,28.89,28.89,0,0,1,7.55,7.45h0c.44.61.85,1.25,1.25,1.9s.79,1.34,1.16,2a43.6,43.6,0,0,1,4.7,18.13c.07,1.26.08,2.54,0,3.83,0,.83-.06,1.68-.12,2.52a55.34,55.34,0,0,1-1.88,10.72C304.83,226.57,304.74,226.89,304.64,227.22Z"/><path class="cls-25" d="M304.64,227.22a55.25,55.25,0,0,1-3.37,8.68,50.4,50.4,0,0,1-2.79,5,48.12,48.12,0,0,1-6.1,7.86c-9,9.38-20.82,13.79-31.81,10.54q-.46-.13-.93-.3l-.14,0a27.27,27.27,0,0,1-12.58-9.13,32.47,32.47,0,0,1-2.15-3.08,37,37,0,0,1-3.29-6.85,51.88,51.88,0,0,1,.63-5.18,57.7,57.7,0,0,1,1.52-6.51,55.45,55.45,0,0,1,4.21-10.33c.15-.3.31-.59.47-.88a46,46,0,0,1,16.22-17.3c.65-.4,1.31-.76,2-1.1,6.77-3.51,14.16-4.57,21.2-2.49l.12,0a25.6,25.6,0,0,1,7.87,3.93,30.36,30.36,0,0,1,8.24,9.3q.36.6.69,1.23c.49.93.95,1.88,1.38,2.87.28.66.54,1.34.8,2a55.34,55.34,0,0,1-1.88,10.72C304.83,226.57,304.74,226.89,304.64,227.22Z"/><g class="cls-10"><path class="cls-2" d="M301.27,235.9a50.4,50.4,0,0,1-2.79,5,48.12,48.12,0,0,1-6.1,7.86c-9,9.38-20.82,13.79-31.81,10.54q-.46-.13-.93-.3l-.14,0a27.27,27.27,0,0,1-12.58-9.13l0-.08a47.37,47.37,0,0,1,1.86-5.18c0-.12.1-.25.15-.37a49.62,49.62,0,0,1,2.29-4.62c0-.09.1-.18.16-.27a43.82,43.82,0,0,1,2.61-4c.38-.53.78-1.05,1.18-1.55,5-6.29,11.35-10.65,18-12.31h0a23.55,23.55,0,0,1,11-.17c.46.1.92.22,1.37.36a22,22,0,0,1,3.23,1.23,23.91,23.91,0,0,1,7.42,5.51c.08.09.17.18.25.28a26.57,26.57,0,0,1,1.81,2.25A31.66,31.66,0,0,1,301.27,235.9Z"/></g><g class="cls-10"><path class="cls-2" d="M298.31,253.36c-4.36,3.47-24.57,13.88-38.75,5.68-7.56-.38-14.05-4.81-19-10-5.76-6-9.47-13-10.41-15.86-1.77-5.28,2.69-8.06,4-4.71,1,2.66,3.66,4.36,5.64,5.31a48.34,48.34,0,0,1-1-10.47l-.35-.32.35-.19,4.16-2.26,4.9-2.66,43.8-23.8L301,189l2.25-1.23,5.71-3.1c2.43,7.16,4.41,19-2.1,24.5.07,1.26.08,2.54,0,3.83,0,.83-.06,1.68-.12,2.52a55.34,55.34,0,0,1-1.88,10.72c2.31-1.67,5-4.84,6.22-10.82,0,0,.51-2.78,2.58-2.11s1,24.69-15.24,27.6a48.12,48.12,0,0,1-6.1,7.86,9.15,9.15,0,0,0,5.16-1.51C300.44,245.14,302.66,249.9,298.31,253.36Z"/></g><g class="cls-10"><path class="cls-2" d="M306.88,209.17c.07,1.26.08,2.54,0,3.83l-.92.5-7.17,3.9L288,223.31l-6.2,3.36-1.65.9L258.33,239.4l-.09,0-5.34,2.9-3.8,2.06-.3.17-4,2.18-4.21,2.29c-5.76-6-9.47-13-10.41-15.86-1.77-5.28,2.69-8.06,4-4.71,1,2.66,3.66,4.36,5.64,5.31a48.34,48.34,0,0,1-1-10.47l-.35-.32c-4.11-4-5.26-9.17-4.92-14.13l7.07-3.84,2-1.1,18.52-10.07,26.06-14.15.47-.25,2.23-1.21,4.69-2.55,3.84-2.09c1.54,3.7-.69,10.17,1.21,13.21a1,1,0,0,1,.14.27h0c.44.61.85,1.25,1.25,1.9l2.25-1.23a9.06,9.06,0,0,0,0-3.25c-.77-4.56,1-6.19,2.78-5.66.52.15,1.75,2.47,2.89,5.81C311.41,191.83,313.39,203.7,306.88,209.17Z"/></g><path class="cls-24" d="M286,176.42s-4.92-2.1-4.14-5.91a4,4,0,0,0-4.75-4.45c-4.6.64-6.22,9.38-10,11.15S286,176.42,286,176.42Z"/><path class="cls-24" d="M291,181.3l-2.73-2.16c-1.32-1-2.44-2-3.17-2.56a.12.12,0,0,1-.05-.05l-.49-.39-.32-.26a7.27,7.27,0,0,0,1,.09h.07c1.61.06,4.62-.2,5.64-2.81a4,4,0,0,1,5.49-1.8,4.92,4.92,0,0,1,.92.66,4.34,4.34,0,0,1,1.12,1.59c1.54,3.7-.69,10.17,1.21,13.21a1,1,0,0,1,.14.27h0C300.31,188.42,295.41,184.78,291,181.3Z"/><path class="cls-2" d="M297.18,226.57c-.28,1-.59,1.87-.92,2.78q-.81,2.15-1.8,4.14c-6.55,13.08-19.08,20.55-30.4,17.2a19.33,19.33,0,0,1-6.85-3.64,23.38,23.38,0,0,1-5.75-7c-4-7.39-5.05-17.47-2.06-27.58,5.1-17.23,19.93-28,33.12-24.12S302.28,209.34,297.18,226.57Z"/><path class="cls-26" d="M296.26,229.35c-5.8,15.59-19.73,25-32.2,21.34A21.34,21.34,0,0,1,251.46,240a35.55,35.55,0,0,1,1.34-13.75c4.47-15.13,17.5-24.61,29.08-21.18C291.06,207.79,296.58,217.79,296.26,229.35Z"/><path class="cls-27" d="M294.46,233.49c-6.55,13.08-19.08,20.55-30.4,17.2a19.33,19.33,0,0,1-6.85-3.64,30.52,30.52,0,0,1,1.28-8.19c3.8-12.85,14.86-20.9,24.7-18C288.75,222.51,292.73,227.31,294.46,233.49Z"/><path class="cls-28" d="M291.21,206.05a1.72,1.72,0,1,1-1.16-2.13A1.72,1.72,0,0,1,291.21,206.05Z"/><path class="cls-28" d="M282.87,193.4a1.24,1.24,0,1,1-.84-1.54A1.24,1.24,0,0,1,282.87,193.4Z"/><path class="cls-28" d="M268.81,236.52A1.24,1.24,0,1,1,268,235,1.24,1.24,0,0,1,268.81,236.52Z"/><path class="cls-28" d="M267.3,246a1.24,1.24,0,1,1-.84-1.54A1.24,1.24,0,0,1,267.3,246Z"/><path class="cls-28" d="M277.61,245.08a1.24,1.24,0,0,1-1.54.84,1.26,1.26,0,0,1-.84-1.55,1.25,1.25,0,0,1,1.55-.83A1.23,1.23,0,0,1,277.61,245.08Z"/><path class="cls-28" d="M266.53,199.34a1.14,1.14,0,1,1-.77-1.41A1.15,1.15,0,0,1,266.53,199.34Z"/><path class="cls-28" d="M261,226.27a1.14,1.14,0,1,1-.77-1.41A1.13,1.13,0,0,1,261,226.27Z"/><circle class="cls-28" cx="281.26" cy="211.91" r="1.69" transform="translate(-67.06 160.07) rotate(-28.53)"/><path class="cls-28" d="M253.41,220.89a1.69,1.69,0,1,1-1.14-2.1A1.68,1.68,0,0,1,253.41,220.89Z"/><path class="cls-28" d="M273.53,194.52a.93.93,0,1,1-.63-1.16A.92.92,0,0,1,273.53,194.52Z"/><path class="cls-28" d="M261,207.15a1.2,1.2,0,1,1-.81-1.49A1.2,1.2,0,0,1,261,207.15Z"/><path class="cls-28" d="M273.59,217.22a1.59,1.59,0,1,1-1.07-2A1.58,1.58,0,0,1,273.59,217.22Z"/><path class="cls-28" d="M275.76,200.88a1.18,1.18,0,1,1-.8-1.46A1.19,1.19,0,0,1,275.76,200.88Z"/><path class="cls-28" d="M291.56,220.54a1.09,1.09,0,1,1-.73-1.36A1.08,1.08,0,0,1,291.56,220.54Z"/><path class="cls-28" d="M281.72,226.83a1.19,1.19,0,1,1-.8-1.48A1.18,1.18,0,0,1,281.72,226.83Z"/><path class="cls-28" d="M262.47,217.23a1.16,1.16,0,0,1-2.22-.65,1.17,1.17,0,0,1,1.44-.78A1.15,1.15,0,0,1,262.47,217.23Z"/><path class="cls-28" d="M253.87,213.39a1.25,1.25,0,0,1-1.55.84,1.24,1.24,0,0,1,.71-2.38A1.25,1.25,0,0,1,253.87,213.39Z"/><path class="cls-28" d="M288.3,198.71a1.07,1.07,0,1,1-.72-1.33A1.07,1.07,0,0,1,288.3,198.71Z"/><path class="cls-28" d="M256,235.06a1.07,1.07,0,1,1-.72-1.33A1.06,1.06,0,0,1,256,235.06Z"/><path class="cls-28" d="M288.41,234.39a1.14,1.14,0,0,1-1.4.76,1.12,1.12,0,0,1-.76-1.4,1.13,1.13,0,1,1,2.16.64Z"/><path class="cls-28" d="M273.93,229.72a1.49,1.49,0,1,1-1-1.85A1.49,1.49,0,0,1,273.93,229.72Z"/><path class="cls-28" d="M279.19,238.51a1,1,0,1,1-.7-1.29A1,1,0,0,1,279.19,238.51Z"/><path class="cls-8" d="M209.58,210.13,189,194.78a8.51,8.51,0,0,0-1.34,1.55,6.09,6.09,0,0,0-1,5.33,7.78,7.78,0,0,0,2,3.13,12.44,12.44,0,0,0,1.45,1.24S193.38,208.41,209.58,210.13Z"/><path class="cls-9" d="M203.07,194.88c-7.68-5.74-14-.1-14-.1l20.54,15.35c-.66-2.56-1.32-4.71-2-6.5-.42-1.22-.83-2.27-1.22-3.18a20.1,20.1,0,0,0-2.87-5.09A2.93,2.93,0,0,0,203.07,194.88Z"/><g class="cls-10"><path class="cls-2" d="M203.07,194.88c-7.68-5.74-14-.1-14-.1a8.51,8.51,0,0,0-1.34,1.55,6.09,6.09,0,0,0-1,5.33l19.69-1.21a20.1,20.1,0,0,0-2.87-5.09A2.93,2.93,0,0,0,203.07,194.88Z"/></g><g class="cls-10"><path class="cls-2" d="M203.54,195.36l-12.68.78-3.16.19a6.09,6.09,0,0,0-1,5.33,7.78,7.78,0,0,0,2,3.13l10.28-.63,2.36-.15.88,0h.15l5.2-.32c-.42-1.22-.83-2.27-1.22-3.18A20.1,20.1,0,0,0,203.54,195.36Z"/></g><path class="cls-2" d="M192.45,197.21h0c.11,0,.19,0,.19.14v8a.2.2,0,0,1-.2.17.16.16,0,0,1-.19-.14l0-8A.19.19,0,0,1,192.45,197.21Z"/><path class="cls-2" d="M196.91,200.54h0c.11,0,.2.05.2.14v4.48a.2.2,0,0,1-.2.17.16.16,0,0,1-.19-.14V200.7A.19.19,0,0,1,196.91,200.54Z"/><path class="cls-2" d="M194.34,198.6h0l9.88-.6a.16.16,0,0,1,.19.14.19.19,0,0,1-.19.17l-9.89.6a.16.16,0,0,1-.19-.14A.19.19,0,0,1,194.34,198.6Z"/><path class="cls-2" d="M198.8,201.93h0l5.55-.34c.11,0,.19.06.19.15a.18.18,0,0,1-.19.16l-5.55.34c-.11,0-.19,0-.19-.14A.18.18,0,0,1,198.8,201.93Z"/><path class="cls-2" d="M190.08,195.43a.25.25,0,0,1,.17,0l15.09,11.28a.13.13,0,0,1,0,.22.21.21,0,0,1-.27,0L190,195.7a.13.13,0,0,1,0-.22A.19.19,0,0,1,190.08,195.43Z"/></g></g></svg>