<?xml version="1.0"?>
<svg xmlns="http://www.w3.org/2000/svg" xmlns:xlink="http://www.w3.org/1999/xlink" version="1.1" id="Capa_1" x="0px" y="0px" viewBox="0 0 511.998 511.998" style="enable-background:new 0 0 511.998 511.998;" xml:space="preserve" width="512px" height="512px" class="hovered-paths"><g><path style="fill:#9256BE" d="M491.02,246.726l-38.297,10.127c-0.377,0.209-5.442,0.536-5.315,5.194  c0.53,18.238-1.583,37.51-6.771,56.521c-0.532,1.939,0.181,4.008,1.828,5.174l33.294,23.609c7.615,5.385,9.866,15.692,5.204,23.77  l-6.138,10.629c-10.137,17.548-5.28,9.141-6.651,11.513c-4.692,8.128-14.838,11.312-23.328,7.314l-25.498-11.995  c-0.102-0.048-7.492-3.526-7.022-3.305c-1.999-0.934-4.4-0.382-5.757,1.366c-12.668,16.275-27.869,30.481-45.008,42.034  c-1.688,1.145-2.502,3.205-1.979,5.174l8.891,33.997c2.361,9.022-2.532,18.355-11.292,21.549c-2.473,0.899,8.927-3.247-24.031,8.74  c-8.821,3.215-18.636-0.874-22.574-9.393l-11.513-24.895c-0.735-1.026-1.84-7.033-6.781-6.018  c-12.709,2.612-25.869,3.988-39.352,3.988c-8.71,0-17.29-0.573-25.689-1.688c-2.07-0.271-4.079,0.794-4.973,2.682l-13.432,28.381  c-3.988,8.429-13.743,12.427-22.504,9.243c-2.458-0.895,8.901,3.241-24.031-8.75c-8.821-3.205-13.713-12.648-11.252-21.7  l7.324-27.005c0-0.356,2.012-4.485-1.879-6.711c-19.189-10.971-36.328-25.116-50.704-41.722c-1.396-1.617-3.677-2.13-5.616-1.246  l-28.632,13.151c-8.479,3.898-18.525,0.693-23.187-7.374c-1.313-2.275,4.737,8.205-12.789-22.152  c-4.692-8.128-2.371-18.495,5.335-23.86l23.076-16.044c0.882-0.904,6.167-2.805,4.601-7.434  c-6.621-19.57-10.207-40.527-10.207-62.328v-0.04c0-2.14-1.406-4.019-3.476-4.581l-34.067-9.343  c-8.991-2.461-14.638-11.372-13.01-20.555l2.11-11.985l2.331-13.201c1.628-9.243,10.066-15.702,19.42-14.848  c6.352,0.577-17.387-1.579,36.498,3.315c2.09,0.191,4.049-1.025,4.852-2.964c7.565-18.335,17.852-35.263,30.37-50.272  c1.376-1.658,1.507-4.019,0.281-5.797l-23.247-33.615c-5.304-7.675-3.898-18.124,3.245-24.111l10.659-8.941l8.931-7.495  c7.183-6.038,17.802-5.556,24.423,1.105l27.065,27.256c1.42,0.992,3.897,5.783,8.258,3.496  c15.974-8.338,33.243-14.527,51.437-18.174c2.049-0.412,3.566-2.14,3.767-4.219l4.24-45.46c0.864-9.283,8.66-16.386,17.983-16.386  h25.568c9.393,0,17.219,7.193,18.003,16.556l3.466,41.12l0.352,4.169c0.171,2.13,1.748,3.858,3.838,4.28  c17.43,3.516,34.007,9.373,49.408,17.209c1.838,0.944,4.069,0.623,5.536-0.834l33.846-33.444c6.631-6.56,17.159-6.992,24.312-0.995  c2.04,1.713-7.316-6.141,19.58,16.436c7.193,6.038,8.57,16.576,3.155,24.252c-0.426,0.605,3.57-5.063-26.03,36.91  c-1.256,1.788-1.125,4.179,0.281,5.847c11.423,13.553,21.017,28.692,28.431,45.028c0.834,1.849,2.723,2.984,4.742,2.823l45.56-3.727  c9.303-0.753,17.641,5.686,19.259,14.869l3.998,22.665l0.442,2.522C505.828,235.374,500.102,244.325,491.02,246.726z" data-original="#76FFD9" class="" data-old_color="#76FFD9"/><path style="fill:#7B21BE" d="M252.991,104.957c-90.484,0-164.099,73.615-164.099,164.1s73.615,164.099,164.099,164.099  s164.1-73.614,164.1-164.099S343.475,104.957,252.991,104.957z" data-original="#5DE0BF" class="" data-old_color="#5DE0BF"/><circle style="fill:#3E3D42;" cx="252.986" cy="269.051" r="132.953" data-original="#3E3D42"/><path style="fill:#D8E0EA;" d="M385.946,269.059c0,66.597-48.966,121.762-112.861,131.446c-6.55,0.995-13.261,1.507-20.093,1.507  c-73.429,0-132.953-59.525-132.953-132.953s59.525-132.953,132.953-132.953c6.831,0,13.542,0.512,20.093,1.507  C336.979,147.298,385.946,202.462,385.946,269.059z" data-original="#D8E0EA"/><g>
	<path style="fill:#FFFFFF;" d="M385.946,269.059c0,66.597-48.966,121.762-112.861,131.446   c-63.895-9.685-112.861-64.849-112.861-131.446s48.966-121.762,112.861-131.446C336.979,147.298,385.946,202.462,385.946,269.059z" data-original="#FFFFFF"/>
	<path style="fill:#FFFFFF;" d="M287.481,68.122h-19.42c-8.288,0-15.07-6.781-15.07-15.07V13.541c0-1.065,0.111-2.1,0.332-3.094   h12.689c9.393,0,17.219,7.193,18.003,16.556L287.481,68.122z" data-original="#FFFFFF"/>
	<path style="fill:#FFFFFF;" d="M154.759,91.189l-13.643,11.443c-6.349,5.325-15.903,4.491-21.228-1.859l-25.397-30.27l-0.151-0.181   l8.931-7.495c7.183-6.038,17.802-5.556,24.423,1.105L154.759,91.189z" data-original="#FFFFFF"/>
	<path style="fill:#FFFFFF;" d="M64.753,195.711l-3.325,18.827c-1.437,8.158-9.293,13.663-17.451,12.216l-34.047-5.998l2.331-13.201   c1.628-9.243,10.066-15.702,19.42-14.848L64.753,195.711z" data-original="#FFFFFF"/>
	<path style="fill:#FFFFFF;" d="M66.803,372.065l-25.528,14.748l-5.706-9.886c-4.692-8.128-2.371-18.495,5.335-23.86l23.076-16.044   l8.338,14.457C76.467,358.663,73.986,367.925,66.803,372.065z" data-original="#FFFFFF"/>
	<path style="fill:#FFFFFF;" d="M176.69,465.686l-10.036,27.587l-4.35-1.587c-8.821-3.205-13.713-12.648-11.252-21.7l7.324-27.005   l9.313,3.396C175.474,449.21,179.523,457.901,176.69,465.686z" data-original="#FFFFFF"/>
	<path style="fill:#FFFFFF;" d="M337.622,496.509l-4.471,1.628c-8.821,3.215-18.636-0.874-22.574-9.393l-11.513-24.895l9.393-3.416   c7.786-2.833,16.476,1.216,19.319,9.012L337.622,496.509z" data-original="#FFFFFF"/>
	<path style="fill:#FFFFFF;" d="M474.383,382.513l-6.209,10.75c-4.692,8.128-14.838,11.312-23.328,7.314l-25.498-11.995   l-1.979-0.934l8.489-14.708c4.39-7.615,14.216-10.247,21.821-5.847L474.383,382.513z" data-original="#FFFFFF"/>
	<path style="fill:#FFFFFF;" d="M491.02,246.726l-38.297,10.127l-1.537-8.74c-1.437-8.158,4.059-16.014,12.226-17.461l38.91-6.862   c0.482-0.08,0.954-0.141,1.427-0.181l0.442,2.522C505.828,235.374,500.102,244.325,491.02,246.726z" data-original="#FFFFFF"/>
	<path style="fill:#FFFFFF;" d="M427.507,99.196l-22.956,32.55l-11.443-9.604c-6.349-5.325-7.183-14.879-1.859-21.228l25.407-30.27   c0.362-0.432,0.743-0.834,1.135-1.206l6.56,5.505C431.546,80.982,432.922,91.52,427.507,99.196z" data-original="#FFFFFF"/>
</g><path style="fill:#434C54;" d="M511.615,224.818L511.615,224.818l-4.441-25.181c-2.31-13.094-14.052-22.136-27.293-21.069  l-43.629,3.562c-7.236-15.558-16.441-30.149-27.393-43.419l24.804-35.178c7.605-10.785,5.644-25.878-4.465-34.362L409.61,52.735  c-10.186-8.546-24.995-7.941-34.45,1.403l-32.422,32.048c-15.113-7.511-31.097-13.083-47.575-16.59l-3.638-43.231  c-1.108-13.151-12.312-23.451-25.509-23.451h-25.571c-13.294,0-24.252,9.982-25.488,23.218l-4.052,43.417  c-17.228,3.645-33.892,9.535-49.593,17.533l-28.275-28.462c-9.3-9.36-24.504-10.05-34.615-1.569L78.835,73.487  c-10.184,8.545-12.161,23.235-4.599,34.171l22.059,31.895c-12.101,14.824-22,31.216-29.457,48.779l-34.474-3.13  c-13.15-1.197-25.233,8.051-27.526,21.047L0.399,231.43c-2.309,13.093,5.619,25.618,18.441,29.133l32.009,8.775  c0.209,20.738,3.554,41.144,9.951,60.72l-24.193,16.82c-10.836,7.534-14.154,22.387-7.556,33.817l12.785,22.143  c6.648,11.514,20.771,16.014,32.854,10.464l26.756-12.288c14.282,16.168,30.909,29.855,49.468,40.726l-7.131,26.266  c-3.458,12.735,3.547,26.247,15.949,30.762l24.028,8.745c2.917,1.062,5.9,1.569,8.833,1.569c9.625-0.001,18.699-5.461,23.059-14.672  l12.574-26.561c21.039,2.566,42.643,1.815,63.377-2.206l12.14,26.26c5.538,11.979,19.589,17.83,31.992,13.313l24.028-8.745  c12.493-4.547,19.374-17.676,16.009-30.537l-8.401-32.096c16.547-11.387,31.251-25.099,43.753-40.802l30.518,14.355  c11.943,5.616,26.467,1.064,33.065-10.365l12.785-22.145c6.648-11.514,3.482-25.994-7.364-33.681l-31.723-22.489  c4.394-16.735,6.622-34.035,6.622-51.451c0-1.046-0.009-2.12-0.027-3.212l37.956-10.036  C505.707,250.638,513.905,237.816,511.615,224.818z M489.097,239.443l-40.071,10.596c-5.547,1.465-9.309,6.488-9.147,12.212  c0.047,1.715,0.071,3.401,0.071,5.009c0,16.715-2.214,33.309-6.581,49.321c-1.36,4.985,0.544,10.333,4.741,13.308l33.298,23.605  c4.461,3.162,5.763,9.117,3.029,13.853l-12.785,22.145c-2.714,4.701-8.688,6.576-13.6,4.263l-32.517-15.295  c-5.237-2.462-11.37-1.002-14.915,3.55c-12.212,15.694-26.771,29.292-43.269,40.416c-4.346,2.929-6.379,8.287-5.058,13.334  l8.896,33.99c1.385,5.29-1.445,10.69-6.584,12.56l-24.028,8.745c-5.098,1.857-10.881-0.55-13.159-5.476l-13.056-28.24  c-2.407-5.212-8.008-8.042-13.6-6.895c-12.384,2.546-25.114,3.837-37.834,3.837c-8.244,0-16.554-0.546-24.7-1.62  c-5.341-0.7-10.47,2.078-12.765,6.924l-13.435,28.38c-2.34,4.944-7.98,7.257-13.118,5.389l-24.028-8.745  c-5.102-1.858-7.983-7.415-6.561-12.653l7.7-28.358c1.462-5.381-0.915-11.083-5.781-13.868  c-18.416-10.53-34.818-24.026-48.747-40.114c-2.398-2.77-5.863-4.266-9.375-4.266c-1.723,0-3.457,0.36-5.082,1.107l-28.638,13.153  c-4.973,2.28-10.78,0.431-13.513-4.304L42.1,373.162c-2.715-4.702-1.349-10.811,3.107-13.909l25.896-18.005  c4.468-3.108,6.364-8.896,4.613-14.076c-6.51-19.261-9.811-39.418-9.811-59.948c0.001-5.525-3.704-10.399-9.011-11.854  l-34.073-9.342c-5.274-1.445-8.534-6.596-7.584-11.982l4.439-25.181c0.942-5.346,5.916-9.139,11.322-8.658l36.499,3.315  c5.392,0.501,10.416-2.561,12.494-7.593c7.22-17.484,17.043-33.743,29.195-48.325c3.539-4.248,3.826-10.374,0.695-14.898  L86.631,99.087c-3.111-4.499-2.298-10.541,1.891-14.056l19.588-16.436c4.157-3.487,10.412-3.205,14.238,0.647l29.711,29.909  c3.82,3.842,9.627,4.732,14.449,2.211c15.578-8.132,32.209-14.006,49.431-17.461c5.258-1.056,9.281-5.541,9.783-10.905l4.243-45.46  c0.508-5.444,5.015-9.55,10.483-9.55h25.571c5.427,0,10.036,4.238,10.491,9.645l3.812,45.294c0.455,5.415,4.511,9.951,9.859,11.03  c16.484,3.331,32.458,8.897,47.475,16.543c4.756,2.423,10.485,1.542,14.26-2.192l33.84-33.449c3.888-3.844,9.983-4.093,14.169-0.578  l19.588,16.436c4.158,3.49,4.965,9.698,1.836,14.133l-26.031,36.917c-3.22,4.566-2.943,10.754,0.675,15.045  c11.068,13.132,20.264,27.695,27.335,43.285c2.148,4.737,7.072,7.62,12.212,7.213l45.567-3.721  c5.466-0.434,10.276,3.281,11.227,8.667l4.441,25.18C497.716,232.781,494.344,238.055,489.097,239.443z" data-original="#434C54"/><g>
	<path style="fill:#F237B6" d="M321.442,288.161c1.57,1.569,3.626,2.354,5.683,2.354c2.056,0,4.114-0.785,5.683-2.354   c3.138-3.139,3.138-8.228,0-11.366c-44.014-44.01-115.624-44.01-159.635,0c-3.139,3.138-3.139,8.227,0,11.366   c3.138,3.137,8.227,3.139,11.365,0C222.283,250.417,283.698,250.417,321.442,288.161z" data-original="#FFC843" class="hovered-path active-path" data-old_color="#FFC843"/>
	<path style="fill:#F237B6" d="M291.708,325.541c1.57,1.569,3.626,2.354,5.683,2.354s4.114-0.785,5.683-2.354   c3.138-3.139,3.138-8.227,0-11.366c-27.617-27.616-72.553-27.616-100.169,0c-3.139,3.139-3.139,8.227,0,11.366   c3.138,3.137,8.227,3.137,11.365,0C235.622,304.19,270.36,304.19,291.708,325.541z" data-original="#FFC843" class="hovered-path active-path" data-old_color="#FFC843"/>
	<path style="fill:#F237B6" d="M144.486,252.476c3.138,3.137,8.227,3.137,11.365,0c26.951-26.951,61.848-41.157,98.232-40.046   c36.203,1.121,70.192,17.646,95.705,46.533c1.588,1.798,3.803,2.717,6.027,2.717c1.891,0,3.788-0.663,5.318-2.013   c3.327-2.939,3.642-8.017,0.703-11.344c-28.48-32.246-66.571-50.699-107.254-51.959c-40.866-1.279-79.976,14.625-110.096,44.745   C141.347,244.248,141.347,249.336,144.486,252.476z" data-original="#FFC843" class="hovered-path active-path" data-old_color="#FFC843"/>
</g></g> </svg>
