<svg xmlns="http://www.w3.org/2000/svg" viewBox="0 0 297.05 68.39"><defs><style>.cls-1{font-size:41.72px;font-family:AttractypeReborn, Attractype Reborn;}.cls-1,.cls-8{fill:#e21d92;}.cls-2{letter-spacing:0.03em;}.cls-3{letter-spacing:0em;}.cls-4{letter-spacing:-0.03em;}.cls-5{letter-spacing:0em;}.cls-6{letter-spacing:0.05em;}.cls-7{letter-spacing:0.04em;}.cls-9{fill:#83ccbb;}.cls-10{fill:#6eb5bb;}.cls-11{fill:#e84aa8;}.cls-12{opacity:0.2;}.cls-13{fill:#fff;}.cls-14{fill:#ffebff;}.cls-15{fill:#ffceff;}.cls-16{fill:#2d061d;}</style></defs><title>Asset 8</title><g id="Layer_2" data-name="Layer 2"><g id="Layer_1-2" data-name="Layer 1"><text class="cls-1" transform="translate(0 57.06)"><tspan class="cls-2">P</tspan><tspan class="cls-3" x="21.24" y="0">i</tspan><tspan class="cls-4" x="29.54" y="0">t</tspan><tspan class="cls-5" x="37.72" y="0">aya S</tspan><tspan class="cls-6" x="120.78" y="0">m</tspan><tspan class="cls-7" x="153.78" y="0">o</tspan><tspan x="172.01" y="0">othie</tspan></text><path class="cls-8" d="M46.66,62.63c-.76,0-2.11,0-2.73.06C46.24,62.73,50.46,62.64,46.66,62.63Zm-10.38.09a8.81,8.81,0,0,1-1.9.09A7.62,7.62,0,0,1,36.28,62.72Zm13.12,0c1.48-.06,2.58-.05,4.37,0-.49,0-.73.12-1.34.14C53.26,62.63,49.84,62.83,49.4,62.71Zm-16.11.11c-.06.09-1,0-1.07.13s.46-.06,1.09,0a11.09,11.09,0,0,1-1.89.14c.3-.06.22-.09-.29-.09C31.13,62.83,32.29,62.84,33.29,62.82Zm24.6,0a42.37,42.37,0,0,1,4.37,0C61.08,62.93,59.36,62.77,57.89,62.81Zm-10.1.08a11.6,11.6,0,0,1,2.74,0C49.32,63,48.88,62.87,47.79,62.89Zm.29.13c.23.22-4.32,0-6.54.12C43.59,62.91,45.86,63.13,48.08,63Zm24.31-.14H74c.28.16-1.07.07-1.63.1C72.4,62.94,72.39,62.91,72.39,62.88Zm2.75.08a16,16,0,0,1,3.28,0C76.78,63,76.45,63,75.14,63Zm29,0c-.89.15-3.55.11-5.44.11C100.39,63,101.68,63,104.11,63Zm26,0c-.37.25-2.91,0-4.91.06C125.22,63,128.68,63,130.09,63Zm5.73,0a25.76,25.76,0,0,1-4.08.11A32.86,32.86,0,0,1,135.82,63Zm-107.06.61c-1.81.2-3.71-.13-5.73,0C23.62,63.39,26.62,63.6,28.76,63.58Zm87.14-.44a27,27,0,0,1-3,.1A22,22,0,0,1,115.9,63.14ZM2.82,63.73c1.05.06,1.51,0,2.73,0A11,11,0,0,1,2.82,63.73Zm236.43,1.54c1.2-.13,3.23,0,4.64,0A35.22,35.22,0,0,1,239.25,65.27ZM33.61,66.59c0,.08-.32.09-.25.17-1.09-.16-3-.18-4.41-.28A39.9,39.9,0,0,1,33.61,66.59Zm-13.35.27a21.82,21.82,0,0,1,2.73,0A13,13,0,0,1,20.26,66.86Zm27.92.24c1.1-.19,3.81.06,0,0Zm189.59-.77a12.28,12.28,0,0,1,2.19,0C239.54,66.45,238.72,66.26,237.77,66.33Zm-172.09.79a15.16,15.16,0,0,1-2.45,0A16.5,16.5,0,0,1,65.68,67.12ZM229,66.45c.46-.1,2.09,0,3,0-1.79.13-2.53.19-4.89.19a24.27,24.27,0,0,1,2.72-.1A4,4,0,0,0,229,66.45Zm-150.8.61c-1.83.2-3.72.12-6.53.16C73.64,67.05,75.37,67.1,78.24,67.06Zm42.9-.13c-1.33.22-3.94,0-6,.07C116.74,66.85,118.33,67,121.14,66.93Zm-72.63.52c.9-.11,3,0,4.36-.06C52,67.49,49.87,67.41,48.51,67.45Zm110.68-.19a15.47,15.47,0,0,1-3.26.1A16.8,16.8,0,0,1,159.19,67.26Zm31.26.58c-.73.1-2.64,0-3.82.06A31.22,31.22,0,0,1,190.45,67.84Zm-40.94.43c.76,0,.72.06,1.37,0C150.65,68.4,149.38,68.44,149.51,68.27ZM44,62.86c1.08-.09,1.86,0,3.27,0,0,0-.33,0-.54,0,0,0,.11,0,.28,0A22.06,22.06,0,0,1,44,62.86Zm-14.11.67c.32,0-.15.13,1.11.09,0-.13-1.2-.12.25-.14a6.56,6.56,0,0,0-1.1,0,1.66,1.66,0,0,1,.53-.1.89.89,0,0,0-.54,0c-.87-.15,1.1-.23,1.87-.27s.11.15,0,.18c1,0,1.56-.08,1.66.12-.7,0-.34,0-.29-.09-.86,0-.95.09-1.9.06a52.22,52.22,0,0,0,7.65,0,16.74,16.74,0,0,0,1.91,0,5.89,5.89,0,0,0-1.93-.13c-.38-.09,2.57,0,3.54-.06,0,.09-.9,0-.8.14.88,0,.84-.07,1.07-.14,6.15,0,11.08,0,17.78,0-1-.08,0-.1.79-.14.12.08-.2.09-.53.09a3.74,3.74,0,0,0,1.63-.09,13.4,13.4,0,0,0,1.92.08c3,0,1.84,0-1.62.09.93.1,3,0,4.38,0a3.52,3.52,0,0,1-1.64,0c1.45.41,6.91,0,10.69.18-1.32-.12-3.71-.07-5.75-.07a10.62,10.62,0,0,1,2.18,0c-.73-.31-4.8.09-5.78-.24,7.92.06,14.74.22,21.91.22.6,0,.4.08.83.08,5.42-.26,10,.09,17.77,0-.19-.17.92,0,1.62-.1.75,0-.61.1-.51.18a40.29,40.29,0,0,1,5.45-.06c-1.36,0-2.21-.05-3,0,3.17.06,7.78,0,10.66,0-2-.1-4.87,0-1.65-.08.81,0,1.64-.08,3-.06.49.09-.19.09.3.18,3.83-.1,6.85,0,9.81-.26-.06.09-1.2,0-1.36.09.77.15,2.37-.09,3,0,.37,0,.21-.11.25-.18,1.19.05.66,0,1.91,0-.24.08-1,.08-1.07.18,2.87,0,6.28.08,9.56,0a4,4,0,0,0-.82,0c.63-.16,2.68.06,4.09-.06-1.45-.16-6,0-8.23-.14-2.56,0,3.26-.06,4.09-.06,6.77,0,13.61.25,21.35.18-1.54.2-5.44.05-7.9.12.6.16,3.52-.05,3.3.16.85,0,.76-.14,1.9-.1-.09.06-.47.07-.53.14,1.15-.06,1.47,0,2.74,0a5.44,5.44,0,0,0-1.1,0c.71-.09,3.73-.08,2.74,0,8.39,0,19.28.4,29.83.23-.19-.1-1.68,0-1.93-.08-.54,0,1.81,0,2.19,0a34.2,34.2,0,0,0-4.67-.11c-1.24,0-2.63,0-4.09,0,3.85-.22,8.16-.13,13.09-.14-.16,0-.61.17.3.13-.72.11-2.63,0-3.82.06,2.67.06,5.91,0,8.49.1-.13-.1-1.45,0-1.65-.08,3.41,0,9.41.12,11.49,0,.54-.11,2.94.3,3.88.34,1.59.06,4.26-.22,4.95.19a8.59,8.59,0,0,0-1.1,0c.4.11,1.58.09,1.94.21-1-.18,4-.29,3.82-.06,1-.09,1.26-.06,2.17-.1a2.89,2.89,0,0,1-.8.14,6.78,6.78,0,0,0,2.48.07,16.38,16.38,0,0,0,3,.21,8.13,8.13,0,0,0,3.07.43c-.22.11-1.9,0-2.17.09,1.32.1.86.26,2.23.3a1.89,1.89,0,0,1-.82,0c-.57.08,1,.16,1.14.26,1.38-.1,1.39,0,2.45,0-3,.38-8.69.49-12.76.58a16,16,0,0,1-1.94-.17c-.52,0-.67.1-1.35.09.06.06,1.15.08,0,.09.54,0,2.09.12,2.2.08-.06.19-2.74.22-4.61.19-2.08.09-4.06.3-6.81.21-.36.07-.75.14-1,.22,2-.07,4.71,0,6-.2-.6.2,1.06.08,1.93.12-1.61.23-6.08,0-8.17.17,2.3.12-2.27.52-4.06.28a6.34,6.34,0,0,1-1.61.18,2,2,0,0,1,.8-.09c-2.23-.21-6.06-.15-9.58-.14a13.21,13.21,0,0,1,3-.14c-7.69-.13-19.18.28-28.39.25-1.42,0-2.87-.09-4.11-.08a12.26,12.26,0,0,1-1.67-.16c-4.52,0-6.83,0-10.94,0-.31,0-.15,0,0,0-4.06,0-9.89,0-13.68,0,5.35-.09,13.75-.07,20.5,0-3.59-.26-8.73-.1-13.69-.12-3.18,0-6.35,0-9.3,0s-6.56.12-8.2,0c-11,.07-18.71,0-28.42.08.59.06,2.7,0,4.37,0-.6.08-3,.08-4.9.07-.84,0-3.84,0-2.2-.08,1.26,0,1.66,0,2.46,0-3.3-.07-6.22-.07-7.38,0-2-.2-8.13,0-13.13,0-6.71,0-14.36.11-22.14,0-.43,0,.25.08-.26.09-.76-.08-.32,0-1.11-.12a3.72,3.72,0,0,1-1.08.09s.33,0,.54,0c-2-.12-5.65,0-7.14-.19-.86.22-5.12,0-7.64.08-.06-.28,1.22-.09,2.44-.1-2.86-.2-3.5,0-7.4-.15a45.9,45.9,0,0,0,4.67.16,65.54,65.54,0,0,1-7.93,0c.89.1,1.94.18,3,.25-2.14.07-4-.41-6.34-.33,1.76-.12,3.37.13,5.46,0-4.47-.26-9.31-.23-13.48-.56-.85,0-.5.13-1.35.1.7-.14-.89-.15-1.4-.22.13-.07,1.32,0,1.92,0,.22-.17-1.45,0-1.66-.13a11.55,11.55,0,0,1,2.19,0,15.19,15.19,0,0,0-3.87-.25c.61-.33-2.51-.29-3.33-.34.28-.1,1.72,0,2.45,0-.34-.06-1.05-.06-1.39-.13.26-.25,2-.11,2.7-.23-1.38-.09-3.31-.1-4.94-.15.18.09,1.38,0,1.12.17-1.94-.14-5-.19-5-.42.31,0,.15,0,0,0,2.15-.07,4.16.19,6.57.06a15.78,15.78,0,0,0-2.47,0c1.2-.16-.3,0-.3-.17,1.58-.07,1.84.11,2.74,0,.06-.08-.27-.09-.28,0,1.6-.34,7.59-.25,10.31-.48-.56-.1-1.69.08-2.2-.08,0,.22-.81,0-2.44.1C27.59,63.69,29.12,63.73,29.85,63.53Zm187.29.25a13,13,0,0,0,2.2.08A15.78,15.78,0,0,0,217.14,63.78Zm-15.09,3.13a16.54,16.54,0,0,0-2.72.06A18.07,18.07,0,0,0,202.05,66.91Zm-29.75.26c-.08-.09,3.15,0,4.1,0a42.37,42.37,0,0,0-5.47-.06A5.93,5.93,0,0,0,172.3,67.17Zm-116.53-4s0,.09,0,.13c.62,0,1.82-.06,1.08-.09C56.65,63.38,56.44,63.15,55.77,63.21Zm7.67.14a23.62,23.62,0,0,0-3-.12A22.77,22.77,0,0,0,63.44,63.35Zm-9.28.09a9.36,9.36,0,0,0,2.47,0A17.2,17.2,0,0,0,54.16,63.44Zm25.16.07c.9-.14,2.4.08,2.71-.14C80.5,63.33,79.13,63.37,79.32,63.51Zm-42.89.13c-.22,0-.33,0-.29-.09-1.23,0-2.31.13-3.28,0A28.33,28.33,0,0,0,36.43,63.64Zm38.8-.07h3c0-.11.5-.14-.3-.18C78.09,63.58,74.81,63.47,75.23,63.57Zm9.28-.08a12.73,12.73,0,0,0-2.2-.13C82.28,63.53,84,63.4,84.51,63.49Zm126.89.27a18.06,18.06,0,0,0,2.72,0A25.2,25.2,0,0,0,211.4,63.76Zm17.84.46c-.83,0-2.36,0-2.73,0A15,15,0,0,0,229.24,64.22Zm-.78.26c-.88-.06,1.11,0,.8-.13-1.5.07-2.7,0-3.82.06A28.94,28.94,0,0,0,228.46,64.48ZM79.85,66.84c-.83,0-2.36,0-2.73,0C78,66.86,79.49,66.94,79.85,66.84Zm126.53-.21c.49,0,1.36,0,1.11.09,1.36,0,4.21,0,3.52-.19C210.51,66.69,208,66.45,206.38,66.63Zm14.2-.14c-3.17,0-2.07.23,0,0ZM166.81,67a5.29,5.29,0,0,0,1.62-.09c-.76,0-1.89-.07-1.91,0C166.73,66.93,166.84,67,166.81,67Zm48.94.07c-.33,0-.18,0,0-.09-.83,0-2.34.06-2.74,0a6,6,0,0,1,1.36,0,10.77,10.77,0,0,0-3.28,0,13.75,13.75,0,0,1,1.92,0c-1.15,0,.18.14-.8.18C213.42,67.11,215.4,67.15,215.75,67.08ZM97.9,66.9a25.19,25.19,0,0,1-2.72.1C94.51,66.8,97.27,67,97.9,66.9Zm41-3.63a12.34,12.34,0,0,1,1.9-.1s.07.08.28.09A20.25,20.25,0,0,1,138.88,63.27ZM34.17,63.21a.34.34,0,0,1,.28,0c.71-.05,1.66-.06,2.72-.06-.09.13-1.55,0-.81.09,0,.11-.92,0-1.09,0a1.48,1.48,0,0,0-.53.09c0,.08,1.26-.08.56.08.89,0,.19-.14,1.08-.09a8.38,8.38,0,0,1-2.44.14C34.31,63.36,34.57,63.26,34.17,63.21ZM122.43,63c0,.19-.83.25-2.15.23-.59-.08,2.19,0,1.89-.18-5.28.09-7,0-12,0-.2-.17,1.49-.05,2.17-.09a1.67,1.67,0,0,1-.54,0C114.09,63.05,118.76,63,122.43,63ZM13.51,64c2.13.07,4,.17,1.12.13-.79,0-1.35-.1-2.48-.08-.05,0,.1,0,.27,0s-.11-.05-.28-.05c.91-.12,2.26.07,3.56,0A17.13,17.13,0,0,1,13.51,64Zm173.77-.57a9.07,9.07,0,0,1-1.91,0C185.86,63.36,186.21,63.42,187.28,63.38Zm45.22.73a1.43,1.43,0,0,0,.54,0c.75,0,.28.16.85.17C233.87,64.3,232.26,64.25,232.5,64.11ZM27.81,66.22a20,20,0,0,1,2.48.07A17.9,17.9,0,0,1,27.81,66.22Zm24.75.9c-.34,0-.26.09,0,.09-1.3,0-3,0-4.65,0,.48-.14,3.28.07,3-.19C51.53,67,53.84,67.21,52.56,67.12Z"/><path class="cls-9" d="M282.35,1c-3.06,2.67-7.38,9.56-6.2,17.12l3.54,1,5.14-17.36S285.42-1.65,282.35,1Z"/><path class="cls-10" d="M287.31,2.49c1.11,3.9,1,12-4.12,17.74l-3.5-1.12,5.14-17.36S286.19-1.42,287.31,2.49Z"/><path class="cls-9" d="M265.83,63.86c-4.31-.22-8-2.74-10.81-5.68a28.85,28.85,0,0,1-5.92-9c-1-3,1.53-4.59,2.25-2.68a6.2,6.2,0,0,0,3.21,3,8.67,8.67,0,0,0,1.34.53l0,0,3.84,5.37.09.12,5.92,8.28Z"/><path class="cls-10" d="M287.86,60.63c-2.47,2-14,7.9-22,3.23l0,0,15.76-6.19a10,10,0,0,0,2.86.37,5.24,5.24,0,0,0,2.94-.86C289.07,56,290.34,58.66,287.86,60.63Z"/><path class="cls-10" d="M292.74,35.5a6.64,6.64,0,0,1-1.29.83l-.24.11-.15-.81h0l-1.68-9.29a7.43,7.43,0,0,0,.69-1.15,7.65,7.65,0,0,0,.62-1.86,5.45,5.45,0,0,0,0-1.85c-.44-2.6.59-3.52,1.58-3.22.29.08,1,1.4,1.64,3.3C295.32,25.64,296.44,32.39,292.74,35.5Z"/><path class="cls-10" d="M288,53.55c-.34.06-.71.11-1.08.14a7.69,7.69,0,0,1,1-5.86,7.44,7.44,0,0,1,1.39-1.58,5.48,5.48,0,0,0,2.36-1c1.31-1,2.82-2.76,3.53-6.16,0,0,.29-1.58,1.47-1.2S297.17,51.89,288,53.55Z"/><path class="cls-9" d="M269.52,11.52c-1-.29-13.67,8.73-9,15.84l7-7.48a6.9,6.9,0,0,1,1.52-4.8C270.87,13.14,270.52,11.81,269.52,11.52Z"/><path class="cls-9" d="M256.38,42a7.57,7.57,0,0,1-1.61,2.21,8,8,0,0,1-.76-.64l-.2-.18a9.87,9.87,0,0,1-2.8-8c.34-5.15,3.47-9.94,4.21-9.74,1.19.33.57,1.81.57,1.81a10.69,10.69,0,0,0-.76,5.74,7.26,7.26,0,0,0,.42,1.46,5.28,5.28,0,0,0,1.37,2A7.34,7.34,0,0,1,256.38,42Z"/><path class="cls-8" d="M291.47,45.76a32.06,32.06,0,0,1-1.92,4.94A29,29,0,0,1,288,53.55,27.3,27.3,0,0,1,284.49,58c-5.1,5.33-11.84,7.84-18.09,6l-.53-.17-.07,0a15.54,15.54,0,0,1-7.16-5.19,19.51,19.51,0,0,1-1.22-1.75,21.62,21.62,0,0,1-1.88-3.9,25.44,25.44,0,0,1-1-3.48,27.54,27.54,0,0,1-.55-6v-.29a31.32,31.32,0,0,1,1.3-8.19c.05-.15.09-.31.14-.46.22-.71.46-1.41.73-2.08a30.41,30.41,0,0,1,3.6-6.7,24.79,24.79,0,0,1,7.83-7.21,18.6,18.6,0,0,1,2.29-1.12A16.44,16.44,0,0,1,276,16.21a14.32,14.32,0,0,1,4,.5l.35.1.29.08h0a13.38,13.38,0,0,1,2.4,1,13.69,13.69,0,0,1,1.33.79,16.46,16.46,0,0,1,4.29,4.24h0c.24.35.48.71.71,1.08s.45.77.66,1.17a24.79,24.79,0,0,1,2.67,10.31c0,.71,0,1.44,0,2.17,0,.48,0,1-.07,1.44a32.52,32.52,0,0,1-1.06,6.1C291.57,45.39,291.52,45.58,291.47,45.76Z"/><path class="cls-11" d="M291.47,45.76a32.06,32.06,0,0,1-1.92,4.94A29,29,0,0,1,288,53.55,27.3,27.3,0,0,1,284.49,58c-5.1,5.33-11.84,7.84-18.09,6l-.53-.17-.07,0a15.54,15.54,0,0,1-7.16-5.19,19.51,19.51,0,0,1-1.22-1.75,21.62,21.62,0,0,1-1.88-3.9c.07-1,.19-2,.36-2.95a31.88,31.88,0,0,1,.87-3.7,31.23,31.23,0,0,1,2.39-5.87l.27-.51a26.24,26.24,0,0,1,9.23-9.84c.36-.22.74-.43,1.11-.62a16.07,16.07,0,0,1,12.06-1.41l.07,0a14.55,14.55,0,0,1,4.47,2.24,17.13,17.13,0,0,1,4.69,5.29c.14.23.27.46.39.7.28.52.55,1.07.79,1.63.16.38.31.76.45,1.15a32.52,32.52,0,0,1-1.06,6.1C291.57,45.39,291.52,45.58,291.47,45.76Z"/><g class="cls-12"><path class="cls-13" d="M289.55,50.7A29,29,0,0,1,288,53.55,27.3,27.3,0,0,1,284.49,58c-5.1,5.33-11.84,7.84-18.09,6l-.53-.17-.07,0a15.54,15.54,0,0,1-7.16-5.19v-.05a27.79,27.79,0,0,1,1.05-2.95l.09-.21a27.76,27.76,0,0,1,1.3-2.62l.09-.16c.47-.8,1-1.57,1.49-2.3.22-.3.44-.6.67-.88a19.44,19.44,0,0,1,10.24-7h0a13.6,13.6,0,0,1,6.28-.1c.26.07.52.13.78.21a12.57,12.57,0,0,1,1.83.7,13.62,13.62,0,0,1,4.22,3.13l.15.16c.36.41.7.84,1,1.28A18,18,0,0,1,289.55,50.7Z"/></g><g class="cls-12"><path class="cls-13" d="M287.86,60.63c-2.47,2-14,7.9-22,3.23-4.31-.22-8-2.74-10.81-5.68a28.85,28.85,0,0,1-5.92-9c-1-3,1.53-4.59,2.25-2.68a6.2,6.2,0,0,0,3.21,3,27.54,27.54,0,0,1-.55-6l-.2-.18.2-.11L256.38,42l2.78-1.51,24.91-13.54,5.34-2.9,1.28-.69,3.24-1.77c1.39,4.08,2.51,10.83-1.19,13.94,0,.71,0,1.44,0,2.17,0,.48,0,1-.07,1.44a32.52,32.52,0,0,1-1.06,6.1c1.31-1,2.82-2.76,3.53-6.16,0,0,.29-1.58,1.47-1.2s.54,14-8.67,15.7A27.3,27.3,0,0,1,284.49,58a5.24,5.24,0,0,0,2.94-.86C289.07,56,290.34,58.66,287.86,60.63Z"/></g><g class="cls-12"><path class="cls-13" d="M292.74,35.5c0,.71,0,1.44,0,2.17l-.52.29-4.08,2.22L282,43.54l-3.52,1.91-.94.51-12.38,6.73-.05,0-3,1.65-2.16,1.17-.18.09-2.28,1.25-2.4,1.3a28.85,28.85,0,0,1-5.92-9c-1-3,1.53-4.59,2.25-2.68a6.2,6.2,0,0,0,3.21,3,27.54,27.54,0,0,1-.55-6l-.2-.18a9.87,9.87,0,0,1-2.8-8l4-2.19,1.15-.62,10.54-5.73,14.82-8,.26-.14,1.27-.69,2.67-1.45,2.18-1.19c.88,2.1-.39,5.78.69,7.51a.59.59,0,0,1,.08.16h0c.24.35.48.71.71,1.08l1.28-.69a5.45,5.45,0,0,0,0-1.85c-.44-2.6.59-3.52,1.58-3.22.29.08,1,1.4,1.64,3.3C295.32,25.64,296.44,32.39,292.74,35.5Z"/></g><path class="cls-8" d="M280.89,16.87s-2.8-1.2-2.35-3.36A2.26,2.26,0,0,0,275.83,11c-2.62.36-3.54,5.33-5.69,6.34S280.89,16.87,280.89,16.87Z"/><path class="cls-8" d="M283.69,19.64c-.55-.42-1.07-.84-1.55-1.22-.76-.6-1.4-1.12-1.81-1.46l0,0-.28-.22-.18-.15a4.09,4.09,0,0,0,.55.05h0c.92,0,2.63-.11,3.21-1.59a2.25,2.25,0,0,1,3.12-1,2.6,2.6,0,0,1,.53.38,2.37,2.37,0,0,1,.63.9c.88,2.1-.39,5.78.69,7.51a.59.59,0,0,1,.08.16h0C289,23.69,286.21,21.62,283.69,19.64Z"/><path class="cls-13" d="M287.22,45.39c-.16.54-.33,1.07-.52,1.58-.31.82-.65,1.6-1,2.36C282,56.77,274.83,61,268.39,59.11a11,11,0,0,1-3.9-2.07,13.38,13.38,0,0,1-3.27-4,20.86,20.86,0,0,1-1.17-15.69c2.9-9.8,11.33-15.94,18.84-13.72S290.12,35.59,287.22,45.39Z"/><path class="cls-14" d="M286.7,47c-3.3,8.87-11.22,14.24-18.31,12.14A12.18,12.18,0,0,1,261.22,53a20.3,20.3,0,0,1,.76-7.83c2.55-8.6,9.95-14,16.54-12C283.74,34.71,286.88,40.4,286.7,47Z"/><path class="cls-15" d="M285.68,49.33C282,56.77,274.83,61,268.39,59.11a11,11,0,0,1-3.9-2.07,17.17,17.17,0,0,1,.73-4.66c2.16-7.31,8.45-11.89,14-10.23C282.43,43.09,284.69,45.81,285.68,49.33Z"/><path class="cls-16" d="M283.83,33.72a1,1,0,1,1-.66-1.21A1,1,0,0,1,283.83,33.72Z"/><path class="cls-16" d="M279.08,26.53a.7.7,0,1,1-.47-.88A.7.7,0,0,1,279.08,26.53Z"/><path class="cls-16" d="M271.09,51.05a.7.7,0,1,1-.48-.88A.7.7,0,0,1,271.09,51.05Z"/><path class="cls-16" d="M270.23,56.44a.7.7,0,1,1-.48-.87A.7.7,0,0,1,270.23,56.44Z"/><path class="cls-16" d="M276.1,55.92a.72.72,0,0,1-.88.48.71.71,0,0,1,.4-1.36A.72.72,0,0,1,276.1,55.92Z"/><path class="cls-16" d="M269.79,29.91a.65.65,0,1,1-.44-.81A.65.65,0,0,1,269.79,29.91Z"/><path class="cls-16" d="M266.64,45.22a.66.66,0,0,1-.81.44.65.65,0,0,1-.44-.8.66.66,0,0,1,.81-.44A.65.65,0,0,1,266.64,45.22Z"/><circle class="cls-16" cx="278.17" cy="37.05" r="0.96" transform="translate(16.08 137.36) rotate(-28.53)"/><path class="cls-16" d="M262.33,42.16a1,1,0,0,1-1.2.65,1,1,0,0,1-.65-1.19,1,1,0,0,1,1.2-.65A1,1,0,0,1,262.33,42.16Z"/><path class="cls-16" d="M273.77,27.16a.52.52,0,0,1-.66.36.53.53,0,1,1,.3-1A.52.52,0,0,1,273.77,27.16Z"/><path class="cls-16" d="M266.62,34.35a.68.68,0,0,1-.85.46.69.69,0,0,1-.46-.85.68.68,0,0,1,1.31.39Z"/><path class="cls-16" d="M273.81,40.07A.9.9,0,1,1,273.2,39,.9.9,0,0,1,273.81,40.07Z"/><path class="cls-16" d="M275,30.78a.68.68,0,0,1-.83.46.67.67,0,0,1,.38-1.29A.68.68,0,0,1,275,30.78Z"/><path class="cls-16" d="M284,42a.62.62,0,0,1-.77.42.62.62,0,1,1,.35-1.19A.62.62,0,0,1,284,42Z"/><path class="cls-16" d="M278.43,45.54a.68.68,0,0,1-.84.46.69.69,0,0,1-.46-.85.68.68,0,0,1,.84-.45A.67.67,0,0,1,278.43,45.54Z"/><path class="cls-16" d="M267.48,40.08a.66.66,0,0,1-.81.45.67.67,0,0,1-.45-.82.66.66,0,0,1,1.26.37Z"/><path class="cls-16" d="M262.59,37.9a.71.71,0,0,1-1.36-.4.71.71,0,0,1,.88-.48A.7.7,0,0,1,262.59,37.9Z"/><path class="cls-16" d="M282.17,29.55a.6.6,0,0,1-.75.41.61.61,0,1,1,.75-.41Z"/><path class="cls-16" d="M263.79,50.22a.61.61,0,0,1-.76.41.6.6,0,0,1-.41-.75.59.59,0,0,1,.75-.41A.6.6,0,0,1,263.79,50.22Z"/><path class="cls-16" d="M282.23,49.84a.64.64,0,1,1-.43-.79A.63.63,0,0,1,282.23,49.84Z"/><path class="cls-16" d="M274,47.19a.84.84,0,1,1-.57-1.06A.86.86,0,0,1,274,47.19Z"/><path class="cls-16" d="M277,52.18a.59.59,0,0,1-.73.4.59.59,0,1,1,.33-1.13A.59.59,0,0,1,277,52.18Z"/></g></g></svg>